<svg width="142" height="109" viewBox="0 0 142 109" fill="none" xmlns="http://www.w3.org/2000/svg">
<path d="M103.815 69.1227C103.393 69.8001 102.957 70.4959 102.382 70.9024C101.806 71.3089 101.142 71.3858 100.497 71.4041C98.4251 71.4554 96.3498 70.9427 94.4174 69.9027C93.2221 69.2582 92.0267 68.4012 90.7471 68.4891C89.4931 68.577 88.3747 69.5658 87.3444 70.5618C85.1077 72.7188 82.9297 75.0808 80.4217 76.5456C77.9137 78.014 74.951 78.4901 72.5126 76.8166C71.7389 76.2856 71.0386 75.5532 70.2833 74.9746C68.1529 73.3486 65.3516 73.074 63.3789 75.0478C62.1212 76.3039 61.3475 78.274 60.6179 80.1783C58.8029 84.8986 56.9915 89.619 55.1765 94.3393C54.5275 96.0275 53.7648 97.8548 52.4668 98.4737C50.2155 99.5504 48.0961 96.3681 47.1428 93.3286C46.0061 89.7069 45.4671 85.7189 45.5844 81.7676C45.6798 78.5084 45.9841 74.5205 44.0408 72.7078C42.6767 71.4334 40.55 71.7373 39.6884 69.7891C39.351 69.0238 39.307 68.0826 39.2814 67.1855C39.2007 64.4756 39.1787 61.762 39.219 59.0521C39.2667 55.7014 39.4941 52.043 41.1514 49.6151C42.7134 47.3227 45.1261 46.7367 47.1794 45.3964C49.0898 44.1477 50.8388 42.1409 52.9435 41.8919C55.7448 41.5623 58.1538 44.3967 60.3649 46.8173C62.5759 49.2379 65.4872 51.4974 68.0649 49.9264C69.3043 49.172 70.2063 47.6486 70.9653 46.0886C73.334 41.2401 74.7676 35.6335 76.8246 30.514C78.8817 25.3982 81.8223 20.5313 85.852 18.8468C86.8347 18.4367 87.8834 18.2279 88.8917 18.4916C90.0907 18.8065 91.1504 19.7587 92.1697 20.6998C93.8234 22.2232 95.5908 24.0249 96.0345 26.7202C96.4305 29.1444 95.6348 31.587 95.1031 33.96C94.5714 36.333 94.3918 39.2699 95.6898 40.9727C96.2581 41.7198 97.0245 42.0896 97.7725 42.4119C100.288 43.4885 102.877 44.2173 105.495 44.5835C106.004 44.6531 106.54 44.7226 106.969 45.1108C109.139 47.07 109.51 53.6726 108.93 56.8622C108.091 61.4764 106.015 65.5925 103.823 69.1227H103.815Z" stroke="white" stroke-miterlimit="10"/>
<path d="M72.289 75.5782C71.4934 75.0948 70.7747 74.4246 69.9973 73.8973C68.373 72.7914 66.404 72.3812 64.6623 72.9891C64.0683 73.1942 63.511 73.5201 62.9976 73.9669C61.6923 75.1058 60.86 76.8489 60.079 78.5334C59.2393 80.3388 58.3923 82.1332 57.5159 83.9825C57.1236 84.8101 56.7312 85.6487 56.3316 86.5056C55.9136 87.4065 55.5029 88.3257 55.0922 89.2412C54.7402 90.0285 54.3809 90.8085 54.0252 91.5885C53.2992 93.1888 52.4669 94.91 51.1322 95.4849C48.8222 96.481 46.6038 93.4635 45.5808 90.5192C44.3892 87.0916 43.8502 83.2904 43.8942 79.5295C43.9272 76.4241 44.1655 72.6266 42.3065 70.8652C41.0048 69.6347 38.9955 69.8837 38.1741 68.0161C37.8515 67.28 37.8038 66.3792 37.7745 65.515C37.6865 62.9113 37.6608 60.3076 37.7048 57.7002C37.7745 54.3714 38.1191 50.7717 39.8388 48.3401C40.0955 47.9776 40.3705 47.659 40.6638 47.3697C42.1818 45.8682 44.1472 45.2457 45.8815 44.1251C47.7992 42.8873 49.5702 40.9538 51.6712 40.6499C54.5422 40.2397 57.0612 42.7738 59.3749 44.9527C61.6886 47.1316 64.6256 49.1567 67.295 47.6406C68.5893 46.9119 69.5647 45.4691 70.4227 44.0189C72.6337 40.2983 74.2691 36.2518 75.9631 32.4616C76.3334 31.634 76.7147 30.8247 77.1291 30.0154C78.1814 27.9463 79.5051 25.8443 80.9864 23.984C82.7171 21.8124 84.6788 20.0034 86.9448 19.0806C87.9605 18.6668 89.0348 18.4397 90.0762 18.6704C90.4538 18.7547 90.8205 18.8938 91.1798 19.0769C91.9902 19.4907 92.7638 20.1169 93.5228 20.7431C95.3122 22.2189 97.2665 23.9987 97.7689 26.6463C98.2052 28.9534 97.4535 31.2861 96.9622 33.5419C96.4709 35.8087 96.2839 38.6028 97.4792 40.2324C98.0036 40.9465 98.7112 41.3017 99.4042 41.613C101.729 42.653 104.12 43.3634 106.532 43.7333C107.002 43.8065 107.497 43.8724 107.893 44.246C109.873 46.1136 110.225 52.3683 109.554 55.3785C109.359 56.261 109.136 57.1399 108.905 58.0005C108.443 59.729 107.849 61.3879 107.185 62.9699C106.903 63.64 106.606 64.2992 106.276 64.9437C105.85 65.7713 105.377 66.5733 104.893 67.3423C104.776 67.5327 104.655 67.7195 104.534 67.9062C104.094 68.5874 103.636 69.2795 103.042 69.697C102.459 70.1071 101.788 70.2097 101.135 70.2536C99.0485 70.3854 96.9365 69.968 94.9492 69.0341C93.8235 68.5032 92.6868 67.7964 91.4952 67.7598C91.3925 67.7598 91.2862 67.7598 91.1835 67.7671C89.8965 67.8586 88.7341 68.7888 87.6561 69.7189C85.3058 71.7367 83.0104 73.9229 80.4034 75.2852C77.8147 76.6511 74.8044 77.1052 72.2927 75.5708L72.289 75.5782Z" stroke="white" stroke-miterlimit="10"/>
<path d="M72.0652 74.3433C71.2512 73.9075 70.5105 73.3033 69.7148 72.8235C68.0612 71.8275 66.0848 71.4723 64.3212 72.0142C63.7162 72.201 63.1478 72.494 62.6235 72.8931C61.2705 73.9148 60.3795 75.4272 59.5471 76.8994C58.6524 78.4704 57.7394 80.0267 56.7641 81.6929C56.3277 82.4363 55.8914 83.2017 55.4441 84.0073C54.9747 84.8496 54.5201 85.7395 54.0617 86.6147C53.6694 87.3691 53.2697 88.1125 52.8737 88.8485C52.0671 90.3573 51.1687 91.9722 49.7937 92.5032C47.4214 93.4187 45.1114 90.566 44.015 87.7133C42.7757 84.4834 42.2257 80.8653 42.2 77.2912C42.1707 74.3359 42.343 70.7325 40.572 69.0224C39.3326 67.8359 37.4406 68.0263 36.6596 66.2429C36.3516 65.5325 36.3003 64.6719 36.2673 63.8443C36.1683 61.3504 36.1316 58.8493 36.1939 56.3518C36.2746 53.045 36.7476 49.5002 38.5333 47.0722C38.7936 46.717 39.0723 46.3984 39.3693 46.1128C40.8946 44.6297 42.8453 43.9742 44.587 42.8609C46.5084 41.6305 48.3014 39.7665 50.4061 39.415C53.3504 38.9242 55.9721 41.1617 58.3958 43.0916C60.8195 45.0215 63.7748 46.8122 66.5395 45.3584C67.8888 44.648 68.9375 43.2894 69.8945 41.9564C72.3769 38.4885 74.3349 34.8777 76.1719 31.6112C76.5716 30.9008 76.9896 30.2233 77.4442 29.5202C78.6066 27.7295 80.1173 25.8142 81.7489 24.0528C83.6336 22.0204 85.6943 20.2516 88.041 19.3141C89.086 18.8967 90.1897 18.655 91.2677 18.8527C91.66 18.9223 92.0377 19.0505 92.4117 19.2153C93.255 19.5925 94.069 20.1894 94.8794 20.7899C96.8044 22.2145 98.9421 23.9722 99.5067 26.5759C99.9797 28.7622 99.2757 30.985 98.8247 33.1273C98.3737 35.2879 98.1794 37.9428 99.2721 39.4955C99.7487 40.173 100.401 40.5209 101.036 40.8175C103.17 41.8282 105.362 42.513 107.57 42.8865C107.999 42.9598 108.457 43.0257 108.813 43.3809C110.606 45.157 110.921 51.0638 110.177 53.8946C109.946 54.7808 109.707 55.6743 109.491 56.5532C109.055 58.3183 108.505 60.0211 107.892 61.6507C107.632 62.3392 107.361 63.0203 107.038 63.6831C106.62 64.5291 106.132 65.342 105.619 66.122C105.494 66.3125 105.37 66.4992 105.245 66.6897C104.787 67.3708 104.306 68.0593 103.698 68.4914C103.107 68.9088 102.433 69.037 101.773 69.1066C99.6717 69.3226 97.523 68.9967 95.477 68.1728C94.322 67.704 93.156 67.0595 91.9313 67.0375C91.825 67.0375 91.7187 67.0375 91.6123 67.0449C90.2923 67.1437 89.086 68.0116 87.9566 68.8795C85.4926 70.7582 83.0726 72.7613 80.3739 74.0283C77.6752 75.2954 74.6466 75.7202 72.0652 74.3323V74.3433Z" stroke="white" stroke-miterlimit="10"/>
<path d="M71.8417 73.1078C71.0093 72.7196 70.2467 72.1777 69.4327 71.7492C67.746 70.863 65.766 70.559 63.9766 71.0424C63.3569 71.2072 62.7849 71.4745 62.2459 71.8188C60.8379 72.7233 59.8956 74.0087 59.0119 75.2647C58.0622 76.605 57.0869 77.9197 56.0125 79.4028C55.5359 80.062 55.0519 80.7578 54.5605 81.5085C54.0399 82.2958 53.5412 83.1491 53.0389 83.9877C52.6099 84.7054 52.1662 85.4122 51.7335 86.1116C50.8498 87.5325 49.8818 89.0412 48.4702 89.5246C46.0391 90.3632 43.6338 87.6716 42.4641 84.9142C41.1808 81.882 40.6271 78.4434 40.5244 75.0597C40.4364 72.2546 40.5391 68.8416 38.8524 67.19C37.6791 66.0438 35.8971 66.1793 35.1564 64.4801C34.8594 63.799 34.8081 62.975 34.7714 62.184C34.6614 59.7964 34.6211 57.4051 34.6907 55.0138C34.7861 51.729 35.3801 48.2391 37.2318 45.8111C37.4994 45.4632 37.7781 45.1483 38.0788 44.8627C39.6078 43.3979 41.5474 42.7094 43.3001 41.5998C45.2251 40.3804 47.0438 38.586 49.1485 38.1868C52.1625 37.6155 54.8905 39.5527 57.4206 41.2409C59.9506 42.9291 62.9279 44.4818 65.7843 43.0866C67.1886 42.4018 68.3143 41.1238 69.363 39.9006C72.124 36.6817 74.3973 33.5068 76.381 30.7712C76.8137 30.1743 77.261 29.6323 77.7597 29.0391C79.032 27.5267 80.7297 25.8019 82.5154 24.1393C84.5468 22.246 86.7138 20.5139 89.1448 19.5655C90.2191 19.1443 91.3485 18.888 92.4632 19.0491C92.8665 19.1077 93.2625 19.2176 93.6475 19.3714C94.5202 19.7156 95.3818 20.2795 96.2435 20.8508C98.3079 22.2241 100.625 23.9599 101.256 26.5196C101.766 28.5887 101.106 30.698 100.699 32.7267C100.292 34.7555 100.086 37.2933 101.073 38.7727C101.502 39.4172 102.099 39.7505 102.679 40.0398C104.626 41.0139 106.617 41.6804 108.619 42.0612C109.011 42.1345 109.425 42.2004 109.744 42.5373C111.35 44.2255 111.614 49.7771 110.808 52.4357C110.536 53.3293 110.283 54.2338 110.082 55.1273C109.671 56.9327 109.161 58.6758 108.608 60.353C108.369 61.0598 108.127 61.7592 107.808 62.4404C107.401 63.3046 106.892 64.1285 106.356 64.9232C106.228 65.1136 106.096 65.3041 105.964 65.4908C105.487 66.1719 104.985 66.8604 104.358 67.3035C103.76 67.7283 103.082 67.8784 102.411 67.9737C100.295 68.2703 98.1062 68.0469 96.0052 67.3255C94.8208 66.919 93.6218 66.3404 92.3678 66.3294C92.2615 66.3294 92.1515 66.3294 92.0451 66.3404C90.6921 66.4429 89.4455 67.2559 88.2648 68.0542C85.6908 69.7973 83.1461 71.621 80.3521 72.7856C77.558 73.9501 74.4963 74.3492 71.8417 73.1078Z" stroke="white" stroke-miterlimit="10"/>
<path d="M71.618 71.8686C70.7673 71.528 69.9789 71.0483 69.1466 70.6675C67.4306 69.8875 65.4469 69.6385 63.6319 70.0596C63.0012 70.2061 62.4182 70.4404 61.8682 70.7371C60.4052 71.5244 59.4152 72.5827 58.4765 73.6227C57.4719 74.736 56.4342 75.8016 55.2608 77.1053C54.7438 77.6802 54.2158 78.3064 53.6732 79.0022C53.1012 79.7346 52.5585 80.5549 52.0122 81.3532C51.5428 82.038 51.0625 82.7045 50.5858 83.3637C49.6251 84.6967 48.5838 86.0992 47.1355 86.535C44.6421 87.293 42.1488 84.7699 40.9021 82.104C39.5784 79.2696 39.0101 76.014 38.8341 72.8171C38.6874 70.1621 38.7241 66.9395 37.1181 65.3429C36.0107 64.237 34.3424 64.3175 33.642 62.7026C33.3597 62.0508 33.3047 61.2634 33.268 60.509C33.1507 58.2313 33.103 55.9425 33.1837 53.6611C33.2973 50.3982 34.0124 46.9669 35.93 44.539C36.2014 44.1948 36.4874 43.8835 36.788 43.6015C38.3207 42.155 40.2494 41.4336 42.0131 40.3313C43.9418 39.1229 45.7861 37.3944 47.8908 36.9476C50.9782 36.2921 53.8052 37.9327 56.4452 39.3792C59.0852 40.8257 62.0846 42.1404 65.0326 40.8001C66.4919 40.1372 67.6946 38.9434 68.8386 37.8302C71.8856 34.8603 74.4743 32.1101 76.5973 29.9129C77.063 29.4332 77.5397 29.023 78.0823 28.536C79.4573 27.3055 81.3457 25.7638 83.2854 24.2001C85.4634 22.4424 87.7367 20.7542 90.2521 19.7947C91.3558 19.3699 92.5144 19.0953 93.6621 19.2235C94.0764 19.2711 94.4871 19.3663 94.8905 19.5054C95.7925 19.8167 96.7018 20.344 97.6148 20.8933C99.8185 22.2153 102.312 23.9255 103.009 26.4486C103.548 28.4005 102.943 30.3963 102.576 32.3115C102.209 34.2267 101.997 36.629 102.88 38.0352C103.265 38.6468 103.804 38.9654 104.325 39.2437C106.081 40.1848 107.874 40.8294 109.675 41.2139C110.027 41.2871 110.401 41.353 110.683 41.6716C112.098 43.2683 112.304 48.472 111.446 50.9512C111.134 51.852 110.87 52.7712 110.679 53.6794C110.294 55.5214 109.825 57.3084 109.326 59.0332C109.114 59.7583 108.897 60.4797 108.578 61.1792C108.182 62.0581 107.651 62.8967 107.09 63.7023C106.954 63.8964 106.818 64.0868 106.683 64.2736C106.188 64.9547 105.663 65.6395 105.022 66.0973C104.417 66.5257 103.735 66.7052 103.056 66.8224C100.926 67.1959 98.7002 67.0714 96.5441 66.4598C95.3305 66.1156 94.1021 65.6029 92.8188 65.6066C92.7088 65.6066 92.5988 65.6102 92.4888 65.6176C91.0991 65.7238 89.8121 66.4781 88.5838 67.2142C85.8961 68.8218 83.2304 70.4624 80.341 71.528C77.4517 72.5937 74.357 72.9672 71.629 71.8686H71.618Z" stroke="white" stroke-miterlimit="10"/>
<path d="M71.3943 70.6286C70.529 70.3357 69.7149 69.9182 68.8643 69.5886C67.1189 68.9185 65.1279 68.7207 63.2872 69.0796C62.6419 69.2041 62.0479 69.4092 61.4906 69.6545C59.9725 70.321 58.9312 71.1559 57.9412 71.9762C56.8815 72.8588 55.7852 73.6791 54.5055 74.8033C53.9482 75.294 53.3725 75.8507 52.7822 76.4952C52.1588 77.1726 51.5722 77.96 50.9818 78.718C50.4758 79.3699 49.9515 79.9961 49.4345 80.6186C48.3968 81.86 47.2858 83.1564 45.8008 83.5482C43.2488 84.2257 40.6674 81.8747 39.3437 79.2966C38.0201 76.7186 37.3967 73.5839 37.1474 70.5774C36.9384 68.0762 36.9091 65.044 35.3874 63.4987C34.3424 62.4367 32.7914 62.4587 32.1313 60.9279C31.8637 60.3017 31.805 59.5547 31.7647 58.8369C31.6363 56.6654 31.585 54.4828 31.6767 52.3112C31.8087 49.0703 32.641 45.6939 34.6247 43.266C34.8997 42.9291 35.1894 42.6179 35.4937 42.3359C37.0301 40.9077 38.9477 40.1533 40.7188 39.0584C42.6548 37.8609 44.5174 36.1947 46.6221 35.704C49.7791 34.9642 52.7052 36.3119 55.4588 37.513C58.2125 38.7141 61.2266 39.7981 64.2699 38.5127C65.7843 37.8719 67.0676 36.7623 68.2996 35.7589C71.64 33.0417 74.5477 30.7126 76.799 29.0537C77.2977 28.6839 77.8 28.4165 78.3904 28.0357C79.8644 27.0872 81.947 25.7286 84.0444 24.2675C86.3654 22.6452 88.7488 20.9973 91.3484 20.0269C92.4851 19.6021 93.6694 19.3091 94.8501 19.4043C95.2791 19.4373 95.7008 19.5215 96.1188 19.6424C97.0538 19.917 98.0035 20.415 98.9678 20.935C101.311 22.2021 103.977 23.8903 104.743 26.3731C105.308 28.2041 104.761 30.0938 104.435 31.8918C104.109 33.6899 103.889 35.9603 104.67 37.2933C105.007 37.8682 105.491 38.1758 105.953 38.4432C107.519 39.3513 109.114 39.9739 110.709 40.3621C111.02 40.439 111.358 40.5012 111.603 40.8052C112.835 42.3139 112.964 47.1624 112.069 49.4658C111.717 50.3777 111.442 51.3042 111.262 52.2306C110.899 54.1093 110.478 55.9403 110.034 57.7127C109.843 58.4561 109.653 59.1958 109.341 59.9172C108.952 60.8144 108.406 61.664 107.819 62.4806C107.68 62.6747 107.541 62.8651 107.394 63.0556C106.881 63.7367 106.334 64.4215 105.674 64.8902C105.062 65.326 104.373 65.5274 103.687 65.6739C101.542 66.128 99.2795 66.0987 97.0648 65.597C95.8218 65.315 94.5605 64.8646 93.2478 64.8829C93.1378 64.8829 93.0241 64.8902 92.9105 64.8976C91.4878 65.0074 90.1568 65.7032 88.8771 66.3734C86.0757 67.8418 83.289 69.3066 80.3044 70.2697C77.3197 71.2329 74.1957 71.5807 71.3943 70.6286Z" stroke="white" stroke-miterlimit="10"/>
<path d="M71.1706 69.3952C70.2869 69.1462 69.4509 68.791 68.5819 68.5163C66.8073 67.9524 64.8089 67.8059 62.9462 68.1062C62.2899 68.2124 61.6849 68.3845 61.1165 68.5786C59.5362 69.1242 58.4509 69.7321 57.4095 70.34C56.2912 70.9919 55.1398 71.5705 53.7575 72.5116C53.1635 72.9181 52.5402 73.4015 51.8985 73.9947C51.2238 74.6136 50.5931 75.368 49.9551 76.0894C49.4124 76.7083 48.8441 77.2978 48.2868 77.8764C47.1758 79.03 45.9914 80.2201 44.4661 80.5644C41.8517 81.1649 39.1934 78.9787 37.7817 76.4922C36.37 74.0057 35.7834 71.1603 35.4607 68.3406C35.193 65.9895 35.094 63.1478 33.6604 61.6574C32.6814 60.6393 31.2403 60.6064 30.6207 59.1562C30.3677 58.5593 30.3053 57.8525 30.2613 57.1677C30.1257 55.1024 30.0707 53.0297 30.166 50.9606C30.3163 47.7417 31.266 44.4203 33.3157 41.996C33.5944 41.6628 33.8877 41.3588 34.1994 41.0768C35.743 39.667 37.646 38.8796 39.4281 37.792C41.3677 36.6055 43.2561 35.0052 45.3608 34.4669C48.5875 33.6393 51.6088 34.6976 54.4798 35.6497C57.3508 36.6019 60.3795 37.4551 63.5109 36.2283C65.0802 35.6131 66.4479 34.5877 67.7679 33.6942C71.4053 31.2333 74.643 29.3218 77.008 28.2012C77.547 27.9448 78.0677 27.813 78.7093 27.5384C80.2787 26.8719 82.5557 25.6964 84.8107 24.3341C87.2747 22.8473 89.7681 21.2433 92.4521 20.2583C93.6181 19.8298 94.8318 19.5222 96.0454 19.5808C96.4855 19.6028 96.9218 19.6687 97.3545 19.7785C98.3188 20.0202 99.3161 20.4853 100.332 20.9797C102.814 22.1955 105.652 23.858 106.488 26.3006C107.079 28.0144 106.587 29.7905 106.301 31.475C106.015 33.1596 105.784 35.2945 106.463 36.5542C106.752 37.0962 107.181 37.3892 107.588 37.6492C108.963 38.5244 110.364 39.125 111.75 39.5205C112.021 39.5974 112.318 39.6596 112.527 39.9453C113.572 41.3661 113.613 45.8594 112.692 47.9907C112.293 48.9099 112.014 49.8474 111.845 50.7922C111.508 52.7111 111.127 54.5824 110.738 56.4024C110.573 57.1641 110.408 57.9258 110.1 58.6618C109.722 59.5737 109.154 60.4416 108.545 61.2655C108.402 61.4596 108.256 61.6537 108.105 61.8441C107.574 62.5253 107.009 63.2064 106.327 63.6898C105.707 64.1292 105.014 64.3599 104.321 64.5284C102.158 65.0631 99.8625 65.1326 97.5891 64.7335C96.3168 64.5101 95.0261 64.1292 93.6804 64.1622C93.5668 64.1622 93.4531 64.1695 93.3394 64.1805C91.8838 64.2977 90.5088 64.9349 89.1814 65.5391C86.2664 66.8684 83.3624 68.1575 80.2787 69.018C77.195 69.8786 74.0453 70.1972 71.1669 69.3952H71.1706Z" stroke="white" stroke-miterlimit="10"/>
<path d="M70.9467 68.159C70.0447 67.9576 69.1867 67.6647 68.2957 67.4413C66.4917 66.9835 64.4823 66.892 62.5977 67.13C61.9267 67.2142 61.3107 67.3534 60.735 67.5035C59.096 67.9247 57.963 68.3128 56.8703 68.7047C55.697 69.1258 54.4943 69.4591 52.9983 70.2208C52.3676 70.543 51.6929 70.9568 51.0036 71.4951C50.2776 72.0591 49.6029 72.7805 48.9209 73.4616C48.3379 74.0476 47.7329 74.5969 47.1316 75.1352C45.9436 76.2008 44.6895 77.2848 43.1275 77.5814C40.4545 78.1014 37.7155 76.0836 36.2158 73.6887C34.8078 71.4402 34.1625 68.734 33.7665 66.1047C33.4365 63.9038 33.2715 61.2561 31.9221 59.817C31.0054 58.8392 29.6818 58.7513 29.1024 57.3854C28.8641 56.8178 28.7981 56.1476 28.7504 55.5031C28.6038 53.5476 28.5451 51.5774 28.6514 49.6182C28.8201 46.4213 29.8871 43.1548 32.0065 40.7305C32.2925 40.4046 32.5895 40.1007 32.9011 39.8224C34.4485 38.4308 36.3368 37.6105 38.1298 36.5302C40.0732 35.3547 41.9835 33.8166 44.0919 33.2344C47.3919 32.3189 50.5049 33.0916 53.4933 33.7947C56.313 34.4575 59.5213 35.124 62.748 33.9485C64.3723 33.3552 65.8244 32.4141 67.2324 31.6304C71.1704 29.4295 74.7454 27.9464 77.2131 27.3495C77.7924 27.2104 78.3278 27.2104 79.0208 27.0456C80.6781 26.6537 83.1568 25.665 85.5732 24.4089C88.1765 23.054 90.7835 21.494 93.5482 20.4979C94.7435 20.0658 95.9829 19.7399 97.2332 19.7655C97.6879 19.7765 98.1353 19.8277 98.5826 19.923C99.5763 20.1317 100.621 20.5601 101.685 21.0289C104.306 22.1897 107.309 23.8303 108.226 26.2326C108.835 27.8292 108.409 29.4918 108.164 31.0628C107.918 32.6338 107.68 34.6296 108.255 35.8198C108.501 36.3251 108.871 36.6108 109.22 36.8561C110.404 37.6947 111.607 38.277 112.787 38.6761C113.018 38.753 113.279 38.819 113.447 39.0826C114.309 40.4193 114.25 44.55 113.315 46.5092C112.872 47.4394 112.582 48.3842 112.428 49.3473C112.116 51.3028 111.783 53.218 111.445 55.0856C111.306 55.8657 111.163 56.6457 110.862 57.4037C110.492 58.3339 109.909 59.2127 109.271 60.0477C109.121 60.2454 108.97 60.4395 108.816 60.6299C108.266 61.3111 107.68 61.9922 106.983 62.4866C106.356 62.9333 105.659 63.186 104.955 63.3838C102.777 63.999 100.442 64.1638 98.1132 63.8745C96.8116 63.7134 95.4879 63.3984 94.1165 63.4424C93.9992 63.4424 93.8856 63.4534 93.7682 63.4607C92.2795 63.5815 90.8605 64.1601 89.4855 64.6984C86.4568 65.8886 83.4318 67.0018 80.2564 67.7562C77.0811 68.5106 73.8947 68.8072 70.9467 68.1517V68.159Z" stroke="white" stroke-miterlimit="10"/>
<path d="M70.7232 66.9256C69.8029 66.7718 68.9229 66.5411 68.0135 66.3653C66.1802 66.0137 64.1635 65.9734 62.2532 66.1565C61.5712 66.2225 60.9405 66.3287 60.3611 66.4275C58.6561 66.7242 57.4828 66.8926 56.3388 67.0684C55.1068 67.2588 53.8564 67.354 52.2504 67.929C51.5831 68.167 50.8571 68.5112 50.1201 68.9946C49.3427 69.5036 48.6241 70.1884 47.898 70.8329C47.2784 71.3859 46.6331 71.8986 45.9877 72.3966C44.7264 73.3744 43.3953 74.3485 41.7967 74.6012C39.0613 75.0406 36.2526 73.1949 34.6576 70.8879C33.2349 68.8335 32.5456 66.314 32.0836 63.8714C31.6913 61.8207 31.4603 59.3635 30.1953 57.9793C29.3409 57.0454 28.1309 56.899 27.5956 55.6173C27.3682 55.0753 27.3022 54.4454 27.2509 53.8375C27.0969 51.9882 27.0346 50.1279 27.1446 48.2749C27.3352 45.0999 28.5123 41.8847 30.7013 39.4678C30.9909 39.1492 31.2916 38.8489 31.6069 38.5706C33.1579 37.1973 35.0353 36.3441 36.8393 35.2674C38.79 34.0992 40.7223 32.6271 42.8307 32.0009C46.2004 30.9975 49.4087 31.4882 52.5144 31.9387C55.4148 32.3598 58.6745 32.7919 61.9891 31.6713C63.6722 31.1037 65.2085 30.2505 66.6972 29.5693C70.9359 27.6358 74.8592 26.5884 77.4186 26.5042C78.0419 26.4822 78.5883 26.6104 79.3326 26.5591C81.0816 26.4383 83.7583 25.64 86.3323 24.4864C89.075 23.2597 91.7957 21.7473 94.6447 20.7402C95.8694 20.3044 97.1381 19.9639 98.4214 19.9565C98.8871 19.9565 99.3491 19.9932 99.8148 20.0701C100.838 20.2458 101.93 20.6377 103.045 21.0844C105.81 22.1904 108.97 23.809 109.968 26.1746C110.591 27.6541 110.235 29.2068 110.03 30.6606C109.825 32.1144 109.579 33.9747 110.052 35.0953C110.25 35.5641 110.565 35.8387 110.859 36.0767C111.849 36.8824 112.857 37.4463 113.836 37.8455C114.027 37.9224 114.247 37.9883 114.383 38.2337C115.061 39.4897 114.892 43.2543 113.95 45.0413C113.455 45.9788 113.165 46.9383 113.022 47.916C112.736 49.9082 112.439 51.8674 112.161 53.7826C112.043 54.5809 111.93 55.3792 111.633 56.1592C111.273 57.1077 110.668 57.9976 110.008 58.8435C109.854 59.0412 109.696 59.2353 109.535 59.4294C108.967 60.1142 108.358 60.788 107.643 61.297C107.009 61.7475 106.308 62.0258 105.597 62.2492C103.404 62.9413 101.032 63.205 98.6488 63.0255C97.3214 62.9266 95.9647 62.674 94.5604 62.7326C94.443 62.7362 94.3257 62.7435 94.2047 62.7545C92.683 62.879 91.22 63.399 89.7974 63.8751C86.6513 64.9261 83.5126 65.8636 80.2383 66.5154C76.9639 67.1673 73.7519 67.4346 70.7269 66.9256H70.7232Z" stroke="white" stroke-miterlimit="10"/>
<path d="M70.4994 65.6904C69.5608 65.5805 68.6588 65.4157 67.7311 65.2912C65.8721 65.0459 63.8444 65.0605 61.912 65.1814C61.2154 65.2253 60.5774 65.2986 59.987 65.3535C58.2197 65.5183 57.0023 65.4707 55.807 65.4304C54.5163 65.3864 53.2183 65.2509 51.4986 65.6355C50.7946 65.7929 50.021 66.0603 49.2363 66.4924C48.4076 66.9465 47.6449 67.5983 46.8749 68.2025C46.2149 68.7225 45.5293 69.1949 44.8436 69.6527C43.5089 70.5426 42.1046 71.4105 40.4692 71.6155C37.6752 71.9781 34.8005 70.2935 33.1028 68.078C31.6728 66.2104 30.9358 63.8814 30.4005 61.6292C29.9458 59.7286 29.6488 57.4655 28.4681 56.1362C27.6798 55.2463 26.5835 55.0449 26.0848 53.8438C25.8721 53.3311 25.8025 52.7378 25.7475 52.1666C25.5824 50.4234 25.5201 48.6693 25.6375 46.9262C25.8465 43.7732 27.1408 40.6129 29.3995 38.196C29.6928 37.881 29.9971 37.5844 30.3161 37.3098C31.8745 35.9511 33.7372 35.0686 35.5522 33.9993C37.5065 32.8421 39.4609 31.4322 41.5692 30.7621C45.0086 29.6671 48.3123 29.8832 51.5353 30.0736C54.5163 30.2531 57.8273 30.4508 61.2337 29.3852C62.9717 28.8432 64.5924 28.0778 66.1691 27.4992C70.7158 25.8367 74.9728 25.2361 77.6312 25.6462C78.2948 25.7488 78.8558 25.9941 79.6515 26.0564C81.4922 26.2029 84.3632 25.595 87.1022 24.5513C89.9842 23.4527 92.8186 21.9915 95.7519 20.9698C97.0096 20.5304 98.304 20.1715 99.6203 20.1312C100.097 20.1166 100.574 20.1386 101.054 20.2045C102.11 20.3473 103.247 20.7062 104.409 21.1273C107.313 22.1783 110.631 23.7749 111.713 26.1003C112.347 27.4663 112.065 28.9018 111.9 30.2457C111.728 31.6593 111.482 33.3072 111.852 34.3582C112.003 34.794 112.263 35.054 112.498 35.281C113.297 36.05 114.107 36.5957 114.881 36.9985C115.031 37.079 115.215 37.145 115.31 37.372C115.809 38.5475 115.519 41.9385 114.577 43.5645C114.03 44.5093 113.741 45.4797 113.609 46.4758C113.348 48.5082 113.092 50.5077 112.872 52.4668C112.776 53.2835 112.688 54.1038 112.399 54.8984C112.047 55.8615 111.427 56.7661 110.738 57.623C110.58 57.8207 110.415 58.0185 110.25 58.2125C109.667 58.8973 109.033 59.5712 108.303 60.0912C107.661 60.5489 106.954 60.8492 106.235 61.1019C104.028 61.8709 101.619 62.2334 99.1766 62.1639C97.82 62.1236 96.4303 61.9405 94.9966 62.0137C94.8756 62.021 94.7546 62.0284 94.6373 62.0357C93.0789 62.1675 91.5756 62.6253 90.1016 63.0354C86.8419 63.9473 83.5822 64.709 80.2125 65.2583C76.8428 65.8076 73.6015 66.0456 70.5031 65.6867L70.4994 65.6904Z" stroke="white" stroke-miterlimit="10"/>
<path d="M70.276 64.4479C69.3226 64.3856 68.3949 64.2794 67.4453 64.2098C65.5569 64.067 63.5219 64.1366 61.5639 64.1988C60.8562 64.2208 60.2036 64.305 59.6059 64.2684C57.7799 64.1586 56.5149 64.0414 55.2682 63.785C53.9225 63.5104 52.5732 63.1405 50.7435 63.3346C50.0028 63.4115 49.1778 63.6056 48.3455 63.9864C47.4655 64.3856 46.6588 65.0045 45.8448 65.5684C45.1481 66.0518 44.4221 66.4913 43.6925 66.9087C42.2844 67.7144 40.8068 68.4724 39.1348 68.6335C36.2784 68.9155 33.345 67.3958 31.541 65.2755C30.111 63.5946 29.319 61.4596 28.7104 59.3979C28.1934 57.6475 27.8303 55.5784 26.7377 54.3004C26.0117 53.4508 25.029 53.1945 24.5743 52.0776C24.3763 51.5942 24.303 51.0412 24.2443 50.5029C24.0683 48.8696 24.006 47.2217 24.127 45.5811C24.3617 42.4501 25.7623 39.3411 28.0907 36.9278C28.3877 36.6202 28.6957 36.3272 29.0183 36.0526C30.5804 34.7123 32.432 33.8004 34.2544 32.7348C36.2124 31.5886 38.1924 30.2373 40.3008 29.5269C43.8098 28.3404 47.2088 28.2818 50.5492 28.2159C53.6109 28.1573 56.9696 28.117 60.4712 27.1063C62.2643 26.5863 63.9729 25.9125 65.6303 25.4401C70.4813 24.0521 75.0647 23.902 77.8294 24.7992C78.5334 25.0262 79.1127 25.3888 79.956 25.5682C81.8884 25.9747 84.9574 25.5609 87.8541 24.6271C90.7508 23.6933 93.8235 22.2431 96.8412 21.2104C98.1282 20.7673 99.4518 20.3938 100.801 20.3169C101.293 20.2876 101.784 20.2986 102.275 20.3498C103.361 20.4597 104.545 20.782 105.759 21.1775C108.806 22.1735 112.274 23.7519 113.444 26.0333C114.086 27.282 113.88 28.604 113.756 29.8345C113.624 31.1418 113.371 32.6432 113.635 33.6247C113.741 34.0238 113.943 34.2728 114.122 34.4889C114.727 35.2213 115.34 35.7486 115.912 36.1588C116.022 36.2393 116.165 36.3089 116.223 36.514C116.539 37.6199 116.124 40.6228 115.193 42.0876C114.588 43.0397 114.302 44.0211 114.185 45.0355C113.946 47.1045 113.734 49.1479 113.569 51.1547C113.495 51.9897 113.437 52.8283 113.151 53.6449C112.806 54.6263 112.168 55.5455 111.457 56.4097C111.292 56.6111 111.127 56.8089 110.954 57.003C110.353 57.6878 109.697 58.3579 108.949 58.8926C108.3 59.3576 107.588 59.6799 106.862 59.9582C104.64 60.8078 102.195 61.2656 99.6938 61.3058C98.3078 61.3278 96.8888 61.2106 95.4258 61.2949C95.3048 61.3022 95.1801 61.3095 95.0591 61.3205C93.4678 61.456 91.9205 61.8551 90.3988 62.203C87.0254 62.9757 83.6484 63.5653 80.1797 64.0084C76.711 64.4515 73.444 64.6639 70.2686 64.4552L70.276 64.4479Z" stroke="white" stroke-miterlimit="10"/>
<path d="M70.0522 63.2148C69.0805 63.1965 68.1308 63.1562 67.1628 63.1342C65.2451 63.0976 63.2028 63.2367 61.2228 63.2221C60.5004 63.2148 59.8368 63.2221 59.2318 63.1891C57.3398 63.0829 56.0344 62.6142 54.7364 62.1455C53.3321 61.6401 51.9314 60.9553 49.9917 61.0395C49.218 61.0725 48.3417 61.1567 47.458 61.4826C46.5267 61.8232 45.676 62.4091 44.8143 62.9365C44.0773 63.3869 43.3147 63.7897 42.541 64.1632C41.0596 64.881 39.5086 65.5292 37.7963 65.6464C34.8813 65.8478 31.8966 64.4818 29.9789 62.4677C28.5489 60.9663 27.6982 59.0291 27.0235 57.1578C26.4442 55.5575 26.0152 53.6825 25.0069 52.4558C24.3432 51.6501 23.4778 51.3352 23.0598 50.3025C22.8765 49.8448 22.7995 49.3321 22.7408 48.8304C22.5575 47.3033 22.4915 45.7616 22.6198 44.2309C22.8765 41.1218 24.3872 38.064 26.7889 35.6581C27.0932 35.3542 27.4049 35.0649 27.7312 34.7902C29.2969 33.4682 31.1376 32.5234 32.9709 31.4651C34.9326 30.3299 36.9346 29.0408 39.0466 28.2865C42.6253 27.0084 46.1197 26.6788 49.5774 26.3529C52.7197 26.0563 56.1297 25.778 59.7194 24.8185C61.5711 24.3242 63.3605 23.7419 65.1058 23.3684C70.2612 22.2624 75.1599 22.5591 78.0456 23.9396C78.7862 24.2949 79.3876 24.7709 80.2786 25.0639C82.3062 25.734 85.5659 25.5107 88.6276 24.6904C91.6893 23.8701 94.85 22.4858 97.952 21.4422C99.2684 20.9954 100.618 20.6072 102.004 20.4974C102.506 20.4571 103.012 20.4534 103.518 20.4864C104.633 20.5633 105.865 20.8489 107.126 21.2224C110.312 22.1599 113.924 23.7236 115.196 25.9611C115.842 27.1 115.717 28.3048 115.633 29.418C115.541 30.6192 115.284 31.9704 115.442 32.886C115.504 33.2448 115.644 33.4829 115.768 33.6953C116.179 34.3837 116.597 34.9001 116.964 35.3139C117.037 35.3944 117.136 35.4677 117.162 35.6508C117.29 36.6944 116.744 39.2981 115.831 40.6055C115.163 41.5613 114.888 42.561 114.782 43.59C114.569 45.6957 114.401 47.783 114.291 49.8374C114.243 50.6907 114.206 51.5513 113.928 52.3862C113.594 53.3823 112.938 54.3161 112.197 55.1913C112.028 55.3927 111.856 55.5905 111.676 55.7882C111.057 56.4767 110.378 57.1432 109.612 57.6888C108.956 58.1575 108.241 58.5091 107.504 58.813C105.263 59.7395 102.785 60.2961 100.229 60.4463C98.8137 60.5305 97.3617 60.4756 95.8694 60.5781C95.7447 60.5854 95.62 60.5964 95.4953 60.6074C93.871 60.7466 92.2797 61.0871 90.7103 61.3728C87.2233 62.0026 83.7253 62.4201 80.1612 62.7607C76.7879 63.0793 73.3009 63.2807 70.0522 63.2258V63.2148Z" stroke="white" stroke-miterlimit="10"/>
<path d="M69.8287 61.9786C68.8387 62.0079 67.867 62.0262 66.8807 62.0592C64.9337 62.1251 62.884 62.3009 60.8783 62.2459C60.145 62.2276 59.4703 62.191 58.8543 62.1141C56.9036 61.8687 55.5506 61.1913 54.2012 60.5101C52.7419 59.7667 51.2899 58.9465 49.2402 58.7487C48.4262 58.6718 47.5022 58.7121 46.5708 58.9831C45.5882 59.2687 44.6935 59.8217 43.7878 60.3087C43.0142 60.7262 42.2112 61.0887 41.3972 61.422C39.8425 62.0555 38.2181 62.5938 36.4691 62.6634C33.4918 62.7879 30.4631 61.5685 28.4244 59.6642C27.0054 58.3386 26.0851 56.6028 25.3407 54.9219C24.699 53.4717 24.204 51.7872 23.28 50.6154C22.6823 49.8537 21.9307 49.4801 21.553 48.5317C21.3843 48.1032 21.3037 47.6272 21.2413 47.1621C21.047 45.7449 20.9847 44.3094 21.113 42.8848C21.3953 39.7978 23.0123 36.7912 25.4837 34.389C25.7917 34.0923 26.107 33.803 26.4371 33.5321C28.0101 32.2284 29.8361 31.2506 31.6767 30.1996C33.6458 29.0754 35.6661 27.8449 37.7818 27.0503C41.4265 25.677 45.0235 25.0801 48.5949 24.4942C51.8179 23.9632 55.2793 23.4432 58.9606 22.5387C60.8673 22.0699 62.741 21.5792 64.5743 21.3046C70.0304 20.4843 75.2444 21.224 78.2548 23.088C79.0321 23.5677 79.6554 24.161 80.5941 24.5711C82.7245 25.5012 86.1711 25.472 89.3942 24.7615C92.6172 24.0511 95.8695 22.7328 99.0559 21.6781C100.402 21.2313 101.78 20.8212 103.199 20.6784C103.713 20.6271 104.233 20.6051 104.758 20.6271C105.902 20.671 107.181 20.9201 108.494 21.268C111.823 22.1505 115.571 23.7032 116.946 25.8931C117.591 26.9221 117.551 28.0061 117.507 29.0058C117.455 30.1007 117.195 31.2982 117.246 32.1551C117.265 32.4774 117.345 32.7008 117.415 32.9058C117.635 33.5504 117.855 34.0557 118.02 34.4732C118.053 34.5538 118.112 34.6343 118.101 34.7918C118.031 35.7805 117.364 37.9741 116.469 39.1313C115.736 40.0834 115.475 41.1051 115.384 42.1524C115.197 44.2984 115.068 46.426 115.017 48.528C114.991 49.3996 114.98 50.2785 114.705 51.1317C114.379 52.1461 113.708 53.0909 112.942 53.9808C112.769 54.1822 112.59 54.3836 112.406 54.5813C111.768 55.2698 111.068 55.9326 110.287 56.4929C109.623 56.969 108.905 57.3425 108.157 57.6721C105.902 58.6755 103.386 59.3273 100.772 59.5873C99.3309 59.7301 97.8459 59.7448 96.3205 59.8583C96.1959 59.8693 96.0675 59.8766 95.9429 59.8876C94.2855 60.0341 92.6502 60.3087 91.0295 60.5321C87.4288 61.0155 83.8098 61.2682 80.1504 61.5025C76.6964 61.7223 73.1654 61.8871 69.8397 61.9859L69.8287 61.9786Z" stroke="white" stroke-miterlimit="10"/>
<path d="M69.605 60.7422C68.5967 60.8155 67.603 60.896 66.5947 60.9839C64.6183 61.1524 62.5613 61.3831 60.5336 61.2696C59.7856 61.2293 59.1 61.156 58.4766 61.0352C56.4673 60.6507 55.0666 59.7645 53.6659 58.8673C52.1516 57.8932 50.6409 56.8459 48.4849 56.4504C47.6342 56.2929 46.6589 56.2563 45.6798 56.476C44.6458 56.7067 43.7072 57.223 42.7575 57.6735C41.9472 58.058 41.1001 58.3839 40.2458 58.6769C38.6178 59.2262 36.9164 59.6546 35.1308 59.6766C32.0947 59.7205 29.0294 58.6366 26.8587 56.8568C25.4507 55.6996 24.4607 54.1762 23.6467 52.6821C22.939 51.3821 22.3817 49.8917 21.5457 48.7711C21.0103 48.0534 20.3723 47.6212 20.0387 46.757C19.8847 46.3578 19.8003 45.9184 19.7343 45.4899C19.5327 44.1789 19.4703 42.8496 19.6023 41.535C19.9103 38.4698 21.6337 35.5146 24.1784 33.1196C24.49 32.8267 24.809 32.5447 25.1427 32.2737C26.7194 30.9884 28.5344 29.9776 30.3861 28.9303C32.3587 27.817 34.4011 26.6452 36.5168 25.8103C40.2311 24.3418 43.9272 23.4812 47.6159 22.628C50.9232 21.8626 54.4286 21.1046 58.2016 20.2513C60.1633 19.8082 62.1213 19.4127 64.039 19.2333C69.7957 18.7023 75.3177 19.8778 78.4601 22.2288C79.2704 22.8367 79.9231 23.5435 80.9058 24.0671C83.1351 25.2573 86.7725 25.4184 90.1532 24.8252C93.5338 24.2319 96.8815 22.9759 100.149 21.9065C101.524 21.4561 102.932 21.0313 104.384 20.8519C104.912 20.786 105.443 20.753 105.982 20.7603C107.159 20.7713 108.483 20.9837 109.847 21.3096C113.316 22.1336 117.191 23.6899 118.68 25.8176C119.325 26.7367 119.373 27.7035 119.366 28.5861C119.358 29.5748 119.098 30.6221 119.032 31.4131C119.01 31.6951 119.032 31.9075 119.039 32.1053C119.072 32.6985 119.091 33.2002 119.05 33.625C119.043 33.7056 119.058 33.7935 119.014 33.929C118.728 34.8591 117.954 36.6388 117.085 37.6496C116.275 38.5944 116.036 39.6417 115.959 40.7073C115.798 42.8899 115.71 45.0578 115.714 47.2111C115.714 48.101 115.725 48.9981 115.457 49.8734C115.138 50.9024 114.449 51.8655 113.657 52.7627C113.477 52.9678 113.294 53.1692 113.103 53.3669C112.447 54.0554 111.728 54.7146 110.925 55.2895C110.254 55.7692 109.528 56.1684 108.776 56.5273C106.507 57.6075 103.955 58.3546 101.282 58.7281C99.8112 58.9295 98.2932 59.0138 96.7422 59.1383C96.6139 59.1493 96.4855 59.1602 96.3572 59.1712C94.6669 59.3214 92.9875 59.5374 91.3192 59.6986C87.6012 60.0428 83.8685 60.1234 80.1101 60.2515C76.5791 60.3687 72.9967 60.5042 69.6013 60.7532L69.605 60.7422Z" stroke="white" stroke-miterlimit="10"/>
<path d="M69.3847 59.5063C68.3581 59.6234 67.3424 59.7699 66.3157 59.9091C64.31 60.1801 62.2457 60.4657 60.1923 60.2973C59.4333 60.235 58.7367 60.1251 58.1023 59.964C56.038 59.4367 54.586 58.3491 53.134 57.2358C51.5646 56.031 49.9953 54.7566 47.7366 54.1634C46.8456 53.929 45.8262 53.8155 44.7996 53.9803C43.7142 54.1561 42.7315 54.6394 41.7379 55.0496C40.8872 55.4011 40.0035 55.6941 39.1052 55.9395C37.4038 56.4082 35.6292 56.7195 33.8068 56.6975C30.7085 56.6609 27.6138 55.6978 25.3074 54.0572C23.9104 53.0611 22.8508 51.7574 21.9707 50.4501C21.1971 49.3039 20.5774 48.0039 19.8257 46.9346C19.3527 46.2607 18.8321 45.7737 18.5351 44.99C18.3957 44.6165 18.3077 44.2173 18.238 43.8255C18.0254 42.6207 17.9631 41.4013 18.0987 40.1891C18.4397 37.146 20.2621 34.242 22.8764 31.8507C23.1917 31.5614 23.5181 31.2831 23.8518 31.0158C25.4321 29.7487 27.2361 28.705 29.0988 27.665C31.0751 26.5591 33.1395 25.4495 35.2588 24.5743C39.0392 23.0106 42.8415 21.8864 46.6402 20.7694C50.0356 19.7697 53.5886 18.7737 57.4496 17.968C59.47 17.5542 61.5087 17.2466 63.5144 17.166C69.5681 16.9243 75.3981 18.532 78.6761 21.3773C79.5195 22.1097 80.1978 22.9337 81.2282 23.5746C83.5602 25.0284 87.3809 25.3763 90.9266 24.8965C94.4723 24.4168 97.9079 23.223 101.259 22.1427C102.667 21.6886 104.101 21.2455 105.586 21.0368C106.125 20.9599 106.671 20.9123 107.225 20.9013C108.431 20.8793 109.803 21.0587 111.214 21.3554C114.822 22.1207 118.819 23.6844 120.432 25.7461C121.07 26.5628 121.21 27.4014 121.239 28.1704C121.272 29.0566 121.023 29.9465 120.836 30.6752C120.773 30.9206 120.733 31.1183 120.685 31.3124C120.542 31.858 120.352 32.3524 120.102 32.7809C120.055 32.8651 120.022 32.9493 119.948 33.0665C119.428 33.9234 118.562 35.2967 117.719 36.1682C116.828 37.0911 116.619 38.1787 116.553 39.2626C116.417 41.4818 116.373 43.6937 116.432 45.8945C116.454 46.8027 116.494 47.7219 116.23 48.6154C115.919 49.6628 115.211 50.6369 114.397 51.545C114.214 51.7501 114.023 51.9515 113.829 52.1529C113.154 52.8414 112.413 53.5006 111.596 54.0865C110.917 54.5735 110.188 54.9947 109.425 55.3792C107.137 56.5364 104.548 57.3823 101.82 57.8657C100.321 58.1293 98.7696 58.2758 97.1893 58.4186C97.0573 58.4296 96.9289 58.4406 96.7969 58.4516C95.0736 58.6054 93.3502 58.7629 91.6342 58.8581C87.8025 59.0632 83.9488 58.9789 80.0951 58.9899C76.4871 59.0156 72.8571 59.1034 69.3847 59.5063Z" stroke="white" stroke-miterlimit="10"/>
<path d="M69.1613 58.2696C68.1163 58.4307 67.0786 58.6358 66.0336 58.8299C63.9986 59.1998 61.9269 59.5403 59.8479 59.3169C59.0742 59.2327 58.3702 59.0862 57.7249 58.8812C55.6055 58.211 54.1022 56.9183 52.5989 55.5927C50.9708 54.1572 49.3465 52.6557 46.9851 51.8647C46.0575 51.5535 44.9868 51.363 43.9125 51.4766C42.7758 51.5974 41.7491 52.0478 40.7078 52.4177C39.8204 52.7363 38.8964 52.9926 37.9541 53.1977C36.1794 53.5822 34.3314 53.7836 32.4687 53.7141C29.3117 53.6005 26.1877 52.74 23.742 51.2532C22.356 50.4109 21.223 49.3343 20.277 48.2137C19.4373 47.2213 18.7516 46.1117 18.0879 45.0937C17.6773 44.4638 17.2739 43.9182 17.0173 43.2187C16.8926 42.8745 16.8009 42.5156 16.7276 42.1567C16.5076 41.0618 16.4489 39.9485 16.5846 38.8426C16.9586 35.8214 18.8726 32.9614 21.5676 30.5848C21.8866 30.3028 22.2166 30.0281 22.554 29.7608C24.138 28.5121 25.9273 27.4354 27.801 26.4027C29.7847 25.3078 31.8674 24.2568 33.9904 23.3413C37.8367 21.6824 41.7454 20.2945 45.6541 18.9139C49.1375 17.6835 52.7309 16.442 56.6872 15.6913C58.7626 15.2995 60.8856 15.0908 62.9793 15.1091C69.33 15.1603 75.4643 17.1928 78.8817 20.5325C79.758 21.3858 80.4657 22.3306 81.5401 23.0849C83.9784 24.8024 87.9824 25.3334 91.6858 24.9745C95.3892 24.6157 98.9239 23.4804 102.356 22.3855C103.793 21.9277 105.253 21.47 106.774 21.2246C107.328 21.1367 107.885 21.0745 108.457 21.0489C109.693 20.9939 111.112 21.1331 112.575 21.4114C116.326 22.1145 120.425 23.7075 122.174 25.685C122.809 26.4027 123.04 27.1132 123.106 27.765C123.186 28.545 122.944 29.2921 122.633 29.9476C122.534 30.1563 122.435 30.3431 122.321 30.5262C122.006 31.0352 121.599 31.5112 121.144 31.9434C121.056 32.0276 120.975 32.1155 120.876 32.2107C120.114 32.9687 119.164 33.9538 118.35 34.6972C117.367 35.5907 117.199 36.7296 117.144 37.8246C117.03 40.084 117.03 42.3362 117.144 44.5846C117.191 45.5111 117.254 46.4486 116.997 47.3605C116.696 48.4224 115.97 49.4112 115.131 50.3303C114.944 50.5354 114.746 50.7405 114.548 50.9382C113.855 51.6267 113.092 52.2822 112.256 52.8828C111.57 53.3735 110.833 53.8203 110.067 54.2341C107.764 55.4682 105.139 56.413 102.356 57.0062C100.827 57.3285 99.2465 57.5445 97.6332 57.6983C97.5012 57.7093 97.3692 57.724 97.2335 57.7349C95.4735 57.8924 93.7098 57.9913 91.9461 58.0242C88.0008 58.0902 84.0261 57.8302 80.077 57.7386C76.3884 57.6617 72.7107 57.713 69.1686 58.2733L69.1613 58.2696Z" stroke="white" stroke-miterlimit="10"/>
<path d="M118.973 33.2123C117.895 34.0545 117.771 35.263 117.727 36.3762C117.639 38.6723 117.679 40.9684 117.851 43.2645C117.921 44.2093 118.013 45.1651 117.76 46.0989C117.466 47.1792 116.722 48.1789 115.857 49.1091C111.959 53.2874 105.289 56.2354 98.0657 56.9751C88.415 57.9602 78.3096 55.1917 68.9375 57.0337C65.8172 57.6452 62.6895 58.7695 59.5031 58.341C53.3064 57.5097 51.6638 51.753 46.2297 49.5705C45.2617 49.1823 44.1434 48.9113 43.0214 48.9736C41.8334 49.0358 40.7627 49.4533 39.6773 49.7865C34.0673 51.504 27.1079 50.9401 22.1799 48.4462C17.2518 45.9487 14.5055 41.6422 15.0738 37.4968C15.5322 34.1497 17.9889 31.0334 21.2595 28.5029C24.5266 25.9725 28.5856 23.9657 32.7253 22.1054C36.6376 20.3476 40.6563 18.6997 44.6714 17.0518C48.2427 15.587 51.8801 14.1039 55.9245 13.4081C64.5412 11.925 74.3606 14.5836 79.0833 19.6774C79.9889 20.6552 80.7296 21.7172 81.848 22.5887C84.389 24.5699 88.5837 25.2876 92.4447 25.0423C96.3057 24.7969 99.9358 23.724 103.452 22.618C105.454 21.9882 107.493 21.3363 109.685 21.1862C114.214 20.8749 121.28 23.0062 123.909 25.6136C127.381 29.0559 121.698 31.0883 118.97 33.2159L118.973 33.2123Z" stroke="white" stroke-miterlimit="10"/>
</svg>
