<svg width="142" height="109" viewBox="0 0 142 109" fill="none" xmlns="http://www.w3.org/2000/svg">
<path d="M55.0147 46.1153C53.4484 45.087 51.1613 44.1026 49.4486 44.732C47.8897 45.3029 47.8897 46.8618 48.4862 48.106C49.1229 49.4381 50.2208 50.686 50.8356 52.0217C51.3479 53.1341 51.5126 54.2796 51.5748 55.4103C51.604 55.9519 51.604 56.5155 51.2564 56.9729C50.938 57.3901 50.3562 57.6755 49.756 57.9098C48.0946 58.5538 46.1441 58.8905 44.6364 59.6773C42.0053 61.0496 41.1929 63.4941 40.5269 65.7776C40.3878 66.257 40.2524 66.7767 40.5671 67.2524C40.8159 67.6293 41.3026 67.9147 41.7784 68.1782C43.1214 68.9211 44.5742 69.6201 46.1917 69.9421C48.3837 70.3812 50.6416 70.0812 52.5738 69.492C54.506 68.9065 56.1967 68.0502 58.0045 67.3256C58.9011 66.9633 59.8891 66.6266 60.9906 66.6705C63.1863 66.7584 64.8953 68.3063 65.5906 69.7664C66.2859 71.2266 66.3883 72.7782 67.4166 74.1724C68.6682 75.8668 71.303 77.1366 73.978 77.3306C76.6531 77.5245 79.2477 76.6353 80.4333 75.1166C81.5788 73.6528 81.4983 71.9658 81.8313 70.2678C81.9777 69.5213 82.1387 69.5505 82.5229 69.2834C83.1158 68.8735 83.9757 69.126 84.876 69.1736C88.5647 69.3749 91.313 67.4097 93.1976 65.4226C95.3347 63.1721 97.04 60.6434 97.3547 57.8549C97.5633 56.0032 97.051 53.9283 95.0786 52.4462C92.8426 50.7628 89.3881 50.2724 86.2373 49.8955C85.2602 49.7784 84.2355 49.6613 83.3573 49.8772C82.5998 50.0639 82.0435 50.4737 81.5458 50.8946C80.2687 51.9741 79.2367 53.1927 78.4792 54.5028C77.4472 56.2959 76.9057 58.294 75.204 59.7907C73.4987 61.2911 70.0441 62.0925 67.5191 60.8337C63.7133 58.9344 64.0975 56.091 62.4105 53.4086C60.7161 50.7116 58.1838 48.1939 55.0147 46.1153Z" stroke="white" stroke-width="0.609385" stroke-miterlimit="10"/>
<path d="M54.993 45.3577C53.2181 43.9964 50.715 42.5728 48.6804 42.9681C46.9824 43.2974 46.6786 44.7246 47.0555 46.053C47.4544 47.4582 48.5413 48.9037 49.222 50.3602C49.8148 51.6264 50.1075 52.8962 50.3015 54.1734C50.4076 54.8687 50.4954 55.6115 50.1734 56.2263C49.9136 56.7277 49.372 57.1046 48.7645 57.3937C47.2019 58.1402 45.2807 58.4623 43.8023 59.2673C41.1382 60.7128 40.3477 63.2086 39.356 65.4592C39.001 66.2716 38.6863 67.2157 39.034 68.0684C39.2206 68.5295 39.7037 68.8917 40.2123 69.2028C41.4932 69.9932 42.9423 70.641 44.5232 70.9886C46.7664 71.479 49.0719 71.2814 51.0956 70.7544C53.1193 70.2275 55.0588 69.3162 56.9654 68.4453C58.0376 67.9549 59.1391 67.3511 60.387 67.2743C62.5424 67.1462 64.2112 68.6575 65.0528 69.9676C65.8945 71.2777 66.3226 72.9684 67.4095 74.5164C68.705 76.3497 71.23 77.7952 73.8941 78.2161C76.5582 78.6369 79.387 77.9819 80.8361 76.5108C82.245 75.0909 82.45 73.2648 82.8928 71.3692C83.127 70.3665 83.1672 70.0445 83.5953 69.5285C84.082 68.943 84.9786 69.1845 85.8606 69.2284C89.3773 69.4004 92.0158 67.4426 93.948 65.6202C96.3486 63.3586 98.2698 60.6177 98.7858 57.595C99.1664 55.381 98.9139 52.8779 96.9854 51.0299C94.9251 49.0538 91.4852 48.4536 88.2831 47.729C87.0353 47.4472 85.6447 47.2753 84.426 47.5204C83.588 47.6924 82.9366 48.095 82.3731 48.5561C81.0813 49.6173 80.0603 50.8579 79.2991 52.1789C78.2013 54.0928 77.5755 56.2007 75.9361 57.8841C74.2967 59.5674 70.9738 60.8336 68.4524 59.9187C64.6759 58.5501 64.6978 56.0177 62.7364 53.3793C60.6651 50.5944 58.184 47.8059 54.9893 45.354L54.993 45.3577Z" stroke="white" stroke-width="0.609385" stroke-miterlimit="10"/>
<path d="M54.9671 44.6038C52.9909 42.8985 50.2902 41.0651 47.9079 41.2078C46.0928 41.3176 45.4597 42.5837 45.6171 44C45.7745 45.4162 46.854 47.1215 47.6005 48.7024C48.2702 50.1186 48.7094 51.5129 49.0204 52.94C49.2034 53.789 49.3754 54.7003 49.0863 55.487C48.8777 56.0616 48.3837 56.541 47.7689 56.8886C46.3087 57.7193 44.4131 58.0487 42.964 58.8647C40.2706 60.3834 39.3521 62.8901 38.1847 65.1517C37.5956 66.2971 37.1418 67.6438 37.4968 68.899C37.6468 69.4296 38.1042 69.8797 38.6385 70.242C39.8571 71.0654 41.3026 71.6802 42.8432 72.0461C45.1341 72.5914 47.4944 72.4999 49.6059 72.0242C51.8565 71.5155 53.9021 70.5787 55.9185 69.576C57.1664 68.9539 58.3704 68.0939 59.7719 67.889C61.8761 67.5852 63.5302 69.0234 64.5073 70.1798C65.5722 71.4423 66.2492 73.1733 67.3946 74.8713C68.7267 76.8437 71.1492 78.4685 73.8023 79.1126C76.4555 79.7566 79.5148 79.3321 81.2311 77.9159C82.9474 76.4997 83.4048 74.5785 83.9464 72.4816C84.2685 71.2264 84.1953 70.586 84.66 69.7846C85.0735 69.0747 85.9701 69.3308 86.841 69.2906C90.1931 69.1405 92.7328 67.4974 94.698 65.825C97.373 63.5525 99.5101 60.5993 100.216 57.3387C100.773 54.7625 100.776 51.8568 98.888 49.6172C96.9997 47.3777 93.5818 46.5543 90.3249 45.5662C88.7952 45.1015 87.0533 44.8929 85.4871 45.1673C84.5722 45.3283 83.822 45.7199 83.1889 46.2249C81.8825 47.2679 80.8724 48.534 80.1076 49.8624C78.9402 51.8971 78.2376 54.1221 76.6568 55.9811C74.9624 57.9755 71.9104 59.5783 69.3781 59.0038C65.6527 58.1621 65.2758 55.9518 63.0545 53.3499C60.599 50.4809 58.191 47.3886 54.9561 44.5965L54.9671 44.6038Z" stroke="white" stroke-width="0.609385" stroke-miterlimit="10"/>
<path d="M54.9451 43.85C52.7677 41.786 49.8804 39.5757 47.1431 39.4476C45.2182 39.3598 44.2558 40.4393 44.1899 41.9507C44.1241 43.4621 45.178 45.343 45.9867 47.0483C46.7369 48.6146 47.3261 50.1333 47.7469 51.7068C48.0141 52.7095 48.2556 53.7818 48.0067 54.7442C47.8421 55.3883 47.4066 55.9665 46.7808 56.38C45.4195 57.2839 43.5568 57.6279 42.1297 58.4622C39.407 60.0541 38.3165 62.5535 37.0137 64.8443C36.1757 66.3191 35.6158 68.0647 35.9635 69.7261C36.0879 70.3189 36.505 70.8642 37.0722 71.274C38.236 72.1267 39.6705 72.7159 41.1745 73.1001C43.5166 73.7003 45.9282 73.7112 48.1275 73.2904C50.5391 72.8256 52.7604 71.8339 54.8792 70.7032C56.3028 69.9456 57.6019 68.8405 59.1681 68.5002C61.2211 68.0537 62.8825 69.3858 63.9693 70.3884C65.2428 71.5631 66.1834 73.3709 67.3873 75.2263C68.7596 77.3378 71.076 79.1456 73.7182 80.0129C76.4994 80.9241 79.6538 80.6899 81.6336 79.3249C83.6134 77.9599 84.3745 75.8959 85.0076 73.5941C85.4248 72.0828 85.2492 71.1423 85.7359 70.0408C86.0945 69.2247 86.9691 69.4406 87.8328 69.3565C91.0055 69.0454 93.4757 67.5633 95.4591 66.0337C98.4233 63.7538 100.776 60.5847 101.658 57.0899C102.401 54.155 102.643 50.8542 100.806 48.2121C99.071 45.72 95.697 44.6185 92.3815 43.4145C90.5737 42.7558 88.4768 42.5289 86.5666 42.8253C85.5749 42.9827 84.7295 43.3559 84.0233 43.9049C82.7022 44.9332 81.6995 46.2176 80.9346 47.5533C79.7014 49.7124 78.922 52.0545 77.396 54.0892C75.709 56.3361 72.8838 58.3305 70.3185 58.1036C66.67 57.7779 65.8613 55.9006 63.3875 53.339C60.5368 50.3858 58.224 46.9678 54.9378 43.8536L54.9451 43.85Z" stroke="white" stroke-width="0.609385" stroke-miterlimit="10"/>
<path d="M54.9232 43.0961C52.5519 40.6699 49.4706 38.1046 46.3747 37.6874C44.3437 37.413 43.0519 38.2913 42.7591 39.8978C42.4664 41.5043 43.4947 43.5646 44.373 45.3906C45.2037 47.1106 45.9466 48.75 46.4735 50.4736C46.8285 51.63 47.1286 52.8633 46.9273 54.005C46.8029 54.715 46.4296 55.392 45.7929 55.875C44.523 56.8375 42.6969 57.2144 41.299 58.0597C38.5434 59.7284 37.2699 62.2096 35.8501 64.537C34.7522 66.3338 34.1155 68.4856 34.4338 70.5532C34.5363 71.2119 34.9133 71.8449 35.5061 72.3097C36.6186 73.1843 38.0384 73.7515 39.5059 74.1577C41.8992 74.8164 44.3657 74.9335 46.6492 74.5603C49.2218 74.1394 51.6114 73.0855 53.8437 71.8303C55.4392 70.9337 56.8334 69.6017 58.5644 69.1113C60.5624 68.5441 62.2458 69.7407 63.4315 70.5971C64.9282 71.6803 66.1176 73.5686 67.3837 75.5776C68.8 77.8245 71.0103 79.8226 73.6378 80.9058C76.4556 82.0658 79.8003 82.0439 82.0399 80.7265C84.2795 79.4091 85.3481 77.2061 86.0726 74.703C86.5813 72.9391 86.3215 71.7022 86.8119 70.2897C87.1302 69.3711 87.9682 69.5431 88.8246 69.4114C91.818 68.9503 94.2296 67.6292 96.2203 66.235C99.4846 63.9515 102.046 60.5665 103.1 56.8338C104.03 53.5366 104.502 49.8625 102.72 46.7995C101.131 44.0696 97.8159 42.6533 94.4345 41.2518C92.3523 40.3881 89.8968 40.1539 87.6426 40.4723C86.574 40.6223 85.6299 40.981 84.854 41.5738C83.522 42.5875 82.5266 43.8902 81.7581 45.2369C80.4553 47.5168 79.6027 49.9869 78.1316 52.1863C76.4556 54.693 73.872 57.0643 71.2591 57.1924C67.7058 57.3644 66.4359 55.8457 63.7169 53.3134C60.4637 50.2833 58.2643 46.5214 54.9159 43.0998L54.9232 43.0961Z" stroke="white" stroke-width="0.609385" stroke-miterlimit="10"/>
<path d="M54.9013 42.3387C52.3396 39.5465 49.0607 36.6482 45.6062 35.9273C43.4654 35.4808 41.8516 36.1432 41.3283 37.8448C40.8049 39.5465 41.815 41.7824 42.7591 43.7329C43.6667 45.6029 44.5669 47.3668 45.2 49.2404C45.6428 50.5505 45.9977 51.9448 45.8477 53.2622C45.7599 54.0416 45.4525 54.8101 44.8084 55.3664C43.6301 56.38 41.8443 56.7972 40.4719 57.6572C37.6908 59.3991 36.2196 61.8546 34.6863 64.2296C33.3213 66.3411 32.6224 68.9027 32.9078 71.3802C32.992 72.1011 33.325 72.822 33.9471 73.3454C35.0084 74.2383 36.4136 74.7945 37.8444 75.2117C40.289 75.9289 42.8067 76.1522 45.1817 75.8265C47.9153 75.4495 50.4733 74.3297 52.8153 72.9574C54.5829 71.9218 56.0759 70.3739 57.9715 69.7225C59.8671 69.0711 61.6347 70.0848 62.9045 70.8057C64.6391 71.7864 66.0626 73.7625 67.3874 75.9289C68.8475 78.3149 70.948 80.5069 73.5646 81.7987C76.4189 83.2076 79.9503 83.3943 82.4534 82.1244C84.9565 80.8546 86.3324 78.5162 87.1448 75.8045C87.7523 73.7881 87.4193 72.2548 87.895 70.5349C88.1805 69.5139 88.9746 69.6456 89.8199 69.4663C92.6267 68.8662 94.9944 67.7024 96.9852 66.4326C100.56 64.1491 103.323 60.5445 104.546 56.574C105.669 52.9182 106.353 48.8708 104.641 45.3833C103.188 42.4265 99.9493 40.6663 96.4948 39.089C94.1417 38.0132 91.3239 37.7826 88.7257 38.1193C87.584 38.2693 86.541 38.6097 85.6957 39.2427C84.3526 40.2454 83.3646 41.5628 82.5888 42.9169C81.2201 45.3211 80.2979 47.9157 78.8744 50.2834C77.213 53.0499 74.871 55.7799 72.2032 56.2776C68.756 56.918 67.0141 55.7945 64.0536 53.2878C60.3904 50.1846 58.3155 46.0677 54.9013 42.3423V42.3387Z" stroke="white" stroke-width="0.609385" stroke-miterlimit="10"/>
<path d="M54.8794 41.5847C52.1348 38.4229 48.6437 35.2063 44.8378 34.167C42.5836 33.5522 40.6551 33.9986 39.8939 35.7954C39.1327 37.5922 40.1317 40.0038 41.1381 42.0787C42.1261 44.1024 43.1837 45.9834 43.9193 48.0107C44.4499 49.4745 44.8524 51.0298 44.761 52.5265C44.7097 53.3755 44.4645 54.2318 43.8132 54.8613C42.719 55.9189 40.9771 56.3836 39.634 57.2546C36.8236 59.077 35.1548 61.4996 33.5154 63.9221C31.876 66.3447 31.1368 69.3235 31.3746 72.2072C31.4405 72.994 31.7296 73.799 32.3773 74.3772C33.391 75.2811 34.7779 75.83 36.1722 76.2655C38.6679 77.0413 41.2405 77.3707 43.6997 77.0926C46.598 76.7632 49.3207 75.5739 51.7725 74.0845C53.7084 72.9061 55.3039 71.1532 57.3605 70.3299C59.2635 69.5687 61.0127 70.4177 62.363 71.0105C64.3464 71.8815 65.9932 73.9564 67.3765 76.2802C68.8769 78.8015 70.8713 81.1912 73.4768 82.6952C76.3641 84.3603 80.0895 84.7518 82.8524 83.5296C85.6153 82.3073 87.3023 79.8298 88.2026 76.9169C88.9052 74.648 88.5099 72.8183 88.9674 70.7909C89.2199 69.6675 89.9664 69.7626 90.8081 69.5284C93.4283 68.8002 95.7593 67.7938 97.7428 66.6375C101.64 64.3649 104.597 60.5335 105.984 56.3177C107.371 52.102 108.187 47.89 106.551 43.9707C105.223 40.7906 102.076 38.6754 98.5442 36.9262C95.924 35.6271 92.7403 35.4149 89.7981 35.7662C88.5795 35.9125 87.4414 36.2382 86.5228 36.9116C85.1688 37.9033 84.1881 39.2353 83.4086 40.6003C81.9741 43.1254 80.9824 45.848 79.6064 48.3804C77.9597 51.4104 75.8665 54.4807 73.1365 55.3663C69.7991 56.4531 67.5741 55.7469 64.3794 53.2621C60.3064 50.093 58.3669 45.6101 54.8757 41.5884L54.8794 41.5847Z" stroke="white" stroke-width="0.609385" stroke-miterlimit="10"/>
<path d="M54.8538 40.8311C51.9298 37.2924 48.2191 33.772 44.0656 32.407C41.6943 31.6275 39.4584 31.8581 38.4593 33.7427C37.5152 35.5248 38.4483 38.2219 39.5206 40.4212C40.5891 42.5949 41.8041 44.6003 42.6421 46.7777C43.2642 48.3915 43.7107 50.1115 43.6777 51.7839C43.6594 52.6987 43.4765 53.6465 42.8214 54.3528C41.8077 55.4433 40.1171 55.9666 38.7997 56.8522C35.9599 58.7515 34.0936 61.1411 32.348 63.6113C30.4231 66.3339 29.6583 69.7409 29.8412 73.0344C29.8888 73.8871 30.1377 74.7763 30.811 75.4131C31.7808 76.3279 33.1457 76.8732 34.5034 77.3197C37.0504 78.1577 39.6743 78.5895 42.2213 78.3589C45.2806 78.0772 48.1716 76.8183 50.7369 75.2081C52.8447 73.8871 54.5464 71.9439 56.7603 70.9375C58.6193 70.0922 60.4052 70.7399 61.8287 71.2157C64.0646 71.9585 65.9346 74.1506 67.3728 76.628C68.9171 79.2885 70.8017 81.8757 73.3963 83.5847C76.3165 85.5059 80.2322 86.1024 83.2586 84.9277C86.285 83.753 88.2793 81.1401 89.2674 78.0186C90.0688 75.4936 89.6187 73.3711 90.0432 71.0363C90.2664 69.8068 90.9617 69.8726 91.7998 69.5835C94.2333 68.7455 96.5351 67.8819 98.5039 66.8353C102.731 64.5847 105.878 60.5154 107.426 56.0581C108.944 51.6851 110.013 46.9058 108.469 42.5547C107.261 39.1514 104.216 36.6776 100.601 34.7637C97.7171 33.2377 94.1638 33.0474 90.8776 33.4133C89.5821 33.556 88.3489 33.8634 87.3572 34.5807C85.9958 35.5614 85.0187 36.9081 84.2356 38.2841C82.7316 40.9299 81.6777 43.7843 80.3493 46.4776C78.7245 49.7712 76.8618 53.1598 74.0843 54.4553C70.8493 55.963 68.1449 55.7032 64.7197 53.2367C60.2295 50.0054 58.4327 45.1493 54.8647 40.8311H54.8538Z" stroke="white" stroke-width="0.609385" stroke-miterlimit="10"/>
<path d="M54.8318 40.0735C51.7323 36.1615 47.791 32.3411 43.2972 30.6431C40.8087 29.7026 38.2654 29.7135 37.0285 31.686C35.8721 33.534 36.765 36.436 37.9068 38.7561C39.0522 41.0799 40.4281 43.206 41.3686 45.5334C42.0786 47.301 42.5689 49.1819 42.5982 51.0336C42.6128 52.018 42.4921 53.0463 41.8334 53.8368C40.8966 54.9602 39.2608 55.5458 37.9654 56.4387C35.1 58.4184 33.0287 60.7678 31.177 63.2929C28.963 66.3156 28.1799 70.1507 28.308 73.8504C28.3409 74.7689 28.5458 75.7387 29.2411 76.4377C30.167 77.3635 31.5064 77.9051 32.8311 78.3662C35.4257 79.2701 38.1081 79.8044 40.7392 79.6177C43.9595 79.3872 47.0152 78.0515 49.6939 76.3279C51.9701 74.8641 53.7889 72.7379 56.1529 71.5413C57.9717 70.6191 59.7868 71.0509 61.2872 71.4132C63.7756 72.017 65.8688 74.3371 67.3619 76.9683C68.9501 79.7641 70.7213 82.5563 73.3085 84.4665C76.2617 86.6476 80.3713 87.4417 83.6575 86.3182C86.9437 85.1948 89.2492 82.4392 90.325 79.1164C91.2253 76.3389 90.7239 73.92 91.1118 71.2778C91.3094 69.9421 91.9498 69.9787 92.7805 69.6311C95.0274 68.6942 97.3 67.9697 99.2505 67.0255C103.814 64.8115 107.144 60.486 108.849 55.7909C110.555 51.0958 111.81 45.914 110.364 41.1311C109.266 37.5046 106.335 34.6648 102.636 32.5899C99.492 30.826 95.5654 30.6723 91.9316 31.0493C90.5593 31.192 89.2308 31.4811 88.1659 32.2349C86.7973 33.2047 85.8239 34.5697 85.0371 35.9493C83.4672 38.7195 82.3474 41.702 81.0629 44.56C79.4601 48.117 77.8206 51.8094 74.9992 53.5257C71.852 55.4396 68.6829 55.6482 65.0271 53.1964C60.1198 49.9065 58.473 44.6735 54.8209 40.0625L54.8318 40.0735Z" stroke="white" stroke-width="0.609385" stroke-miterlimit="10"/>
<path d="M54.8099 39.3196C51.5383 35.027 47.3592 30.9174 42.5323 28.8828C39.9231 27.7813 37.0761 27.5727 35.5976 29.6366C34.2253 31.5505 35.0853 34.6574 36.2929 37.1019C37.5188 39.5794 39.0558 41.8226 40.0951 44.3038C40.8965 46.2213 41.4272 48.2706 41.5186 50.2943C41.5662 51.3482 41.504 52.4571 40.8453 53.3317C39.978 54.4844 38.4044 55.1358 37.1346 56.0397C34.2436 58.1036 31.9674 60.4054 30.0133 62.989C27.5029 66.3045 26.7161 70.5788 26.7783 74.681C26.7929 75.6654 26.9576 76.7157 27.6785 77.4732C28.5605 78.4027 29.8778 78.9516 31.1623 79.42C33.8045 80.3898 36.5417 81.0266 39.2607 80.8838C42.6457 80.7045 45.8624 79.292 48.6583 77.4549C51.1028 75.8484 53.0423 73.5466 55.549 72.1523C57.3349 71.157 59.1756 71.3655 60.7492 71.6217C63.4901 72.0718 65.8029 74.531 67.3582 77.3232C68.9903 80.2544 70.6444 83.2515 73.228 85.3667C76.2104 87.8076 80.514 88.8029 84.0636 87.727C87.6133 86.6512 90.2299 83.7602 91.3936 80.2324C92.3926 77.2061 91.8437 74.4834 92.195 71.5339C92.367 70.0884 92.9525 70.1067 93.7796 69.6968C95.8472 68.6722 98.0904 68.083 100.019 67.234C104.923 65.0749 108.432 60.4823 110.298 55.5383C112.165 50.5944 113.625 44.9405 112.285 39.7221C111.297 35.8723 108.487 32.6666 104.696 30.4307C101.3 28.429 96.9962 28.3119 93.0147 28.6998C91.5655 28.8425 90.142 29.1133 89.0039 29.9074C87.6243 30.8698 86.6582 32.2458 85.8678 33.6364C84.2283 36.5274 83.05 39.6416 81.8057 42.6607C80.2285 46.4848 78.794 50.47 75.9469 52.6181C72.873 54.9345 69.2538 55.6152 65.3674 53.1743C60.0392 49.8296 58.5462 44.2123 54.8099 39.3086V39.3196Z" stroke="white" stroke-width="0.609385" stroke-miterlimit="10"/>
<path d="M54.788 38.5657C51.3481 33.8926 46.9238 29.5012 41.764 27.1262C39.0303 25.8673 35.8832 25.4392 34.1669 27.5873C32.5824 29.5707 33.4057 32.8789 34.6756 35.4478C35.982 38.0753 37.6763 40.4394 38.8181 43.0742C39.711 45.1418 40.2782 47.3594 40.4356 49.5588C40.5161 50.6822 40.5051 51.8715 39.8537 52.8303C39.0523 54.0123 37.5446 54.7259 36.3004 55.6408C33.3838 57.7852 30.9026 60.0468 28.8424 62.6853C26.0319 66.2862 25.2451 71.0032 25.2451 75.5117C25.2451 76.562 25.3695 77.6928 26.1087 78.5125C26.9541 79.4493 28.2386 79.9982 29.4901 80.4813C32.1835 81.5169 34.9757 82.2561 37.7825 82.1573C41.3285 82.0292 44.7098 80.5398 47.6191 78.5857C50.2283 76.8328 52.2996 74.37 54.9454 72.7671C56.7019 71.7022 58.5573 71.6766 60.215 71.8339C63.2048 72.1194 65.7445 74.7322 67.3546 77.6781C68.9648 80.624 70.5713 83.9468 73.1476 86.2632C76.1593 88.9676 80.6605 90.1679 84.47 89.1323C88.2612 88.1149 91.207 85.0776 92.4586 81.3412C93.5564 78.0624 92.9673 75.0396 93.271 71.7864C93.4174 70.2311 93.9517 70.2311 94.7714 69.7554C96.6597 68.6575 98.87 68.1964 100.78 67.4353C106.035 65.3457 109.717 60.4676 111.74 55.2822C113.764 50.0967 115.429 43.9598 114.203 38.3095C113.318 34.2365 110.635 30.6612 106.753 28.2716C103.104 26.0247 98.4199 25.9515 94.0944 26.3504C92.5721 26.4931 91.0534 26.7493 89.8421 27.58C88.4552 28.5314 87.4927 29.922 86.6949 31.3199C84.9896 34.3354 83.7491 37.5813 82.5451 40.7614C80.9971 44.8527 79.7493 49.1269 76.8876 51.7105C73.8758 54.4258 69.8174 55.5822 65.7005 53.156C59.9515 49.7637 58.6158 43.7548 54.7917 38.562L54.788 38.5657Z" stroke="white" stroke-width="0.609385" stroke-miterlimit="10"/>
<path d="M54.7623 37.8082C51.154 32.7545 46.4809 28.0814 40.9917 25.3624C38.1336 23.9462 34.69 23.2984 32.7322 25.5344C30.9318 27.5873 31.7222 31.1004 33.0579 33.7901C34.4412 36.5713 36.3002 39.0525 37.5408 41.841C38.5252 44.0586 39.129 46.4446 39.3522 48.8159C39.4656 50.0126 39.5022 51.2751 38.8655 52.3217C38.1263 53.5293 36.6881 54.3124 35.4695 55.2383C32.5273 57.4669 29.8413 59.6772 27.6785 62.3779C24.5643 66.2643 23.7885 71.4278 23.7153 76.3425C23.7006 77.4586 23.7885 78.6662 24.546 79.5518C25.3511 80.4923 26.6099 81.0485 27.8249 81.5389C30.5621 82.6477 33.4129 83.4857 36.3075 83.4272C40.0146 83.3503 43.5606 81.7841 46.5833 79.7165C49.3608 77.8172 51.5712 75.2007 54.3414 73.3819C56.0687 72.2475 57.9423 72.2182 59.6769 72.0462C62.8972 71.7315 65.6821 74.9336 67.3471 78.0331C69.0122 81.1327 70.487 84.6421 73.0632 87.1599C76.1006 90.1277 80.803 91.5256 84.8723 90.5375C88.9307 89.5678 92.184 86.395 93.5197 82.4538C94.7163 78.9224 94.0869 75.5996 94.3431 72.0426C94.4638 70.3775 94.9505 70.3665 95.7556 69.8213C97.4756 68.6539 99.6456 68.3172 101.534 67.6439C107.14 65.6458 110.994 60.4604 113.175 55.0334C115.502 49.2404 117.218 42.9864 116.11 36.9043C115.326 32.6045 112.776 28.6669 108.798 26.1162C104.904 23.6205 99.8323 23.5985 95.1628 24.0047C93.5636 24.1438 91.9498 24.3853 90.6653 25.2562C89.2711 26.2004 88.3086 27.602 87.5109 29.0109C85.7397 32.147 84.4405 35.5247 83.2732 38.8658C81.7545 43.2206 80.6859 47.7876 77.8169 50.803C74.9479 53.8184 70.3662 55.5567 66.0224 53.1341C59.8489 49.6942 58.6779 43.2938 54.7623 37.8082Z" stroke="white" stroke-width="0.609385" stroke-miterlimit="10"/>
<path d="M54.7404 37.0544C50.9674 31.6201 46.0381 26.6688 40.2232 23.6022C37.2371 22.0286 33.4971 21.1613 31.3014 23.4814C29.2887 25.6076 30.0389 29.3183 31.4442 32.1324C32.9079 35.0637 34.928 37.6655 36.2674 40.6041C37.3469 42.9718 37.9836 45.5261 38.2727 48.0731C38.4155 49.3393 38.4996 50.675 37.8775 51.8094C37.1969 53.0463 35.8319 53.8953 34.6389 54.8285C31.6747 57.1449 28.7801 59.304 26.5112 62.0596C23.0859 66.224 22.3248 71.8413 22.1857 77.1585C22.1528 78.3406 22.2077 79.625 22.9798 80.5728C23.7519 81.5206 24.9742 82.0805 26.1562 82.5819C28.9411 83.7602 31.8467 84.6605 34.8292 84.6824C38.7009 84.7117 42.4079 83.0137 45.5478 80.8327C48.49 78.787 50.8467 76.0241 53.7413 73.9821C55.4466 72.7782 57.3276 72.4671 59.1427 72.2439C62.5899 71.823 65.6273 75.1129 67.3436 78.3772C69.1148 81.7146 70.4102 85.3265 72.9828 88.0491C76.0421 91.2804 80.9458 92.876 85.2786 91.9355C89.6005 91.0096 93.1611 87.7051 94.5847 83.5553C95.8838 79.7714 95.2105 76.1485 95.419 72.2878C95.5142 70.513 95.957 70.4947 96.7474 69.8725C98.3064 68.6466 100.425 68.4307 102.295 67.8379C108.26 65.9496 112.278 60.4421 114.617 54.7662C117.149 48.622 119.012 41.991 118.027 35.4845C117.343 30.9577 114.931 26.6542 110.855 23.9498C106.778 21.2455 101.256 21.2309 96.2424 21.648C94.5664 21.7871 92.861 22.014 91.4997 22.9215C90.1384 23.8291 89.1394 25.2709 88.338 26.6908C86.4973 29.9477 85.1432 33.4571 84.0125 36.9629C82.5231 41.5848 81.6228 46.4373 78.7611 49.8918C75.8994 53.3464 70.9335 55.5238 66.3592 53.1085C59.7648 49.6283 58.7548 42.829 54.7477 37.0544H54.7404Z" stroke="white" stroke-width="0.609385" stroke-miterlimit="10"/>
<path d="M54.7184 36.3004C50.7844 30.4819 45.5916 25.2562 39.4547 21.8419C36.3405 20.1109 32.3041 19.0277 29.8669 21.4284C27.6383 23.624 28.3555 27.536 29.823 30.4746C31.3673 33.5595 33.5483 36.2748 34.9865 39.3707C36.1575 41.8885 36.8272 44.6111 37.1858 47.3301C37.3615 48.6658 37.4859 50.0784 36.8821 51.3006C36.2783 52.5229 34.9682 53.4817 33.7972 54.4258C30.811 56.8264 27.7078 58.9343 25.3365 61.7521C21.6001 66.1947 20.8609 72.2657 20.6487 77.9855C20.6011 79.237 20.6231 80.591 21.4099 81.6084C22.1454 82.5598 23.3347 83.127 24.4838 83.6357C27.3126 84.8909 30.2804 85.9229 33.3471 85.9485C37.3798 85.9814 41.2515 84.2541 44.5048 81.956C47.758 79.6579 50.1257 76.8584 53.1301 74.5895C54.8135 73.316 56.6798 72.5768 58.6011 72.4487C62.3081 72.1999 65.5614 75.3067 67.3362 78.7247C69.1513 82.1975 70.326 86.018 72.8986 88.9383C75.9799 92.4331 81.0849 94.2262 85.6811 93.3333C90.2665 92.4514 94.1382 89.0115 95.6459 84.6603C97.0438 80.624 96.3375 76.6973 96.4949 72.5365C96.568 70.6482 96.9706 70.6336 97.7391 69.931C99.148 68.6465 101.205 68.555 103.056 68.039C109.376 66.2825 113.563 60.431 116.058 54.51C118.799 48.0108 120.797 41.0065 119.941 34.0718C119.352 29.3145 117.083 24.6487 112.908 21.787C108.527 18.7862 102.676 18.8704 97.3182 19.2949C95.5654 19.4339 93.7649 19.6425 92.3304 20.5903C90.8959 21.5381 89.9664 22.9434 89.1613 24.3706C87.2547 27.7519 85.8421 31.3894 84.748 35.0562C83.2915 39.9453 82.5523 45.0905 79.6979 48.9768C76.8179 52.8998 71.4934 55.4944 66.6848 53.0828C59.666 49.5624 58.8243 42.3642 54.722 36.2968L54.7184 36.3004Z" stroke="white" stroke-width="0.609385" stroke-miterlimit="10"/>
<path d="M54.6965 35.5431C50.6015 29.3403 45.1452 23.8401 38.6899 20.0818C35.4476 18.1935 31.1148 16.8907 28.4398 19.3792C25.9989 21.6481 26.6795 25.7576 28.2129 28.817C29.834 32.0519 32.1761 34.888 33.7167 38.1376C34.9792 40.8054 35.6855 43.7 36.11 46.591C36.3186 47.9999 36.476 49.482 35.8978 50.7957C35.3196 52.1095 34.1193 53.0756 32.9702 54.0234C29.9621 56.5118 26.6503 58.5648 24.1728 61.4448C20.1218 66.1582 19.4082 72.694 19.1191 78.8126C19.0569 80.1301 19.0459 81.5572 19.8437 82.6441C20.5463 83.5992 21.699 84.1774 22.8151 84.6934C25.6878 86.0255 28.7142 87.1526 31.8687 87.2184C36.0624 87.3063 40.0951 85.4985 43.4692 83.0869C46.7444 80.7448 49.4158 77.7075 52.53 75.2007C54.1988 73.8614 56.0541 72.8806 58.0668 72.6574C62.0044 72.2219 65.4992 75.5045 67.3326 79.0761C69.1916 82.688 70.2456 86.7098 72.8182 89.8313C75.9214 93.5932 81.2313 95.5767 86.0874 94.735C90.9399 93.897 95.1263 90.329 96.7109 85.7693C98.2149 81.4841 97.4647 77.25 97.5708 72.7892C97.6184 70.7874 97.988 70.7764 98.7308 69.9897C99.997 68.6466 101.984 68.6796 103.814 68.2404C110.492 66.6412 114.844 60.4201 117.497 54.2539C120.442 47.4034 122.58 40.0223 121.855 32.6594C121.365 27.6715 119.239 22.6398 114.961 19.628C110.342 16.3711 104.099 16.5138 98.3905 16.9456C96.5608 17.0847 94.6688 17.2786 93.1575 18.263C91.7413 19.1852 90.7898 20.6234 89.9811 22.0579C88.005 25.56 86.5375 29.3293 85.4799 33.1571C84.0564 38.3096 83.4709 43.7513 80.6348 48.0658C77.7877 52.3986 72.0497 55.4652 67.0142 53.0573C59.5709 49.5003 58.8975 41.8996 54.6965 35.5431Z" stroke="white" stroke-width="0.609385" stroke-miterlimit="10"/>
<path d="M54.6707 34.7892C50.4148 28.2022 44.6913 22.4312 37.9177 18.3216C34.5436 16.2759 29.9254 14.7609 27.0051 17.3262C24.352 19.6719 24.9961 23.9755 26.5952 27.1592C28.2969 30.5442 30.8073 33.4974 32.4395 36.9044C33.8008 39.7185 34.5326 42.7851 35.0267 45.8481C35.2645 47.3265 35.4549 48.8818 34.9059 50.2871C34.3863 51.6154 33.2591 52.662 32.1357 53.6208C29.1093 56.2008 25.5853 58.1915 23.0053 61.1374C18.6396 66.1216 17.9516 73.1185 17.5893 79.6397C17.5124 81.0266 17.4722 82.5197 18.2809 83.6761C18.9506 84.6348 20.0667 85.2204 21.1499 85.7473C24.0629 87.1599 27.1515 88.3821 30.3938 88.4846C34.7485 88.6346 38.9423 86.7317 42.4334 84.214C45.8697 81.7182 48.7168 78.5565 51.9261 75.8119C53.5802 74.3993 55.4209 73.1807 57.5288 72.866C61.6896 72.2439 65.4369 75.7021 67.3252 79.4311C69.2281 83.1784 70.1576 87.4087 72.7339 90.7315C75.8554 94.7569 81.3702 96.938 86.4898 96.1439C91.6058 95.3534 96.0996 91.65 97.7719 86.8818C99.3748 82.344 98.5917 77.8063 98.6429 73.0416C98.6685 70.9265 99.0125 70.9191 99.7151 70.0519C100.85 68.6466 102.753 68.815 104.568 68.449C111.605 67.0291 116.132 60.4201 118.931 54.0051C122.096 46.8069 124.354 39.0415 123.762 31.2542C123.363 26.0357 121.387 20.6417 117.006 17.4726C112.154 13.9595 105.512 14.1717 99.459 14.5999C97.556 14.739 95.5689 14.9183 93.9844 15.9356C92.5609 16.8505 91.6131 18.2996 90.797 19.7415C88.755 23.368 87.2327 27.2617 86.2117 31.2578C84.8247 36.6775 84.3856 42.4155 81.5678 47.1582C78.75 51.9009 72.6058 55.4432 67.3398 53.039C59.4756 49.4454 58.967 41.4385 54.6707 34.7929V34.7892Z" stroke="white" stroke-width="0.609385" stroke-miterlimit="10"/>
<path d="M37.1493 16.5613C33.6435 14.3583 28.7288 12.6237 25.5707 15.2769C22.698 17.6921 23.3091 22.1969 24.9742 25.5051C26.7527 29.0438 29.4205 32.1141 31.1587 35.6747C32.6079 38.6426 33.3763 41.8775 33.9399 45.1125C34.2107 46.6641 34.4302 48.2926 33.9106 49.7857C33.4385 51.1506 32.3993 52.2558 31.2978 53.2219C28.2531 55.8897 24.5167 57.8255 21.8343 60.8336C17.1466 66.0849 16.4915 73.5503 16.0524 80.474C15.9609 81.9268 15.895 83.493 16.7074 84.719C17.3442 85.6851 18.4237 86.2779 19.4703 86.8085C22.4235 88.3016 25.578 89.6117 28.9081 89.7581C33.4239 89.9557 37.7823 87.9832 41.3869 85.3447C44.9915 82.7063 48.0106 79.4091 51.3151 76.4266C52.9545 74.9445 54.7806 73.4844 56.9836 73.0782C61.3676 72.2658 65.3638 75.8996 67.3106 79.786C69.2574 83.6724 70.0625 88.104 72.6425 91.628C75.7823 95.9169 81.502 98.2956 86.8851 97.5491C92.2682 96.8025 97.0621 92.9638 98.826 87.9942C100.528 83.2039 99.7116 78.3625 99.7116 73.2978C99.7116 71.0691 100.041 71.0691 100.7 70.114C101.713 68.6429 103.517 68.9503 105.322 68.6539C112.714 67.4389 117.401 60.4054 120.362 53.7489C123.725 46.1957 126.126 38.0534 125.668 29.8415C125.364 24.3889 123.535 18.6362 119.052 15.3098C113.965 11.5369 106.924 11.804 100.528 12.2468C98.5478 12.3859 96.4693 12.5505 94.8079 13.6045C93.377 14.512 92.4329 15.9722 91.6131 17.425C89.5053 21.1723 87.9281 25.1977 86.94 29.3548C85.5897 35.038 85.2969 41.0798 82.4974 46.247C79.7016 51.4141 73.1585 55.4176 67.6619 53.0133C59.3732 49.3868 59.0329 40.9737 54.6415 34.039C50.2282 27.0677 44.234 21.0259 37.1419 16.565L37.1493 16.5613Z" stroke="white" stroke-width="0.609385" stroke-miterlimit="10"/>
</svg>
