<svg width="467" height="97" viewBox="0 0 467 97" fill="none" xmlns="http://www.w3.org/2000/svg">
<g clip-path="url(#clip0_1094_3208)">
<rect width="467" height="97" fill="black"/>
<path d="M159.613 27.3054C208.202 27.4022 256.79 27.4079 305.379 27.3054C310.921 30.3666 314.829 36.045 318.193 41.2455C320.048 44.1132 321.727 48.3691 324.404 50.5996C327.819 53.4445 334.098 53.82 338.364 54.7247C348.046 56.7901 357.865 58.1499 367.576 60.0902C401.871 66.9578 433.709 82.8551 465.633 96.7041C428.27 96.7041 390.906 96.7041 353.543 96.7041C236.149 96.7041 118.755 96.6985 1.36133 96.7041C32.264 83.1396 63.144 67.0204 96.2815 59.891C105.334 57.9451 114.495 56.517 123.537 54.5085C128.211 53.4729 134.7 52.83 138.75 50.2126C141.83 48.2212 143.991 44.0164 146.09 41.1317C149.822 36.0166 153.923 30.3495 159.624 27.2941L159.613 27.3054Z" stroke="white" stroke-width="0.609385" stroke-miterlimit="10"/>
<path d="M46.1667 77.1199C140.605 77.5466 235.014 78.2806 329.452 77.6718C359.64 77.4783 389.823 77.2564 420.011 77.1199" stroke="white" stroke-width="0.609385" stroke-miterlimit="10"/>
<path d="M90.1327 61.2965C137.746 64.8583 184.446 76.5964 232.354 76.659C280.069 76.7216 326.565 65.0745 373.974 61.4615" stroke="white" stroke-width="0.609385" stroke-miterlimit="10"/>
<path d="M123.962 54.4231C160.532 63.6975 194.31 81.8537 232.819 82.1325C270.585 82.4056 303.298 64.2039 338.965 54.8612" stroke="white" stroke-width="0.609385" stroke-miterlimit="10"/>
<path d="M138.251 50.5712C169.619 60.3747 199.268 74.036 232.774 74.2237C248.22 74.3091 263.626 71.7885 278.413 67.3903C294.154 62.7019 309.276 56.1586 324.892 51.0889" stroke="white" stroke-width="0.609385" stroke-miterlimit="10"/>
<path d="M142.494 46.0933C172.319 52.8243 201.911 60.4032 232.694 60.5397C263.036 60.6706 292.129 53.2795 321.472 46.4915" stroke="white" stroke-width="0.609385" stroke-miterlimit="10"/>
<path d="M146.861 40.0735C175.365 43.9938 203.805 47.6921 232.626 47.7035C261.203 47.7149 289.338 44.2726 317.597 40.3409" stroke="white" stroke-width="0.609385" stroke-miterlimit="10"/>
<path d="M151.257 34.5031C205.53 38.3721 259.224 38.5201 313.502 34.6567" stroke="white" stroke-width="0.609385" stroke-miterlimit="10"/>
<path d="M155.534 30.1846C206.818 31.6013 258.101 31.6412 309.384 30.2472" stroke="white" stroke-width="0.609385" stroke-miterlimit="10"/>
<path d="M300.184 27.3226C305.357 30.6796 308.885 36.0963 311.903 41.3537C313.939 44.9042 315.397 49.4958 318.029 52.6423C320.717 55.8571 326.424 56.1302 330.349 56.9495C339.175 58.793 348.171 59.7375 357.048 61.2851C389.67 66.9693 419.307 82.787 449.053 96.7156" stroke="white" stroke-width="0.609385" stroke-miterlimit="10"/>
<path d="M294.982 27.3282C304.007 33.7521 306.854 45.2113 311.732 54.537C313.666 58.2296 318.601 58.4629 322.402 59.2595C330.491 60.9437 338.783 61.4899 346.946 62.6677C377.786 67.1228 405.013 82.7869 432.467 96.7156" stroke="white" stroke-width="0.609385" stroke-miterlimit="10"/>
<path d="M289.786 27.3397C298.385 34.8105 301.573 46.3665 305.674 56.6025C307.274 60.5967 311.035 60.9495 315.13 61.7745C322.385 63.2425 329.855 63.4132 337.201 64.1984C353.078 65.9053 367.179 70.6677 381.241 78.1327C392.818 84.2777 404.418 90.3715 415.887 96.71" stroke="white" stroke-width="0.609385" stroke-miterlimit="10"/>
<path d="M284.585 27.3453C293.093 35.6183 296.065 48.0278 299.786 58.9466C300.076 59.7887 300.308 61.3591 301.012 62.0134C302.935 63.8114 307.66 64.3121 310.138 64.6876C315.947 65.5752 321.874 65.4728 327.728 65.8313C342.578 66.7303 355.267 71.0318 368.104 78.4683C378.529 84.5109 389 90.4682 399.307 96.7099" stroke="white" stroke-width="0.609385" stroke-miterlimit="10"/>
<path d="M279.383 27.3568C287.631 36.3638 290.433 49.5812 293.825 61.0064C295.135 65.4103 297.398 66.2467 302.038 67.0604C307.433 68.0049 313.02 67.5099 318.465 67.5326C331.994 67.5895 343.162 71.3277 354.484 78.5595C363.917 84.585 373.418 90.4853 382.715 96.7157" stroke="white" stroke-width="0.609385" stroke-miterlimit="10"/>
<path d="M274.182 27.3624C282.151 37.2172 284.573 51.015 287.841 62.9864C289.037 67.3562 290.319 68.6876 295.192 69.5581C299.849 70.3888 304.67 69.5695 309.339 69.2509C321.506 68.4315 331.029 71.6349 340.871 78.6448C349.306 84.6532 357.848 90.5023 366.135 96.7156" stroke="white" stroke-width="0.609385" stroke-miterlimit="10"/>
<path d="M268.98 27.368C276.536 38.0763 278.6 52.3691 281.783 64.8582C282.815 68.9208 283.83 71.1853 288.328 72.016C292.282 72.7443 296.394 71.5609 300.286 70.9407C304.994 70.1896 309.719 69.9165 314.381 71.1455C319.56 72.5111 323.219 75.4698 327.269 78.7357C334.705 84.7328 342.283 90.5364 349.567 96.7212" stroke="white" stroke-width="0.609385" stroke-miterlimit="10"/>
<path d="M263.773 27.368C270.795 38.9639 272.497 53.5697 275.588 66.588C276.496 70.4001 276.989 73.4271 281.374 74.2521C284.721 74.8837 288.045 73.4271 291.216 72.5509C294.63 71.6007 298.096 70.8496 301.653 71.43C306.792 72.2721 310.008 75.4129 313.655 78.8097C320.088 84.7897 326.707 90.5535 332.981 96.7155" stroke="white" stroke-width="0.609385" stroke-miterlimit="10"/>
<path d="M258.566 27.368C264.794 39.5898 266.178 54.1045 269.043 67.3845C269.729 70.5765 269.984 75.1056 273.677 76.255C276.558 77.1539 279.559 75.2023 282.055 74.0473C289.712 70.5139 294.233 72.4598 299.69 78.4911C305.221 84.6076 311.018 90.4567 316.389 96.7155" stroke="white" stroke-width="0.609385" stroke-miterlimit="10"/>
<path d="M253.359 27.3738C258.827 40.6026 259.797 55.4872 262.593 69.4386C263.138 72.1526 263.297 77.1142 266.513 78.1611C268.816 78.9121 271.079 76.5907 272.741 75.3788C278.515 71.1626 281.737 72.5111 285.827 78.1099C290.41 84.3801 295.373 90.3487 299.815 96.7213" stroke="white" stroke-width="0.609385" stroke-miterlimit="10"/>
<path d="M248.151 27.368C252.445 40.9439 253.24 55.544 255.537 69.5523C255.854 71.4812 256.053 78.8495 258.94 79.7485C260.733 80.3061 262.344 77.5409 263.2 76.4882C264.295 75.1397 265.577 73.1426 267.466 72.9776C270.251 72.7273 271.487 76.5622 272.61 78.548C276.071 84.6588 279.928 90.5136 283.235 96.7155" stroke="white" stroke-width="0.609385" stroke-miterlimit="10"/>
<path d="M242.939 27.368C246.024 41.4788 246.575 56.0959 248.327 70.4172C248.52 71.9819 248.651 79.9988 250.625 80.8296C252.156 81.4725 252.939 78.309 253.353 77.3588C253.773 76.3801 254.641 73.245 256.013 73.2337C257.789 73.2223 258.577 77.2393 259.11 78.5707C261.527 84.6645 264.386 90.5592 266.655 96.7212" stroke="white" stroke-width="0.609385" stroke-miterlimit="10"/>
<path d="M237.72 27.3624C239.053 38.6738 239.439 50.0819 240.131 61.4444C240.511 67.7032 239.632 75.9023 242.139 81.8083C243.92 79.8624 242.888 75.669 244.158 73.2394C245.758 75.9592 245.939 80.0331 246.751 83.1625C247.919 87.6745 249.144 92.1467 250.069 96.7213" stroke="white" stroke-width="0.609385" stroke-miterlimit="10"/>
<path d="M232.502 27.3568C232.615 39.1518 232.632 50.9411 232.695 62.7361C232.729 69.1315 233.449 75.8284 232.797 82.201C232.394 79.2821 232.604 76.1185 232.025 73.3021C231.946 81.1256 233.222 88.9036 233.483 96.7157" stroke="white" stroke-width="0.609385" stroke-miterlimit="10"/>
<path d="M227.283 27.3624C226.188 38.6681 225.848 50.042 225.292 61.3818C224.997 67.3789 226.03 76.1355 223.539 81.7229C221.94 80.5793 221.792 77.3133 221.106 75.5267C220.249 73.2906 220.176 72.7501 219.2 75.0488C218.043 77.7685 218.366 82.3318 218.111 85.2336C217.771 89.0742 217.419 92.8977 216.914 96.7156" stroke="white" stroke-width="0.609385" stroke-miterlimit="10"/>
<path d="M222.07 27.368C219.16 42.1559 218.792 57.3534 216.988 72.2948C216.818 73.6945 216.755 80.4199 214.696 80.784C213.25 81.0401 212.155 78.2976 211.56 77.2791C210.93 76.2094 209.557 72.8411 207.77 73.1654C206.091 73.4726 205.422 78.2578 205.059 79.5494C203.454 85.2676 202.041 91.0314 200.334 96.7212" stroke="white" stroke-width="0.609385" stroke-miterlimit="10"/>
<path d="M216.857 27.368C212.666 41.6267 212.047 56.7673 209.665 71.3959C209.319 73.5068 209.103 79.4413 206.103 79.5721C204.293 79.6518 202.796 77.5409 201.656 76.3801C200.379 75.0829 198.343 72.5054 196.165 72.8923C193.488 73.3645 192.421 77.4384 191.502 79.4697C188.904 85.2107 186.42 91.003 183.748 96.7155" stroke="white" stroke-width="0.609385" stroke-miterlimit="10"/>
<path d="M211.645 27.3738C206.381 40.8814 205.485 55.9025 202.66 70.0417C202.127 72.7216 201.809 77.2962 198.423 78.0302C196.188 78.5139 193.737 76.3517 192.024 75.2422C189.959 73.9051 187.503 72.164 184.877 72.5054C181.309 72.9663 179.647 76.6874 177.957 79.3958C174.349 85.1652 170.804 90.9802 167.157 96.7213" stroke="white" stroke-width="0.609385" stroke-miterlimit="10"/>
<path d="M206.438 27.368C200.136 40.2896 199.058 55.379 195.762 69.2337C193.817 77.3986 189.29 76.6134 182.62 73.8766C179.625 72.6533 176.408 71.3617 173.107 72.0957C169.199 72.9662 167.14 75.9192 164.78 78.878C160.044 84.8181 155.342 90.7867 150.588 96.7098" stroke="white" stroke-width="0.609385" stroke-miterlimit="10"/>
<path d="M201.23 27.368C194.293 39.1858 192.728 53.7802 189.381 66.8952C188.394 70.7643 187.35 73.4669 182.949 74.0132C179.693 74.4228 176.454 73.1654 173.345 72.3688C164.355 70.0644 158.161 71.7486 151.7 78.4285C145.806 84.5223 139.913 90.6217 134.014 96.7155" stroke="white" stroke-width="0.609385" stroke-miterlimit="10"/>
<path d="M196.023 27.3624C188.485 38.2698 186.601 52.483 183.005 65.0176C181.825 69.1314 180.129 71.0773 175.677 71.7487C171.882 72.3177 167.889 71.2651 164.139 70.7416C153.759 69.285 146.124 71.4756 138.273 78.383C131.325 84.4939 124.365 90.5934 117.422 96.7213" stroke="white" stroke-width="0.609385" stroke-miterlimit="10"/>
<path d="M190.822 27.3568C182.818 37.3709 180.617 51.089 176.743 63.0206C175.455 66.9807 173.827 68.2154 169.539 69.1258C164.803 70.1272 159.726 69.2794 154.956 69.0347C143.305 68.4316 134.093 71.2481 124.858 78.3205C116.855 84.4541 108.834 90.5593 100.848 96.7157" stroke="white" stroke-width="0.609385" stroke-miterlimit="10"/>
<path d="M185.614 27.3511C177.231 36.5344 174.78 49.5869 170.532 60.9324C168.944 65.1827 165.807 66.0532 161.303 66.7701C156.158 67.5838 150.889 67.2139 145.71 67.305C132.743 67.5326 122.13 70.9977 111.438 78.2522C102.379 84.4029 93.2979 90.5251 84.2676 96.71" stroke="white" stroke-width="0.609385" stroke-miterlimit="10"/>
<path d="M180.413 27.3453C171.655 35.8232 169.273 48.0904 164.338 58.793C162.63 62.497 159.062 63.2253 155.234 63.9935C149.028 65.2395 142.624 65.1428 136.339 65.6037C122.158 66.6449 110.076 70.8383 98.0115 78.1952C87.8978 84.363 77.7671 90.508 67.6818 96.7213" stroke="white" stroke-width="0.609385" stroke-miterlimit="10"/>
<path d="M175.212 27.334C166.289 34.9925 163.719 46.4745 158.24 56.3691C156.147 60.1472 151.592 60.6877 147.587 61.49C140.735 62.8555 133.707 63.14 126.781 63.9537C111.239 65.7915 97.7336 70.8383 84.1088 78.383C73.0988 84.4768 62.0832 90.5592 51.1017 96.7099" stroke="white" stroke-width="0.609385" stroke-miterlimit="10"/>
<path d="M170.016 27.3282C164.468 30.9982 160.917 37.5699 157.832 43.2711C155.909 46.8216 154.377 51.5555 151.683 54.6052C148.779 57.8939 142.783 58.48 138.727 59.2538C131.529 60.6364 124.206 61.2965 116.968 62.4287C87.1775 67.0887 61.0168 83.1169 34.5272 96.7156" stroke="white" stroke-width="0.609385" stroke-miterlimit="10"/>
<path d="M164.814 27.3169C159.238 30.6341 155.404 36.6994 152.04 42.0763C150.049 45.2626 148.217 49.7405 145.364 52.2895C142.04 55.2653 136.056 55.783 131.796 56.6991C123.531 58.4743 115.119 59.5042 106.815 61.0632C75.311 66.9863 46.6886 83.0999 17.9414 96.7099" stroke="white" stroke-width="0.609385" stroke-miterlimit="10"/>
<mask id="mask0_1094_3208" style="mask-type:luminance" maskUnits="userSpaceOnUse" x="191" y="0" width="83" height="83">
<path d="M260.665 11.3971C261.845 12.4838 263.513 14.2761 264.392 15.397C265.314 16.5729 266.016 17.5098 266.496 18.2078C267.165 19.1864 267.75 20.1253 268.328 21.1494C269.746 23.6586 270.552 25.6956 270.767 26.2589C271.227 27.4822 271.482 28.1536 271.885 29.485C272.174 30.4523 272.492 31.7609 272.719 32.7396C273.025 34.071 273.377 36.4892 273.473 37.8377C273.535 38.7196 273.609 39.9031 273.615 40.7907C273.615 41.4336 273.632 42.7707 273.518 44.2501C273.405 45.775 273.053 50.4235 270.972 55.9427C270.376 57.5244 269.814 58.7022 269.627 59.0891C269.196 59.9995 268.55 61.1773 268.056 62.0535C267.608 62.8558 267.222 63.4248 266.19 64.961C265.889 65.4105 265.447 65.9795 265.123 66.4119C263.547 68.4944 261.731 70.2867 261.533 70.4801C260.795 71.2028 259.774 72.1302 258.992 72.8073C258.407 73.308 257.602 73.9509 256.978 74.4004C256.144 74.9979 255.015 75.7831 254.142 76.3293C253.268 76.8755 252.14 77.5071 251.255 77.9679C248.867 79.2254 246.462 80.0618 245.673 80.3406C244.856 80.6251 242.661 81.342 239.848 81.8541C237.857 82.2182 235.82 82.4344 233.807 82.5027C231.56 82.5767 229.399 82.4743 227.204 82.1955C224.045 81.7915 221.6 81.103 220.698 80.8242C219.569 80.4772 218.673 80.204 217.068 79.5611C215.667 78.9978 215.037 78.6906 213.67 78.0135C212.78 77.5697 211.628 76.9039 210.777 76.3862C209.977 75.8969 208.945 75.1856 208.179 74.6394C206.563 73.4844 204.657 71.8229 203.681 70.8443C202.671 69.8315 202.161 69.3251 201.225 68.244C199.971 66.7988 199.075 65.5414 199.036 65.4902C198.241 64.375 196.914 62.5144 195.49 59.641C194.986 58.6226 194.515 57.5699 194.095 56.506C193.811 55.7928 193.437 54.7175 192.972 53.2798C191.849 49.5587 191.321 45.6441 191.435 41.6271C191.718 31.2204 196.256 21.4055 204.197 13.9973C212.014 6.70298 222.218 2.60062 232.979 2.52665C233.007 2.61769 233.257 2.69165 233.54 2.68596C233.824 2.68027 234.028 2.60631 234.005 2.51527C233.983 2.42423 233.727 2.35027 233.444 2.35596C233.16 2.36164 232.956 2.43561 232.979 2.52665C222.218 2.59493 212.019 6.70298 204.197 13.9973C196.256 21.4055 191.718 31.2261 191.435 41.6271C191.327 45.6441 191.849 49.5587 192.972 53.2798C192.609 52.0167 192.427 51.3794 192.217 50.4008C192.104 49.8887 191.809 48.5288 191.611 47.0381C191.525 46.4065 191.372 45.2401 191.282 43.6242C191.225 42.6 191.225 41.2345 191.236 40.216C191.253 38.9642 191.457 36.4323 191.701 35.044C191.958 33.557 192.178 32.438 192.359 31.687C192.541 30.9359 192.851 29.8435 193.29 28.4096C193.749 26.9132 194.753 24.5406 195.212 23.6302C196.205 21.6615 196.222 21.6217 196.823 20.5918C197.334 19.7213 198.071 18.589 198.644 17.7583C199.608 16.37 200.97 14.6915 201.991 13.599C202.808 12.7285 204.328 11.1069 206.546 9.33167C209.762 6.75418 213.216 4.71154 216.818 3.26064C219.24 2.28199 221.14 1.74145 222.315 1.45696C223.256 1.22937 225.758 0.620561 228.736 0.375899C233.081 0.0174402 237.068 0.267792 241.294 1.17247C244.006 1.75283 248.175 2.97615 252.65 5.49673C256.819 7.84663 259.514 10.3331 260.665 11.3971Z" fill="white"/>
</mask>
<g mask="url(#mask0_1094_3208)">
<path d="M233.489 2.5207C233.318 2.5207 233.148 2.5207 232.978 2.5207C233.007 2.61174 233.256 2.68571 233.54 2.68002C233.523 2.62312 233.506 2.57191 233.489 2.51501V2.5207Z" stroke="white" stroke-width="0.457039" stroke-miterlimit="10"/>
<path d="M233.489 2.52063C233.347 2.54908 233.211 2.57753 233.069 2.60598" stroke="white" stroke-width="0.457039" stroke-miterlimit="10"/>
<path d="M233.489 2.52063C233.415 2.56615 233.347 2.61167 233.273 2.66288" stroke="white" stroke-width="0.457039" stroke-miterlimit="10"/>
<path d="M233.489 2.5207C233.506 2.57191 233.523 2.62881 233.54 2.68571C233.823 2.68571 234.028 2.60605 234.005 2.51501C233.835 2.51501 233.664 2.51501 233.494 2.5207H233.489Z" stroke="white" stroke-width="0.457039" stroke-miterlimit="10"/>
<path d="M233.489 2.52063C233.591 2.56615 233.687 2.61167 233.789 2.65719" stroke="white" stroke-width="0.457039" stroke-miterlimit="10"/>
<path d="M233.489 2.52063C233.647 2.54339 233.801 2.57184 233.954 2.60029" stroke="white" stroke-width="0.457039" stroke-miterlimit="10"/>
<path d="M233.489 2.52066C233.659 2.52066 233.829 2.52066 233.999 2.51497C233.971 2.42393 233.721 2.34996 233.438 2.35565C233.455 2.41255 233.472 2.46945 233.489 2.52635V2.52066Z" stroke="white" stroke-width="0.457039" stroke-miterlimit="10"/>
<path d="M233.489 2.52072C233.63 2.49228 233.767 2.45814 233.908 2.42969" stroke="white" stroke-width="0.457039" stroke-miterlimit="10"/>
<path d="M233.489 2.52074C233.562 2.46953 233.63 2.42401 233.704 2.3728" stroke="white" stroke-width="0.457039" stroke-miterlimit="10"/>
<path d="M233.489 2.52067C233.472 2.46377 233.455 2.40687 233.438 2.34998C233.154 2.34998 232.95 2.42963 232.973 2.52067C233.143 2.52067 233.313 2.52067 233.483 2.52067H233.489Z" stroke="white" stroke-width="0.457039" stroke-miterlimit="10"/>
<path d="M233.489 2.52054C233.387 2.46933 233.29 2.42381 233.188 2.3783" stroke="white" stroke-width="0.457039" stroke-miterlimit="10"/>
<path d="M233.489 2.52053C233.336 2.49208 233.177 2.46363 233.024 2.43518" stroke="white" stroke-width="0.457039" stroke-miterlimit="10"/>
<path d="M232.973 2.52075C222.212 2.58903 212.013 6.69708 204.191 13.9914C205.751 19.1578 219.989 23.2544 235.996 23.152C235.451 13.4509 234.583 6.15654 233.534 2.68576C233.25 2.68576 233.001 2.61748 232.973 2.52644V2.52075Z" stroke="white" stroke-width="0.457039" stroke-miterlimit="10"/>
<path d="M222.467 3.90894C223.057 5.86623 228.452 7.41955 234.521 7.37972" stroke="white" stroke-width="0.457039" stroke-miterlimit="10"/>
<path d="M212.739 7.79517C213.845 11.4651 223.971 14.384 235.349 14.31" stroke="white" stroke-width="0.457039" stroke-miterlimit="10"/>
<path d="M233.069 2.60596C224.305 4.42101 215.978 10.1563 209.574 18.6854" stroke="white" stroke-width="0.457039" stroke-miterlimit="10"/>
<path d="M233.273 2.66284C228.747 5.69551 224.39 12.5802 220.987 21.9684" stroke="white" stroke-width="0.457039" stroke-miterlimit="10"/>
<path d="M233.534 2.68575C234.583 6.15653 235.451 13.4509 235.996 23.152C252.003 23.0496 263.716 18.7765 262.156 13.6102C254.737 6.41827 244.754 2.44108 233.999 2.51505C234.028 2.60609 233.818 2.68006 233.534 2.68575Z" stroke="white" stroke-width="0.457039" stroke-miterlimit="10"/>
<path d="M234.521 7.37988C240.585 7.34005 245.026 5.72414 244.436 3.76685" stroke="white" stroke-width="0.457039" stroke-miterlimit="10"/>
<path d="M235.349 14.3044C246.728 14.2304 255.055 11.192 253.949 7.52209" stroke="white" stroke-width="0.457039" stroke-miterlimit="10"/>
<path d="M233.789 2.66296C240.125 5.62167 245.956 12.4381 250.239 21.7807" stroke="white" stroke-width="0.457039" stroke-miterlimit="10"/>
<path d="M233.954 2.60046C243.772 4.29034 252.871 9.91757 259.627 18.3556" stroke="white" stroke-width="0.457039" stroke-miterlimit="10"/>
<path d="M233.999 2.515C244.76 2.44673 254.737 6.41822 262.156 13.6101C260.597 8.44379 246.359 4.34713 230.352 4.44954C231.294 -0.335593 232.388 -1.12079 233.432 2.35C233.716 2.35 233.965 2.41828 233.994 2.50931L233.999 2.515Z" stroke="white" stroke-width="0.457039" stroke-miterlimit="10"/>
<path d="M244.431 3.76097C243.841 1.80367 238.446 0.250349 232.377 0.290178" stroke="white" stroke-width="0.457039" stroke-miterlimit="10"/>
<path d="M253.949 7.52195C252.843 3.85202 242.717 0.933145 231.339 1.00711" stroke="white" stroke-width="0.457039" stroke-miterlimit="10"/>
<path d="M233.903 2.43522C242.666 0.620168 250.772 2.95868 256.779 8.92161" stroke="white" stroke-width="0.457039" stroke-miterlimit="10"/>
<path d="M233.704 2.37263C238.231 -0.660038 242.366 0.534823 245.372 5.6329" stroke="white" stroke-width="0.457039" stroke-miterlimit="10"/>
<path d="M233.438 2.35574C232.388 -1.11505 231.299 -0.329856 230.358 4.45528C214.35 4.5577 202.637 8.83075 204.197 13.9971C212.013 6.70276 222.218 2.6004 232.978 2.52643C232.95 2.43539 233.16 2.36143 233.443 2.35574H233.438Z" stroke="white" stroke-width="0.457039" stroke-miterlimit="10"/>
<path d="M232.383 0.290283C226.319 0.330112 221.878 1.94602 222.468 3.90332" stroke="white" stroke-width="0.457039" stroke-miterlimit="10"/>
<path d="M231.339 1.01282C219.96 1.08679 211.633 4.12515 212.739 7.79508" stroke="white" stroke-width="0.457039" stroke-miterlimit="10"/>
<path d="M233.182 2.3784C226.847 -0.580305 220.794 0.677144 216.109 5.82643" stroke="white" stroke-width="0.457039" stroke-miterlimit="10"/>
<path d="M233.018 2.44098C223.199 0.751106 213.88 3.20342 206.727 9.25169" stroke="white" stroke-width="0.457039" stroke-miterlimit="10"/>
<path d="M204.191 13.9913C196.25 21.3995 191.712 31.2201 191.429 41.6211C193.635 48.9268 213.772 54.7247 236.41 54.5768C236.693 44.1701 236.552 33.0067 235.996 23.1519C219.989 23.2544 205.751 19.1577 204.191 13.9913Z" stroke="white" stroke-width="0.457039" stroke-miterlimit="10"/>
<path d="M197.419 22.1393C199.33 28.472 216.789 33.4962 236.416 33.371" stroke="white" stroke-width="0.457039" stroke-miterlimit="10"/>
<path d="M193.102 31.4819C195.229 38.5373 214.685 44.1418 236.552 43.9938" stroke="white" stroke-width="0.457039" stroke-miterlimit="10"/>
<path d="M209.574 18.6855C203.068 27.3511 199.324 37.8545 199.041 48.2612" stroke="white" stroke-width="0.457039" stroke-miterlimit="10"/>
<path d="M220.981 21.9742C217.521 31.5161 215.456 42.5088 215.173 52.9098" stroke="white" stroke-width="0.457039" stroke-miterlimit="10"/>
<path d="M235.996 23.1519C236.546 33.0067 236.694 44.1701 236.41 54.5768C259.048 54.4289 275.611 48.3863 273.41 41.0862C273.694 30.6796 269.701 20.9215 262.162 13.6101C263.722 18.7765 252.009 23.0438 236.002 23.1519H235.996Z" stroke="white" stroke-width="0.457039" stroke-miterlimit="10"/>
<path d="M236.41 33.3709C256.036 33.24 270.398 28.0054 268.487 21.6726" stroke="white" stroke-width="0.457039" stroke-miterlimit="10"/>
<path d="M236.552 43.9995C258.418 43.8572 274.426 38.0195 272.293 30.9641" stroke="white" stroke-width="0.457039" stroke-miterlimit="10"/>
<path d="M250.239 21.7808C254.595 31.2714 256.836 42.2357 256.552 52.6366" stroke="white" stroke-width="0.457039" stroke-miterlimit="10"/>
<path d="M259.627 18.3556C266.49 26.9301 270.115 37.388 269.826 47.7947" stroke="white" stroke-width="0.457039" stroke-miterlimit="10"/>
<path d="M262.156 13.6159C269.695 20.9216 273.694 30.6853 273.405 41.092C271.198 33.7863 251.061 27.9883 228.423 28.1363C228.707 17.7296 229.393 9.32004 230.352 4.45525C246.359 4.35283 260.597 8.4495 262.156 13.6159Z" stroke="white" stroke-width="0.457039" stroke-miterlimit="10"/>
<path d="M268.487 21.6726C266.575 15.3398 249.116 10.3157 229.49 10.4409" stroke="white" stroke-width="0.457039" stroke-miterlimit="10"/>
<path d="M272.293 30.9641C270.166 23.9087 250.71 18.3043 228.843 18.4522" stroke="white" stroke-width="0.457039" stroke-miterlimit="10"/>
<path d="M256.779 8.92175C262.883 14.9757 266.087 24.0453 265.798 34.452" stroke="white" stroke-width="0.457039" stroke-miterlimit="10"/>
<path d="M245.366 5.63293C248.418 10.8107 249.944 19.3966 249.66 29.8033" stroke="white" stroke-width="0.457039" stroke-miterlimit="10"/>
<path d="M230.352 4.4552C229.393 9.31999 228.713 17.7295 228.423 28.1362C205.785 28.2842 189.222 34.3267 191.423 41.6268C191.707 31.2201 196.244 21.4052 204.186 13.997C202.626 8.83067 214.339 4.56331 230.346 4.4552H230.352Z" stroke="white" stroke-width="0.457039" stroke-miterlimit="10"/>
<path d="M229.495 10.4408C209.869 10.5717 195.507 15.8063 197.419 22.1391" stroke="white" stroke-width="0.457039" stroke-miterlimit="10"/>
<path d="M228.843 18.4521C206.976 18.5944 190.969 24.4321 193.102 31.4875" stroke="white" stroke-width="0.457039" stroke-miterlimit="10"/>
<path d="M216.109 5.82629C211.35 11.0552 208.57 19.6696 208.281 30.0763" stroke="white" stroke-width="0.457039" stroke-miterlimit="10"/>
<path d="M206.727 9.24597C199.461 15.391 195.297 24.5061 195.013 34.9127" stroke="white" stroke-width="0.457039" stroke-miterlimit="10"/>
<path d="M191.429 41.6268C191.145 52.0335 195.138 61.7915 202.677 69.103C204.237 74.2693 218.474 78.366 234.481 78.2636C235.44 73.3988 236.121 64.9892 236.41 54.5825C213.772 54.7305 193.635 48.9326 191.429 41.6268Z" stroke="white" stroke-width="0.457039" stroke-miterlimit="10"/>
<path d="M192.54 51.7491C194.667 58.8045 214.123 64.409 235.99 64.2611" stroke="white" stroke-width="0.457039" stroke-miterlimit="10"/>
<path d="M196.346 61.0405C198.258 67.3733 215.717 72.3974 235.343 72.2722" stroke="white" stroke-width="0.457039" stroke-miterlimit="10"/>
<path d="M199.041 48.2612C198.757 58.6679 201.962 67.7375 208.06 73.7914" stroke="white" stroke-width="0.457039" stroke-miterlimit="10"/>
<path d="M215.173 52.9099C214.889 63.3166 216.415 71.9025 219.467 77.0803" stroke="white" stroke-width="0.457039" stroke-miterlimit="10"/>
<path d="M236.41 54.5826C236.126 64.9893 235.44 73.3988 234.481 78.2636C250.489 78.1612 262.202 73.8881 260.642 68.7218C268.583 61.3136 273.121 51.493 273.405 41.092C275.611 48.3978 259.042 54.4347 236.404 54.5826H236.41Z" stroke="white" stroke-width="0.457039" stroke-miterlimit="10"/>
<path d="M235.996 64.2611C257.863 64.1188 273.87 58.2811 271.737 51.2257" stroke="white" stroke-width="0.457039" stroke-miterlimit="10"/>
<path d="M235.344 72.2722C254.97 72.1414 269.332 66.9067 267.42 60.574" stroke="white" stroke-width="0.457039" stroke-miterlimit="10"/>
<path d="M256.552 52.6367C256.269 63.0434 253.484 71.6578 248.724 76.8867" stroke="white" stroke-width="0.457039" stroke-miterlimit="10"/>
<path d="M269.825 47.8004C269.542 58.2071 265.378 67.3222 258.112 73.4672" stroke="white" stroke-width="0.457039" stroke-miterlimit="10"/>
<path d="M273.41 41.0863C273.127 51.493 268.589 61.3079 260.648 68.716C259.088 63.5497 244.85 59.453 228.843 59.5554C228.293 49.7007 228.146 38.5373 228.429 28.1306C251.067 27.9826 271.204 33.7806 273.41 41.0863Z" stroke="white" stroke-width="0.457039" stroke-miterlimit="10"/>
<path d="M271.737 51.2313C269.61 44.1759 250.154 38.5715 228.287 38.7194" stroke="white" stroke-width="0.457039" stroke-miterlimit="10"/>
<path d="M267.42 60.574C265.509 54.2412 248.049 49.2171 228.423 49.3423" stroke="white" stroke-width="0.457039" stroke-miterlimit="10"/>
<path d="M265.798 34.4519C265.514 44.8586 261.771 55.3677 255.265 64.0276" stroke="white" stroke-width="0.457039" stroke-miterlimit="10"/>
<path d="M249.66 29.8033C249.377 40.21 247.312 51.2027 243.852 60.7389" stroke="white" stroke-width="0.457039" stroke-miterlimit="10"/>
<path d="M228.429 28.1362C228.145 38.5429 228.287 49.7063 228.843 59.5611C212.836 59.6635 201.122 63.9366 202.682 69.1029C195.144 61.7972 191.145 52.0335 191.434 41.6268C189.228 34.3211 205.796 28.2842 228.435 28.1362H228.429Z" stroke="white" stroke-width="0.457039" stroke-miterlimit="10"/>
<path d="M228.287 38.7137C206.42 38.856 190.413 44.6937 192.546 51.7491" stroke="white" stroke-width="0.457039" stroke-miterlimit="10"/>
<path d="M228.423 49.3423C208.797 49.4732 194.435 54.7078 196.346 61.0405" stroke="white" stroke-width="0.457039" stroke-miterlimit="10"/>
<path d="M208.287 30.0765C208.003 40.4832 210.243 51.4475 214.6 60.9324" stroke="white" stroke-width="0.457039" stroke-miterlimit="10"/>
<path d="M195.008 34.9128C194.724 45.3195 198.349 55.7774 205.207 64.352" stroke="white" stroke-width="0.457039" stroke-miterlimit="10"/>
<path d="M202.677 69.1029C210.215 76.4086 220.397 80.3972 231.345 80.3232C232.411 83.8566 233.523 83.1226 234.481 78.2635C218.474 78.3659 204.237 74.2693 202.677 69.1029Z" stroke="white" stroke-width="0.457039" stroke-miterlimit="10"/>
<path d="M211.026 75.2708C212.127 78.9179 222.178 81.814 233.477 81.7401" stroke="white" stroke-width="0.457039" stroke-miterlimit="10"/>
<path d="M208.06 73.7914C214.163 79.8453 222.428 82.1668 231.35 80.3176" stroke="white" stroke-width="0.457039" stroke-miterlimit="10"/>
<path d="M219.467 77.0801C222.518 82.2578 226.739 83.4072 231.345 80.3233" stroke="white" stroke-width="0.457039" stroke-miterlimit="10"/>
<path d="M234.481 78.2579C233.523 83.1227 232.411 83.851 231.344 80.3176C242.298 80.2436 252.695 76.1242 260.642 68.7161C262.202 73.8824 250.488 78.1498 234.481 78.2579Z" stroke="white" stroke-width="0.457039" stroke-miterlimit="10"/>
<path d="M233.483 81.7402C244.782 81.6662 253.052 78.6506 251.952 75.0034" stroke="white" stroke-width="0.457039" stroke-miterlimit="10"/>
<path d="M248.724 76.8867C243.965 82.1157 237.794 83.3333 231.344 80.3177" stroke="white" stroke-width="0.457039" stroke-miterlimit="10"/>
<path d="M258.112 73.4672C250.846 79.6122 241.345 82.0417 231.35 80.3234" stroke="white" stroke-width="0.457039" stroke-miterlimit="10"/>
<path d="M260.642 68.7218C252.701 76.13 242.298 80.2494 231.345 80.3233C230.278 76.79 229.388 69.4217 228.837 59.5612C244.845 59.4588 259.082 63.5555 260.642 68.7218Z" stroke="white" stroke-width="0.457039" stroke-miterlimit="10"/>
<path d="M251.952 75.0033C250.852 71.3561 240.8 68.46 229.501 68.534" stroke="white" stroke-width="0.457039" stroke-miterlimit="10"/>
<path d="M255.265 64.0276C248.758 72.6932 240.267 78.474 231.35 80.3232" stroke="white" stroke-width="0.457039" stroke-miterlimit="10"/>
<path d="M243.852 60.7389C240.392 70.2807 235.951 77.2337 231.345 80.3176" stroke="white" stroke-width="0.457039" stroke-miterlimit="10"/>
<path d="M228.837 59.5612C229.388 69.4159 230.278 76.7899 231.345 80.3233C220.391 80.3973 210.215 76.4087 202.677 69.103C201.117 63.9366 212.83 59.6693 228.837 59.5612Z" stroke="white" stroke-width="0.457039" stroke-miterlimit="10"/>
<path d="M229.495 68.5397C218.196 68.6136 209.926 71.6292 211.026 75.2764" stroke="white" stroke-width="0.457039" stroke-miterlimit="10"/>
<path d="M214.594 60.9323C218.951 70.4229 224.895 77.3076 231.345 80.3175" stroke="white" stroke-width="0.457039" stroke-miterlimit="10"/>
<path d="M205.212 64.3575C212.076 72.9321 221.356 78.6048 231.35 80.3232" stroke="white" stroke-width="0.457039" stroke-miterlimit="10"/>
<path d="M192.971 53.2796C193.437 54.7172 193.811 55.7926 194.094 56.5057C194.514 57.5697 194.985 58.6223 195.49 59.6408C196.914 62.5142 198.241 64.3747 199.035 65.4899C199.075 65.5411 199.971 66.7986 201.225 68.2438C202.16 69.3249 202.671 69.8313 203.681 70.844C204.656 71.8227 206.562 73.4841 208.179 74.6392C208.945 75.1854 209.977 75.8966 210.777 76.3859C211.628 76.9037 212.779 77.5694 213.67 78.0132C215.037 78.6903 215.666 78.9976 217.067 79.5608C218.673 80.2038 219.569 80.4769 220.698 80.824C221.599 81.1028 224.044 81.7913 227.204 82.1952C229.399 82.474 231.56 82.5765 233.806 82.5025C235.82 82.4342 237.856 82.218 239.847 81.8538C242.661 81.3418 244.856 80.6248 245.673 80.3404C246.461 80.0616 248.866 79.2251 251.254 77.9677C252.139 77.5068 253.268 76.8753 254.141 76.329C255.015 75.7828 256.144 74.9976 256.978 74.4002C257.602 73.9507 258.407 73.3077 258.991 72.807C259.774 72.1299 260.795 71.2025 261.532 70.4799C261.731 70.2864 263.546 68.4942 265.123 66.4117C265.446 65.9793 265.889 65.4103 266.189 64.9608C267.222 63.4245 267.607 62.8555 268.056 62.0533C268.549 61.177 269.196 59.9993 269.627 59.0889C269.814 58.702 270.376 57.5242 270.971 55.9424C273.053 50.4233 273.405 45.7747 273.518 44.2498C273.631 42.7705 273.614 41.4334 273.614 40.7904C273.609 39.9028 273.535 38.7193 273.473 37.8374C273.376 36.4889 273.024 34.0708 272.718 32.7393C272.491 31.7607 272.174 30.452 271.884 29.4848C271.482 28.1533 271.226 27.4819 270.767 26.2586C270.551 25.6953 269.746 23.6584 268.328 21.1492C267.749 20.125 267.165 19.1862 266.496 18.2075C266.015 17.5096 265.314 16.5727 264.391 15.3968C263.512 14.2759 261.844 12.4836 260.665 11.3968C259.513 10.3328 256.819 7.84639 252.65 5.49649C248.174 2.9759 244.005 1.75259 241.294 1.17223C237.068 0.267548 233.08 0.017196 228.735 0.375655C225.757 0.620317 223.256 1.22913 222.314 1.45672C221.14 1.74121 219.24 2.28174 216.818 3.26039C213.216 4.7113 209.761 6.75394 206.545 9.33143C204.327 11.1066 202.807 12.7282 201.99 13.5988C200.969 14.6912 199.608 16.3697 198.644 17.758C198.071 18.5888 197.333 19.721 196.823 20.5916C196.222 21.6214 196.205 21.6613 195.212 23.6299C194.752 24.5403 193.748 26.913 193.289 28.4094C192.85 29.8432 192.54 30.9357 192.359 31.6867C192.177 32.4378 191.958 33.5568 191.701 35.0437C191.457 36.432 191.253 38.964 191.236 40.2158C191.224 41.2342 191.224 42.5998 191.281 43.624C191.372 45.2399 191.525 46.4063 191.61 47.0378C191.809 48.5286 192.104 49.8885 192.217 50.4005C192.427 51.3792 192.608 52.0164 192.971 53.2796ZM192.971 53.2796C191.848 49.5584 191.321 45.6438 191.434 41.6268M192.971 53.2796C191.848 49.5584 191.326 45.6438 191.434 41.6268M191.434 41.6268C191.718 31.2202 196.256 21.4052 204.197 13.9971M191.434 41.6268C191.718 31.2258 196.256 21.4052 204.197 13.9971M204.197 13.9971C212.013 6.70273 222.218 2.60037 232.978 2.52641M204.197 13.9971C212.019 6.70273 222.218 2.59468 232.978 2.52641M232.978 2.52641C233.006 2.61744 233.256 2.69141 233.54 2.68572C233.823 2.68003 234.027 2.60606 234.005 2.51503C233.982 2.42399 233.727 2.35002 233.443 2.35571C233.16 2.3614 232.955 2.43537 232.978 2.52641Z" stroke="white" stroke-width="0.457039" stroke-miterlimit="10"/>
</g>
<path d="M192.972 53.2798C193.437 54.7175 193.811 55.7928 194.095 56.506C194.515 57.5699 194.986 58.6226 195.49 59.641C196.914 62.5144 198.241 64.375 199.036 65.4902C199.075 65.5414 199.971 66.7988 201.225 68.244C202.161 69.3251 202.671 69.8315 203.681 70.8443C204.657 71.8229 206.563 73.4844 208.179 74.6394C208.945 75.1856 209.977 75.8969 210.777 76.3862C211.628 76.9039 212.78 77.5697 213.67 78.0135C215.037 78.6906 215.667 78.9978 217.068 79.5611C218.673 80.204 219.569 80.4772 220.698 80.8242C221.6 81.103 224.045 81.7915 227.204 82.1955C229.399 82.4743 231.56 82.5767 233.807 82.5027C235.82 82.4345 237.857 82.2182 239.848 81.8541C242.661 81.342 244.856 80.6251 245.673 80.3406C246.462 80.0618 248.867 79.2254 251.255 77.9679C252.14 77.5071 253.268 76.8755 254.142 76.3293C255.015 75.7831 256.144 74.9979 256.978 74.4004C257.602 73.9509 258.407 73.308 258.992 72.8073C259.774 72.1302 260.795 71.2028 261.533 70.4801C261.731 70.2867 263.547 68.4944 265.123 66.4119C265.447 65.9795 265.889 65.4105 266.19 64.961C267.222 63.4248 267.608 62.8558 268.056 62.0535C268.55 61.1773 269.196 59.9995 269.627 59.0891C269.814 58.7022 270.376 57.5244 270.972 55.9427C273.053 50.4235 273.405 45.775 273.518 44.2501C273.632 42.7707 273.615 41.4336 273.615 40.7907C273.609 39.9031 273.535 38.7196 273.473 37.8377C273.377 36.4892 273.025 34.071 272.719 32.7396C272.492 31.7609 272.174 30.4523 271.885 29.485C271.482 28.1536 271.227 27.4822 270.767 26.2589C270.552 25.6956 269.746 23.6586 268.328 21.1494C267.75 20.1253 267.165 19.1864 266.496 18.2078C266.016 17.5098 265.314 16.5729 264.392 15.397C263.513 14.2761 261.845 12.4838 260.665 11.3971C259.514 10.3331 256.819 7.84663 252.65 5.49673C248.175 2.97615 244.006 1.75283 241.294 1.17247C237.068 0.267792 233.081 0.0174401 228.736 0.375899C225.758 0.620561 223.256 1.22937 222.315 1.45696C221.14 1.74145 219.24 2.28199 216.818 3.26064C213.216 4.71154 209.762 6.75418 206.546 9.33167C204.328 11.1069 202.808 12.7285 201.991 13.599C200.97 14.6915 199.608 16.37 198.644 17.7583C198.071 18.589 197.334 19.7213 196.823 20.5918C196.222 21.6217 196.205 21.6615 195.212 23.6302C194.753 24.5406 193.749 26.9132 193.29 28.4096C192.851 29.8435 192.541 30.9359 192.359 31.687C192.178 32.438 191.958 33.557 191.701 35.044C191.457 36.4323 191.253 38.9642 191.236 40.216C191.225 41.2345 191.225 42.6 191.282 43.6242C191.372 45.2401 191.525 46.4065 191.611 47.0381C191.809 48.5288 192.104 49.8887 192.217 50.4008C192.427 51.3794 192.609 52.0167 192.972 53.2798ZM192.972 53.2798C191.849 49.5587 191.321 45.6441 191.435 41.6271M192.972 53.2798C191.849 49.5587 191.327 45.6441 191.435 41.6271M191.435 41.6271C191.718 31.2204 196.256 21.4055 204.197 13.9973M191.435 41.6271C191.718 31.2261 196.256 21.4055 204.197 13.9973M204.197 13.9973C212.014 6.70298 222.218 2.60062 232.979 2.52665M204.197 13.9973C212.019 6.70298 222.218 2.59493 232.979 2.52665M232.979 2.52665C233.007 2.61769 233.257 2.69165 233.54 2.68596C233.824 2.68027 234.028 2.60631 234.005 2.51527C233.983 2.42423 233.727 2.35027 233.444 2.35596C233.16 2.36164 232.956 2.43561 232.979 2.52665Z" stroke="white" stroke-width="0.457039" stroke-miterlimit="10"/>
<mask id="mask1_1094_3208" style="mask-type:luminance" maskUnits="userSpaceOnUse" x="191" y="0" width="83" height="83">
<path d="M232.127 0.216187C233.54 0.216187 235.644 0.273085 237.612 0.540506C239.388 0.779478 239.932 0.893275 241.124 1.13794C242.054 1.3257 243.478 1.70692 243.801 1.80365C244.939 2.14503 245.973 2.48453 246.904 2.82212C247.613 3.07816 248.549 3.45369 249.235 3.77232C250.103 4.1763 251.26 4.72252 252.1 5.1834C253.529 5.97997 253.977 6.2417 255.457 7.22604C256.944 8.21607 260.789 10.9756 264.318 15.2942C266.241 17.6441 267.386 19.5502 267.432 19.6298C267.954 20.5004 268.64 21.6668 269.099 22.5658C269.814 23.9541 270.217 24.9214 270.546 25.6952C271.107 27.0266 271.93 29.3993 272.327 31.055C272.713 32.6368 272.815 33.0635 273.042 34.4006C273.28 35.8003 273.342 36.4262 273.473 37.7974C273.535 38.4233 273.609 39.5271 273.626 41.2398C273.632 42.1331 273.575 43.3222 273.529 44.2099C273.478 45.1088 273.28 47.197 272.854 49.3364C272.684 50.1898 272.457 51.2538 272.06 52.6535C271.788 53.6208 271.346 54.8896 271.017 55.8398C271.011 55.8626 270.132 58.2409 268.912 60.5282C268.572 61.1655 268.061 62.1214 267.182 63.4926C266.74 64.183 266.076 65.1275 265.191 66.3262C264.38 67.4243 262.769 69.2678 261.669 70.3489C260.489 71.5096 257.721 74.235 253.376 76.7954C249.485 79.0884 245.951 80.3288 243.67 80.9661C241.385 81.6033 239.666 81.9106 238.622 82.0585C236.115 82.417 234.72 82.4909 232.712 82.5251C231.594 82.5421 229.745 82.5023 227.289 82.2064C226.228 82.0813 224.515 81.8195 222.394 81.2904C220.074 80.7157 216.523 79.5948 212.762 77.5351C211.565 76.8808 210.21 76.107 208.009 74.5081C207.05 73.814 205.445 72.5167 204.18 71.3161C202.07 69.3076 200.952 67.9364 200.215 67.026C199.869 66.5993 199.415 66.0189 199.098 65.5694C198.513 64.7387 197.748 63.6121 197.209 62.7473C196.721 61.9678 195.762 60.3291 194.775 58.1158C193.868 56.0845 193.255 54.2126 192.972 53.2737C194.758 59.1911 198.054 64.6078 202.682 69.0971C210.221 76.4028 220.403 80.3914 231.35 80.3174C220.397 80.3914 210.221 76.4028 202.682 69.0971C198.054 64.6078 194.758 59.1968 192.972 53.2737C192.733 52.4259 192.433 51.2937 192.228 50.4402C192.109 49.9509 191.979 49.2909 191.894 48.7902C191.758 48.0277 191.406 46.0021 191.287 43.6579C191.151 40.9667 191.281 39.1061 191.321 38.4973C191.355 37.9738 191.406 37.2797 191.474 36.7562C191.604 35.7491 191.803 34.412 191.985 33.4163C191.985 33.3935 192.41 31.0948 193.278 28.4491C193.437 27.954 193.658 27.2997 193.851 26.8218C194.225 25.8886 194.747 24.654 195.161 23.7379C195.377 23.2599 195.694 22.6454 195.938 22.1846C196.182 21.7237 196.511 21.1035 196.783 20.6597C197.311 19.7948 198.037 18.6626 198.598 17.8205C198.899 17.3767 199.336 16.8134 199.653 16.3866C199.971 15.9599 200.425 15.3909 200.777 14.9813C201.452 14.2074 202.37 13.2003 203.08 12.455C203.386 12.1364 204.605 10.9415 205.848 9.90026C207.68 8.36969 208.848 7.59019 209.977 6.83913C211.072 6.11084 212.802 5.13219 213.562 4.75666C214.986 4.04543 215.848 3.6187 217.958 2.81074C219.404 2.25883 221.288 1.70692 221.929 1.55329C222.717 1.35984 223.766 1.10949 224.561 0.955863C225.763 0.72827 226.432 0.637233 227.363 0.517747C228.474 0.369812 230.437 0.216187 232.127 0.216187Z" fill="white"/>
</mask>
<g mask="url(#mask1_1094_3208)">
<path d="M232.973 2.52075C222.212 2.58903 212.013 6.69708 204.191 13.9914C205.751 19.1578 219.989 23.2544 235.996 23.152C235.451 13.4509 234.583 6.15654 233.534 2.68576C233.25 2.68576 233.001 2.61748 232.973 2.52644V2.52075Z" stroke="white" stroke-width="0.457039" stroke-miterlimit="10"/>
<path d="M212.739 7.79517C213.845 11.4651 223.971 14.384 235.349 14.31" stroke="white" stroke-width="0.457039" stroke-miterlimit="10"/>
<path d="M233.069 2.60596C224.305 4.42101 215.978 10.1563 209.574 18.6854" stroke="white" stroke-width="0.457039" stroke-miterlimit="10"/>
<path d="M233.273 2.66284C228.747 5.69551 224.39 12.5802 220.987 21.9684" stroke="white" stroke-width="0.457039" stroke-miterlimit="10"/>
<path d="M233.534 2.68575C234.583 6.15653 235.451 13.4509 235.996 23.152C252.003 23.0496 263.716 18.7765 262.156 13.6102C254.737 6.41827 244.754 2.44108 233.999 2.51505C234.028 2.60609 233.818 2.68006 233.534 2.68575Z" stroke="white" stroke-width="0.457039" stroke-miterlimit="10"/>
<path d="M235.349 14.3044C246.728 14.2304 255.055 11.192 253.949 7.52209" stroke="white" stroke-width="0.457039" stroke-miterlimit="10"/>
<path d="M233.789 2.66296C240.125 5.62167 245.956 12.4381 250.239 21.7807" stroke="white" stroke-width="0.457039" stroke-miterlimit="10"/>
<path d="M233.954 2.60046C243.773 4.29034 252.871 9.91757 259.627 18.3556" stroke="white" stroke-width="0.457039" stroke-miterlimit="10"/>
<path d="M233.999 2.51513C244.76 2.44685 254.737 6.41834 262.156 13.6103C260.597 8.44392 246.359 4.34725 230.352 4.44966C231.294 -0.335471 232.388 -1.12067 233.432 2.35012C233.716 2.35012 233.965 2.4184 233.994 2.50944L233.999 2.51513Z" stroke="white" stroke-width="0.457039" stroke-miterlimit="10"/>
<path d="M253.949 7.52208C252.843 3.85214 242.717 0.933267 231.339 1.00723" stroke="white" stroke-width="0.457039" stroke-miterlimit="10"/>
<path d="M233.903 2.43534C242.666 0.62029 250.772 2.9588 256.779 8.92173" stroke="white" stroke-width="0.457039" stroke-miterlimit="10"/>
<path d="M233.704 2.37276C238.231 -0.659916 242.366 0.534946 245.372 5.63302" stroke="white" stroke-width="0.457039" stroke-miterlimit="10"/>
<path d="M233.438 2.35574C232.388 -1.11505 231.299 -0.329856 230.358 4.45528C214.35 4.5577 202.637 8.83075 204.197 13.9971C212.013 6.70276 222.218 2.6004 232.978 2.52643C232.95 2.43539 233.16 2.36143 233.443 2.35574H233.438Z" stroke="white" stroke-width="0.457039" stroke-miterlimit="10"/>
<path d="M231.339 1.01282C219.96 1.08679 211.633 4.12515 212.739 7.79508" stroke="white" stroke-width="0.457039" stroke-miterlimit="10"/>
<path d="M233.182 2.3784C226.847 -0.580305 220.794 0.677144 216.109 5.82643" stroke="white" stroke-width="0.457039" stroke-miterlimit="10"/>
<path d="M233.018 2.44098C223.199 0.751106 213.88 3.20342 206.727 9.25169" stroke="white" stroke-width="0.457039" stroke-miterlimit="10"/>
<path d="M204.191 13.9913C196.25 21.3995 191.712 31.2201 191.429 41.6211C193.635 48.9268 213.772 54.7247 236.41 54.5768C236.693 44.1701 236.552 33.0067 235.996 23.1519C219.989 23.2544 205.751 19.1577 204.191 13.9913Z" stroke="white" stroke-width="0.457039" stroke-miterlimit="10"/>
<path d="M197.419 22.1393C199.33 28.472 216.789 33.4962 236.416 33.371" stroke="white" stroke-width="0.457039" stroke-miterlimit="10"/>
<path d="M193.102 31.4819C195.229 38.5373 214.685 44.1418 236.552 43.9938" stroke="white" stroke-width="0.457039" stroke-miterlimit="10"/>
<path d="M209.574 18.6855C203.068 27.3511 199.324 37.8545 199.041 48.2612" stroke="white" stroke-width="0.457039" stroke-miterlimit="10"/>
<path d="M220.981 21.9742C217.521 31.5161 215.456 42.5088 215.173 52.9098" stroke="white" stroke-width="0.457039" stroke-miterlimit="10"/>
<path d="M235.996 23.1521C236.546 33.0068 236.694 44.1702 236.41 54.5769C259.048 54.429 275.611 48.3864 273.41 41.0864C273.694 30.6797 269.701 20.9216 262.162 13.6102C263.722 18.7766 252.009 23.0439 236.002 23.1521H235.996Z" stroke="white" stroke-width="0.457039" stroke-miterlimit="10"/>
<path d="M236.41 33.371C256.036 33.2401 270.398 28.0055 268.487 21.6727" stroke="white" stroke-width="0.457039" stroke-miterlimit="10"/>
<path d="M236.552 43.9996C258.418 43.8574 274.426 38.0196 272.293 30.9642" stroke="white" stroke-width="0.457039" stroke-miterlimit="10"/>
<path d="M250.239 21.781C254.595 31.2716 256.836 42.2359 256.552 52.6369" stroke="white" stroke-width="0.457039" stroke-miterlimit="10"/>
<path d="M259.627 18.3557C266.49 26.9303 270.115 37.3882 269.826 47.7948" stroke="white" stroke-width="0.457039" stroke-miterlimit="10"/>
<path d="M262.156 13.6159C269.695 20.9216 273.694 30.6853 273.405 41.092C271.198 33.7863 251.061 27.9883 228.423 28.1363C228.707 17.7296 229.393 9.32004 230.352 4.45525C246.359 4.35283 260.597 8.4495 262.156 13.6159Z" stroke="white" stroke-width="0.457039" stroke-miterlimit="10"/>
<path d="M268.487 21.6726C266.575 15.3398 249.116 10.3157 229.49 10.4409" stroke="white" stroke-width="0.457039" stroke-miterlimit="10"/>
<path d="M272.293 30.9641C270.166 23.9087 250.71 18.3043 228.843 18.4522" stroke="white" stroke-width="0.457039" stroke-miterlimit="10"/>
<path d="M256.779 8.92175C262.883 14.9757 266.087 24.0453 265.798 34.452" stroke="white" stroke-width="0.457039" stroke-miterlimit="10"/>
<path d="M245.366 5.63293C248.418 10.8107 249.944 19.3966 249.66 29.8033" stroke="white" stroke-width="0.457039" stroke-miterlimit="10"/>
<path d="M230.352 4.4552C229.393 9.31999 228.713 17.7295 228.423 28.1362C205.785 28.2842 189.222 34.3267 191.423 41.6268C191.707 31.2201 196.244 21.4052 204.186 13.997C202.626 8.83067 214.339 4.56331 230.346 4.4552H230.352Z" stroke="white" stroke-width="0.457039" stroke-miterlimit="10"/>
<path d="M229.495 10.4408C209.869 10.5717 195.507 15.8063 197.419 22.1391" stroke="white" stroke-width="0.457039" stroke-miterlimit="10"/>
<path d="M228.843 18.4521C206.976 18.5944 190.969 24.4321 193.102 31.4875" stroke="white" stroke-width="0.457039" stroke-miterlimit="10"/>
<path d="M216.109 5.82629C211.35 11.0552 208.57 19.6696 208.281 30.0763" stroke="white" stroke-width="0.457039" stroke-miterlimit="10"/>
<path d="M206.727 9.24597C199.461 15.391 195.297 24.5061 195.013 34.9127" stroke="white" stroke-width="0.457039" stroke-miterlimit="10"/>
<path d="M191.429 41.6268C191.145 52.0335 195.138 61.7915 202.677 69.103C204.237 74.2693 218.474 78.366 234.481 78.2636C235.44 73.3988 236.121 64.9892 236.41 54.5825C213.772 54.7305 193.635 48.9326 191.429 41.6268Z" stroke="white" stroke-width="0.457039" stroke-miterlimit="10"/>
<path d="M192.54 51.7491C194.667 58.8045 214.123 64.409 235.99 64.2611" stroke="white" stroke-width="0.457039" stroke-miterlimit="10"/>
<path d="M196.346 61.0405C198.258 67.3733 215.717 72.3974 235.343 72.2722" stroke="white" stroke-width="0.457039" stroke-miterlimit="10"/>
<path d="M199.041 48.2612C198.757 58.6679 201.962 67.7375 208.06 73.7914" stroke="white" stroke-width="0.457039" stroke-miterlimit="10"/>
<path d="M215.173 52.9099C214.889 63.3166 216.415 71.9025 219.467 77.0803" stroke="white" stroke-width="0.457039" stroke-miterlimit="10"/>
<path d="M236.41 54.5826C236.126 64.9893 235.44 73.3988 234.481 78.2636C250.489 78.1612 262.202 73.8881 260.642 68.7218C268.583 61.3136 273.121 51.493 273.405 41.092C275.611 48.3978 259.042 54.4347 236.404 54.5826H236.41Z" stroke="white" stroke-width="0.457039" stroke-miterlimit="10"/>
<path d="M235.996 64.2611C257.863 64.1188 273.87 58.2811 271.737 51.2257" stroke="white" stroke-width="0.457039" stroke-miterlimit="10"/>
<path d="M235.344 72.2722C254.97 72.1414 269.332 66.9067 267.42 60.574" stroke="white" stroke-width="0.457039" stroke-miterlimit="10"/>
<path d="M256.552 52.6367C256.269 63.0434 253.484 71.6578 248.724 76.8867" stroke="white" stroke-width="0.457039" stroke-miterlimit="10"/>
<path d="M269.825 47.8004C269.542 58.2071 265.378 67.3222 258.112 73.4672" stroke="white" stroke-width="0.457039" stroke-miterlimit="10"/>
<path d="M273.41 41.0863C273.127 51.493 268.589 61.3079 260.648 68.716C259.088 63.5497 244.85 59.453 228.843 59.5554C228.293 49.7007 228.146 38.5373 228.429 28.1306C251.067 27.9826 271.204 33.7806 273.41 41.0863Z" stroke="white" stroke-width="0.457039" stroke-miterlimit="10"/>
<path d="M271.737 51.2313C269.61 44.1759 250.154 38.5715 228.287 38.7194" stroke="white" stroke-width="0.457039" stroke-miterlimit="10"/>
<path d="M267.42 60.574C265.509 54.2412 248.049 49.2171 228.423 49.3423" stroke="white" stroke-width="0.457039" stroke-miterlimit="10"/>
<path d="M265.798 34.4519C265.514 44.8586 261.771 55.3677 255.265 64.0276" stroke="white" stroke-width="0.457039" stroke-miterlimit="10"/>
<path d="M249.66 29.8033C249.377 40.21 247.312 51.2027 243.852 60.7389" stroke="white" stroke-width="0.457039" stroke-miterlimit="10"/>
<path d="M228.429 28.1364C228.145 38.543 228.287 49.7065 228.843 59.5612C212.836 59.6636 201.122 63.9367 202.682 69.103C195.144 61.7973 191.145 52.0336 191.434 41.6269C189.228 34.3212 205.796 28.2843 228.435 28.1364H228.429Z" stroke="white" stroke-width="0.457039" stroke-miterlimit="10"/>
<path d="M228.287 38.7139C206.42 38.8561 190.413 44.6939 192.546 51.7492" stroke="white" stroke-width="0.457039" stroke-miterlimit="10"/>
<path d="M228.423 49.3424C208.797 49.4733 194.435 54.7079 196.346 61.0407" stroke="white" stroke-width="0.457039" stroke-miterlimit="10"/>
<path d="M208.287 30.0767C208.003 40.4833 210.243 51.4476 214.6 60.9325" stroke="white" stroke-width="0.457039" stroke-miterlimit="10"/>
<path d="M195.008 34.913C194.724 45.3196 198.349 55.7775 205.207 64.3521" stroke="white" stroke-width="0.457039" stroke-miterlimit="10"/>
<path d="M202.677 69.103C210.215 76.4088 220.397 80.3973 231.345 80.3233C232.411 83.8567 233.523 83.1227 234.481 78.2636C218.474 78.3661 204.237 74.2694 202.677 69.103Z" stroke="white" stroke-width="0.457039" stroke-miterlimit="10"/>
<path d="M211.026 75.2709C212.127 78.918 222.178 81.8142 233.477 81.7402" stroke="white" stroke-width="0.457039" stroke-miterlimit="10"/>
<path d="M220.72 79.0659C221.293 80.9663 226.529 82.4741 232.417 82.4343" stroke="white" stroke-width="0.457039" stroke-miterlimit="10"/>
<path d="M208.06 73.7915C214.163 79.8455 222.428 82.1669 231.35 80.3177" stroke="white" stroke-width="0.457039" stroke-miterlimit="10"/>
<path d="M219.467 77.0802C222.518 82.2579 226.739 83.4073 231.345 80.3234" stroke="white" stroke-width="0.457039" stroke-miterlimit="10"/>
<path d="M234.481 78.258C233.523 83.1228 232.411 83.8511 231.344 80.3177C242.298 80.2438 252.695 76.1243 260.642 68.7162C262.202 73.8825 250.488 78.1499 234.481 78.258Z" stroke="white" stroke-width="0.457039" stroke-miterlimit="10"/>
<path d="M233.483 81.7403C244.782 81.6663 253.052 78.6507 251.952 75.0035" stroke="white" stroke-width="0.457039" stroke-miterlimit="10"/>
<path d="M232.422 82.4401C238.31 82.4002 242.621 80.8298 242.048 78.9294" stroke="white" stroke-width="0.457039" stroke-miterlimit="10"/>
<path d="M248.724 76.8868C243.965 82.1158 237.794 83.3334 231.344 80.3178" stroke="white" stroke-width="0.457039" stroke-miterlimit="10"/>
<path d="M258.112 73.4673C250.846 79.6123 241.345 82.0418 231.35 80.3235" stroke="white" stroke-width="0.457039" stroke-miterlimit="10"/>
<path d="M260.642 68.7218C252.701 76.13 242.298 80.2494 231.345 80.3233C230.278 76.79 229.388 69.4217 228.837 59.5612C244.845 59.4588 259.082 63.5555 260.642 68.7218Z" stroke="white" stroke-width="0.457039" stroke-miterlimit="10"/>
<path d="M251.952 75.0033C250.852 71.3561 240.8 68.46 229.501 68.534" stroke="white" stroke-width="0.457039" stroke-miterlimit="10"/>
<path d="M242.042 78.9293C241.47 77.0289 236.234 75.5211 230.346 75.561" stroke="white" stroke-width="0.457039" stroke-miterlimit="10"/>
<path d="M255.265 64.0276C248.758 72.6932 240.267 78.474 231.35 80.3232" stroke="white" stroke-width="0.457039" stroke-miterlimit="10"/>
<path d="M243.852 60.7389C240.392 70.2807 235.951 77.2337 231.345 80.3176" stroke="white" stroke-width="0.457039" stroke-miterlimit="10"/>
<path d="M228.837 59.5612C229.388 69.4159 230.278 76.7899 231.345 80.3233C220.391 80.3973 210.215 76.4087 202.677 69.103C201.117 63.9366 212.83 59.6693 228.837 59.5612Z" stroke="white" stroke-width="0.457039" stroke-miterlimit="10"/>
<path d="M229.495 68.5397C218.196 68.6136 209.926 71.6292 211.026 75.2764" stroke="white" stroke-width="0.457039" stroke-miterlimit="10"/>
<path d="M230.346 75.5609C224.458 75.6007 220.147 77.1711 220.72 79.0715" stroke="white" stroke-width="0.457039" stroke-miterlimit="10"/>
<path d="M214.594 60.9323C218.951 70.4229 224.895 77.3076 231.345 80.3175" stroke="white" stroke-width="0.457039" stroke-miterlimit="10"/>
<path d="M205.212 64.3575C212.076 72.9321 221.356 78.6048 231.35 80.3232" stroke="white" stroke-width="0.457039" stroke-miterlimit="10"/>
<path d="M192.972 53.2737C193.255 54.2126 193.868 56.0845 194.775 58.1158C195.762 60.3291 196.721 61.9678 197.209 62.7473C197.748 63.6121 198.513 64.7387 199.098 65.5694C199.415 66.0189 199.869 66.5993 200.215 67.026C200.952 67.9364 202.07 69.3076 204.18 71.3161C205.445 72.5167 207.05 73.814 208.009 74.5081C210.21 76.107 211.565 76.8808 212.762 77.5351C216.523 79.5948 220.074 80.7157 222.394 81.2904C224.515 81.8195 226.228 82.0813 227.289 82.2064C229.745 82.5023 231.594 82.5421 232.712 82.5251C234.72 82.4909 236.115 82.417 238.622 82.0585C239.666 81.9106 241.385 81.6033 243.67 80.9661C245.951 80.3288 249.485 79.0884 253.376 76.7954C257.721 74.235 260.489 71.5096 261.669 70.3489C262.769 69.2678 264.38 67.4243 265.191 66.3262C266.076 65.1275 266.74 64.183 267.182 63.4926C268.061 62.1214 268.572 61.1655 268.912 60.5282C270.132 58.2409 271.011 55.8626 271.017 55.8398C271.346 54.8896 271.788 53.6208 272.06 52.6535C272.457 51.2538 272.684 50.1899 272.854 49.3364C273.28 47.197 273.478 45.1088 273.529 44.2099C273.575 43.3222 273.632 42.1331 273.626 41.2398C273.609 39.5271 273.535 38.4233 273.473 37.7974C273.342 36.4262 273.28 35.8003 273.042 34.4006C272.815 33.0635 272.713 32.6368 272.327 31.055C271.93 29.3993 271.107 27.0266 270.546 25.6952C270.217 24.9214 269.814 23.9541 269.099 22.5658C268.64 21.6668 267.954 20.5004 267.432 19.6298C267.386 19.5502 266.241 17.6441 264.318 15.2942C260.789 10.9756 256.944 8.21607 255.457 7.22604C253.977 6.2417 253.529 5.97997 252.1 5.1834C251.26 4.72252 250.103 4.1763 249.235 3.77232C248.549 3.45369 247.613 3.07816 246.904 2.82212C245.973 2.48453 244.939 2.14503 243.801 1.80365C243.478 1.70692 242.054 1.3257 241.124 1.13794C239.932 0.893275 239.388 0.779478 237.612 0.540506C235.644 0.273085 233.54 0.216187 232.127 0.216187C230.437 0.216187 228.474 0.369812 227.363 0.517747C226.432 0.637233 225.763 0.72827 224.561 0.955863C223.766 1.10949 222.717 1.35984 221.929 1.55329C221.288 1.70692 219.404 2.25883 217.958 2.81074C215.848 3.6187 214.986 4.04543 213.562 4.75666C212.802 5.13219 211.072 6.11084 209.977 6.83913C208.848 7.59019 207.68 8.36969 205.848 9.90026C204.605 10.9415 203.386 12.1364 203.08 12.455C202.37 13.2003 201.452 14.2074 200.777 14.9813C200.425 15.3909 199.971 15.9599 199.653 16.3866C199.336 16.8134 198.899 17.3767 198.598 17.8205C198.037 18.6626 197.311 19.7948 196.783 20.6597C196.511 21.1035 196.182 21.7237 195.938 22.1846C195.694 22.6454 195.377 23.2599 195.161 23.7379C194.747 24.654 194.225 25.8886 193.851 26.8218C193.658 27.2997 193.437 27.954 193.278 28.4491C192.41 31.0948 191.985 33.3935 191.985 33.4163C191.803 34.412 191.604 35.7491 191.474 36.7562C191.406 37.2797 191.355 37.9738 191.321 38.4973C191.281 39.1061 191.151 40.9667 191.287 43.6579C191.406 46.0021 191.758 48.0277 191.894 48.7902C191.979 49.2909 192.109 49.9509 192.228 50.4402C192.433 51.2937 192.733 52.4259 192.972 53.2737ZM192.972 53.2737C194.758 59.1911 198.054 64.6078 202.682 69.0971M192.972 53.2737C194.758 59.1968 198.054 64.6078 202.682 69.0971M202.682 69.0971C210.221 76.4028 220.403 80.3914 231.35 80.3174C220.397 80.3914 210.221 76.4028 202.682 69.0971Z" stroke="white" stroke-width="0.457039" stroke-miterlimit="10"/>
</g>
<path d="M192.972 53.2737C193.255 54.2126 193.868 56.0845 194.775 58.1158C195.762 60.3291 196.721 61.9678 197.209 62.7473C197.748 63.6121 198.513 64.7387 199.098 65.5694C199.415 66.0189 199.869 66.5993 200.215 67.026C200.952 67.9364 202.07 69.3076 204.18 71.3161C205.445 72.5167 207.05 73.814 208.009 74.5081C210.21 76.107 211.565 76.8808 212.762 77.5351C216.523 79.5948 220.074 80.7157 222.394 81.2904C224.515 81.8195 226.228 82.0813 227.289 82.2064C229.745 82.5023 231.594 82.5421 232.712 82.5251C234.72 82.4909 236.115 82.417 238.622 82.0585C239.666 81.9106 241.385 81.6033 243.67 80.9661C245.951 80.3288 249.485 79.0884 253.376 76.7954C257.721 74.235 260.489 71.5096 261.669 70.3489C262.769 69.2678 264.38 67.4243 265.191 66.3262C266.076 65.1275 266.74 64.183 267.182 63.4926C268.061 62.1214 268.572 61.1655 268.912 60.5282C270.132 58.2409 271.011 55.8626 271.017 55.8398C271.346 54.8896 271.788 53.6208 272.06 52.6535C272.457 51.2538 272.684 50.1899 272.854 49.3364C273.28 47.197 273.478 45.1088 273.529 44.2099C273.575 43.3222 273.632 42.1331 273.626 41.2398C273.609 39.5271 273.535 38.4233 273.473 37.7974C273.342 36.4262 273.28 35.8003 273.042 34.4006C272.815 33.0635 272.713 32.6368 272.327 31.055C271.93 29.3993 271.107 27.0266 270.546 25.6952C270.217 24.9214 269.814 23.9541 269.099 22.5658C268.64 21.6668 267.954 20.5004 267.432 19.6298C267.386 19.5502 266.241 17.6441 264.318 15.2942C260.789 10.9756 256.944 8.21607 255.457 7.22604C253.977 6.2417 253.529 5.97997 252.1 5.1834C251.26 4.72252 250.103 4.1763 249.235 3.77232C248.549 3.45369 247.613 3.07816 246.904 2.82212C245.973 2.48453 244.939 2.14503 243.801 1.80365C243.478 1.70692 242.054 1.3257 241.124 1.13794C239.932 0.893275 239.388 0.779478 237.612 0.540506C235.644 0.273085 233.54 0.216187 232.127 0.216187C230.437 0.216187 228.474 0.369812 227.363 0.517747C226.432 0.637233 225.763 0.72827 224.561 0.955863C223.766 1.10949 222.717 1.35984 221.929 1.55329C221.288 1.70692 219.404 2.25883 217.958 2.81074C215.848 3.6187 214.986 4.04543 213.562 4.75666C212.802 5.13219 211.072 6.11084 209.977 6.83913C208.848 7.59019 207.68 8.36969 205.848 9.90026C204.605 10.9415 203.386 12.1364 203.08 12.455C202.37 13.2003 201.452 14.2074 200.777 14.9813C200.425 15.3909 199.971 15.9599 199.653 16.3866C199.336 16.8134 198.899 17.3767 198.598 17.8205C198.037 18.6626 197.311 19.7948 196.783 20.6597C196.511 21.1035 196.182 21.7237 195.938 22.1846C195.694 22.6454 195.377 23.2599 195.161 23.7379C194.747 24.654 194.225 25.8886 193.851 26.8218C193.658 27.2997 193.437 27.954 193.278 28.4491C192.41 31.0948 191.985 33.3935 191.985 33.4163C191.803 34.412 191.604 35.7491 191.474 36.7562C191.406 37.2797 191.355 37.9738 191.321 38.4973C191.281 39.1061 191.151 40.9667 191.287 43.6579C191.406 46.0021 191.758 48.0277 191.894 48.7902C191.979 49.2909 192.109 49.9509 192.228 50.4402C192.433 51.2937 192.733 52.4259 192.972 53.2737ZM192.972 53.2737C194.758 59.1911 198.054 64.6078 202.682 69.0971M192.972 53.2737C194.758 59.1968 198.054 64.6078 202.682 69.0971M202.682 69.0971C210.221 76.4028 220.403 80.3914 231.35 80.3174C220.397 80.3914 210.221 76.4028 202.682 69.0971Z" stroke="white" stroke-width="0.457039" stroke-miterlimit="10"/>
<mask id="mask2_1094_3208" style="mask-type:luminance" maskUnits="userSpaceOnUse" x="232" y="2" width="3" height="1">
<path d="M232.978 2.52073C232.95 2.4297 233.16 2.35573 233.443 2.35004C233.727 2.34435 233.976 2.41832 234.005 2.50935C234.033 2.60039 233.823 2.67436 233.54 2.68005C233.256 2.68574 233.007 2.61177 232.978 2.52073Z" fill="white"/>
</mask>
<g mask="url(#mask2_1094_3208)">
<path d="M233.489 2.5207C233.319 2.5207 233.148 2.5207 232.978 2.5207C233.007 2.61174 233.256 2.68571 233.54 2.68002C233.523 2.62312 233.506 2.57191 233.489 2.51501V2.5207Z" stroke="white" stroke-width="0.457039" stroke-miterlimit="10"/>
<path d="M233.313 2.52063C233.324 2.54908 233.404 2.57753 233.5 2.57184" stroke="white" stroke-width="0.457039" stroke-miterlimit="10"/>
<path d="M233.143 2.52063C233.16 2.58322 233.33 2.62874 233.517 2.62874" stroke="white" stroke-width="0.457039" stroke-miterlimit="10"/>
<path d="M233.489 2.52063C233.347 2.54908 233.211 2.57753 233.069 2.60598" stroke="white" stroke-width="0.457039" stroke-miterlimit="10"/>
<path d="M233.489 2.52063C233.415 2.56615 233.347 2.61167 233.273 2.66288" stroke="white" stroke-width="0.457039" stroke-miterlimit="10"/>
<path d="M233.489 2.5207C233.506 2.57191 233.523 2.62881 233.54 2.68571C233.823 2.68571 234.028 2.60605 234.005 2.51501C233.835 2.51501 233.665 2.51501 233.494 2.5207H233.489Z" stroke="white" stroke-width="0.457039" stroke-miterlimit="10"/>
<path d="M233.5 2.57753C233.597 2.57753 233.665 2.54908 233.653 2.52063" stroke="white" stroke-width="0.457039" stroke-miterlimit="10"/>
<path d="M233.517 2.62869C233.705 2.62869 233.846 2.57748 233.824 2.51489" stroke="white" stroke-width="0.457039" stroke-miterlimit="10"/>
<path d="M233.489 2.52063C233.591 2.56615 233.687 2.61167 233.789 2.65719" stroke="white" stroke-width="0.457039" stroke-miterlimit="10"/>
<path d="M233.489 2.52063C233.648 2.54339 233.801 2.57184 233.954 2.60029" stroke="white" stroke-width="0.457039" stroke-miterlimit="10"/>
<path d="M233.489 2.52066C233.659 2.52066 233.829 2.52066 233.999 2.51497C233.971 2.42393 233.721 2.34996 233.438 2.35565C233.455 2.41255 233.472 2.46945 233.489 2.52635V2.52066Z" stroke="white" stroke-width="0.457039" stroke-miterlimit="10"/>
<path d="M233.659 2.52069C233.648 2.49224 233.568 2.46379 233.472 2.46948" stroke="white" stroke-width="0.457039" stroke-miterlimit="10"/>
<path d="M233.829 2.5207C233.812 2.45812 233.642 2.4126 233.455 2.4126" stroke="white" stroke-width="0.457039" stroke-miterlimit="10"/>
<path d="M233.489 2.52072C233.631 2.49228 233.767 2.45814 233.909 2.42969" stroke="white" stroke-width="0.457039" stroke-miterlimit="10"/>
<path d="M233.489 2.52074C233.563 2.46953 233.631 2.42401 233.704 2.3728" stroke="white" stroke-width="0.457039" stroke-miterlimit="10"/>
<path d="M233.489 2.52067C233.472 2.46377 233.455 2.40687 233.438 2.34998C233.154 2.34998 232.95 2.42963 232.973 2.52067C233.143 2.52067 233.313 2.52067 233.483 2.52067H233.489Z" stroke="white" stroke-width="0.457039" stroke-miterlimit="10"/>
<path d="M233.472 2.46362C233.375 2.46362 233.307 2.49207 233.319 2.52052" stroke="white" stroke-width="0.457039" stroke-miterlimit="10"/>
<path d="M233.455 2.41248C233.268 2.41248 233.126 2.46368 233.148 2.52627" stroke="white" stroke-width="0.457039" stroke-miterlimit="10"/>
<path d="M233.489 2.52054C233.387 2.46933 233.29 2.42381 233.188 2.3783" stroke="white" stroke-width="0.457039" stroke-miterlimit="10"/>
<path d="M233.489 2.52053C233.336 2.49208 233.177 2.46363 233.024 2.43518" stroke="white" stroke-width="0.457039" stroke-miterlimit="10"/>
<path d="M232.973 2.52075C222.212 2.58903 212.014 6.69708 204.191 13.9914C205.751 19.1578 219.989 23.2544 235.996 23.152C235.451 13.4509 234.584 6.15654 233.534 2.68576C233.251 2.68576 233.001 2.61748 232.973 2.52644V2.52075Z" stroke="white" stroke-width="0.457039" stroke-miterlimit="10"/>
<path d="M233.069 2.60596C224.305 4.42101 215.978 10.1563 209.574 18.6854" stroke="white" stroke-width="0.457039" stroke-miterlimit="10"/>
<path d="M233.273 2.66284C228.747 5.69551 224.39 12.5802 220.987 21.9684" stroke="white" stroke-width="0.457039" stroke-miterlimit="10"/>
<path d="M233.534 2.68575C234.583 6.15653 235.451 13.4509 235.996 23.152C252.003 23.0496 263.716 18.7765 262.156 13.6102C254.737 6.41827 244.754 2.44108 233.999 2.51505C234.028 2.60609 233.818 2.68006 233.534 2.68575Z" stroke="white" stroke-width="0.457039" stroke-miterlimit="10"/>
<path d="M233.789 2.66296C240.125 5.62167 245.956 12.4381 250.239 21.7807" stroke="white" stroke-width="0.457039" stroke-miterlimit="10"/>
<path d="M233.954 2.60046C243.772 4.29034 252.871 9.91757 259.627 18.3556" stroke="white" stroke-width="0.457039" stroke-miterlimit="10"/>
<path d="M233.999 2.515C244.76 2.44673 254.737 6.41822 262.156 13.6101C260.597 8.44379 246.359 4.34713 230.352 4.44954C231.294 -0.335593 232.388 -1.12079 233.432 2.35C233.716 2.35 233.965 2.41828 233.994 2.50931L233.999 2.515Z" stroke="white" stroke-width="0.457039" stroke-miterlimit="10"/>
<path d="M233.903 2.43522C242.666 0.620168 250.772 2.95868 256.779 8.92161" stroke="white" stroke-width="0.457039" stroke-miterlimit="10"/>
<path d="M233.704 2.37263C238.231 -0.660038 242.366 0.534823 245.372 5.6329" stroke="white" stroke-width="0.457039" stroke-miterlimit="10"/>
<path d="M233.438 2.35574C232.388 -1.11505 231.299 -0.329856 230.358 4.45528C214.35 4.5577 202.637 8.83075 204.197 13.9971C212.013 6.70276 222.218 2.6004 232.978 2.52643C232.95 2.43539 233.16 2.36143 233.443 2.35574H233.438Z" stroke="white" stroke-width="0.457039" stroke-miterlimit="10"/>
<path d="M233.182 2.37828C226.847 -0.580427 220.794 0.677022 216.109 5.82631" stroke="white" stroke-width="0.457039" stroke-miterlimit="10"/>
<path d="M233.018 2.44086C223.199 0.750984 213.88 3.2033 206.727 9.25157" stroke="white" stroke-width="0.457039" stroke-miterlimit="10"/>
<path d="M233.489 2.52073C233.319 2.52073 233.148 2.52073 232.978 2.52073M232.978 2.52073C232.95 2.4297 233.16 2.35573 233.443 2.35004C233.727 2.34435 233.977 2.41832 234.005 2.50935C234.033 2.60039 233.823 2.67436 233.54 2.68005C233.256 2.68574 233.007 2.61177 232.978 2.52073Z" stroke="white" stroke-width="0.457039" stroke-miterlimit="10"/>
</g>
<path d="M233.489 2.52073C233.318 2.52073 233.148 2.52073 232.978 2.52073M232.978 2.52073C232.95 2.4297 233.16 2.35573 233.443 2.35004C233.727 2.34435 233.976 2.41832 234.005 2.50935C234.033 2.60039 233.823 2.67436 233.54 2.68005C233.256 2.68574 233.007 2.61177 232.978 2.52073Z" stroke="white" stroke-width="0.457039" stroke-miterlimit="10"/>
<mask id="mask3_1094_3208" style="mask-type:luminance" maskUnits="userSpaceOnUse" x="191" y="0" width="83" height="83">
<path d="M193.102 53.1771C197.855 68.9322 213.057 80.3346 231.35 80.3232C213.063 80.3346 197.855 68.9322 193.102 53.1771C191.293 47.0833 191.349 42.6168 191.378 40.2157C191.395 38.6169 191.593 36.4889 191.865 34.9185C192.2 32.9896 192.784 30.4406 193.397 28.58C195.303 22.7764 197.986 18.9756 199.137 17.354C200.147 15.9316 201.662 14.1507 202.875 12.8989C204.089 11.6471 205.91 10.0881 207.271 8.96154C208.417 8.01134 210.119 6.96441 211.378 6.16215C212.036 5.74679 212.961 5.28023 213.641 4.9047C214.441 4.46658 215.559 3.97726 216.392 3.61311C216.982 3.35707 217.788 3.0612 218.389 2.82792C218.412 2.82223 220.528 1.9972 223.63 1.30305C225.258 0.938897 227 0.671475 228.798 0.506471C234.175 0.0171464 242.44 0.392674 251.294 4.95022C252.389 5.51351 253.796 6.36698 254.839 7.02131C255.486 7.42529 256.303 8.03979 256.927 8.4779C258.01 9.24034 259.366 10.3897 260.324 11.3057C261.362 12.2958 262.78 13.6499 264.448 15.7267C265.611 17.1776 267.018 19.226 267.954 20.8305C270.024 24.4037 271.544 28.25 272.457 32.2556C272.701 33.3196 272.957 34.7592 273.11 35.8402C273.246 36.8246 273.348 38.1503 273.422 39.1403C273.541 40.7505 273.507 42.907 273.359 44.5115C273.178 46.4859 272.792 49.1089 272.327 51.032C271.862 52.9552 271.045 55.3677 270.313 57.16C269.633 58.8328 267.647 63.2083 263.943 67.6236C260.341 71.9194 254.028 77.6604 244.368 80.6362C236.705 82.9974 230.494 82.4342 228.452 82.2464C226.109 82.0359 223.307 81.4896 220.959 80.7955C219.246 80.2891 217.941 79.7884 217.317 79.538C216.183 79.0828 214.685 78.4171 213.602 77.8425C212.518 77.2678 211.072 76.4371 210.039 75.76C209.007 75.0829 207.663 74.1213 206.704 73.3418C203.482 70.7131 201.832 68.7444 200.504 67.157C199.875 66.4059 199.069 65.3647 198.547 64.534C197.543 62.9465 196.29 60.7787 195.411 59.123C194.531 57.4672 193.72 54.9922 193.096 53.1828L193.102 53.1771Z" fill="white"/>
</mask>
<g mask="url(#mask3_1094_3208)">
<path d="M231.345 80.3232C208.82 80.3402 190.981 63.0375 191.57 41.6267C193.766 48.904 213.834 54.6848 236.393 54.5369C235.803 75.9477 233.54 87.4582 231.345 80.3232Z" stroke="white" stroke-width="0.457039" stroke-miterlimit="10"/>
<path d="M210.896 75.0544C212.002 78.7244 222.127 81.6376 233.506 81.5636" stroke="white" stroke-width="0.457039" stroke-miterlimit="10"/>
<path d="M196.619 61.1771C198.513 67.4587 215.842 72.4487 235.315 72.3235" stroke="white" stroke-width="0.457039" stroke-miterlimit="10"/>
<path d="M231.345 80.3232C213.006 83.9874 198.564 69.6548 199.154 48.2383" stroke="white" stroke-width="0.457039" stroke-miterlimit="10"/>
<path d="M231.345 80.3232C221.872 86.5422 214.645 74.2863 215.235 52.8699" stroke="white" stroke-width="0.457039" stroke-miterlimit="10"/>
<path d="M231.345 80.3231C233.54 87.4581 235.803 75.9476 236.393 54.5368C258.952 54.3889 275.458 48.3691 273.263 41.0918C272.673 62.5026 253.875 80.0443 231.345 80.3231Z" stroke="white" stroke-width="0.457039" stroke-miterlimit="10"/>
<path d="M233.5 81.5634C244.879 81.4894 253.206 78.4511 252.094 74.7811" stroke="white" stroke-width="0.457039" stroke-miterlimit="10"/>
<path d="M235.315 72.3232C254.788 72.198 269.043 66.9975 267.148 60.7159" stroke="white" stroke-width="0.457039" stroke-miterlimit="10"/>
<path d="M231.345 80.323C244.612 86.394 255.877 74.013 256.467 52.6022" stroke="white" stroke-width="0.457039" stroke-miterlimit="10"/>
<path d="M231.345 80.323C251.907 83.7312 269.105 69.188 269.695 47.7772" stroke="white" stroke-width="0.457039" stroke-miterlimit="10"/>
<path d="M231.345 80.3231C253.875 80.0443 272.673 62.5026 273.263 41.0918C271.068 33.8145 250.999 28.0337 228.44 28.1816C227.851 49.5924 229.155 72.9263 231.345 80.3231Z" stroke="white" stroke-width="0.457039" stroke-miterlimit="10"/>
<path d="M252.1 74.7813C250.994 71.1113 240.868 68.1982 229.49 68.2721" stroke="white" stroke-width="0.457039" stroke-miterlimit="10"/>
<path d="M267.143 60.716C265.248 54.4345 247.919 49.4445 228.446 49.5697" stroke="white" stroke-width="0.457039" stroke-miterlimit="10"/>
<path d="M231.345 80.3233C249.694 76.3973 265.089 55.8855 265.679 34.4747" stroke="white" stroke-width="0.457039" stroke-miterlimit="10"/>
<path d="M231.345 80.3232C240.823 73.8425 249.008 51.2596 249.598 29.8431" stroke="white" stroke-width="0.457039" stroke-miterlimit="10"/>
<path d="M231.345 80.3231C229.155 72.9264 227.851 49.5924 228.44 28.1816C205.882 28.3296 189.375 34.3494 191.571 41.6267C190.981 63.0375 208.826 80.3402 231.345 80.3231Z" stroke="white" stroke-width="0.457039" stroke-miterlimit="10"/>
<path d="M229.49 68.272C218.111 68.3459 209.784 71.3843 210.896 75.0542" stroke="white" stroke-width="0.457039" stroke-miterlimit="10"/>
<path d="M228.446 49.5696C208.973 49.6948 194.719 54.8952 196.613 61.1768" stroke="white" stroke-width="0.457039" stroke-miterlimit="10"/>
<path d="M231.345 80.323C218.083 73.9903 207.776 51.5269 208.366 30.1161" stroke="white" stroke-width="0.457039" stroke-miterlimit="10"/>
<path d="M231.345 80.323C210.788 76.6531 194.548 56.3518 195.138 34.941" stroke="white" stroke-width="0.457039" stroke-miterlimit="10"/>
<path d="M191.571 41.6267C192.16 20.2159 210.958 2.67418 233.489 2.52625C235.684 9.79214 236.989 33.1261 236.399 54.5369C213.84 54.6848 193.771 48.9039 191.576 41.6267H191.571Z" stroke="white" stroke-width="0.457039" stroke-miterlimit="10"/>
<path d="M197.691 22.0024C199.585 28.284 216.914 33.274 236.387 33.1488" stroke="white" stroke-width="0.457039" stroke-miterlimit="10"/>
<path d="M212.74 7.9657C213.846 11.6356 223.971 14.5488 235.349 14.4748" stroke="white" stroke-width="0.457039" stroke-miterlimit="10"/>
<path d="M199.154 48.2382C199.744 26.8274 215.139 6.31562 233.489 2.52051" stroke="white" stroke-width="0.457039" stroke-miterlimit="10"/>
<path d="M215.235 52.8697C215.825 31.4589 224.01 8.87034 233.489 2.52051" stroke="white" stroke-width="0.457039" stroke-miterlimit="10"/>
<path d="M236.393 54.5312C236.983 33.1204 235.678 9.78649 233.483 2.52059C256.008 2.37266 273.853 19.6754 273.263 41.0862C275.458 48.3635 258.952 54.3833 236.393 54.5312Z" stroke="white" stroke-width="0.457039" stroke-miterlimit="10"/>
<path d="M236.387 33.149C255.86 33.0238 270.115 27.8233 268.22 21.5417" stroke="white" stroke-width="0.457039" stroke-miterlimit="10"/>
<path d="M235.344 14.4806C246.722 14.4067 255.049 11.3683 253.937 7.69836" stroke="white" stroke-width="0.457039" stroke-miterlimit="10"/>
<path d="M256.467 52.6024C257.057 31.1917 246.751 8.72827 233.483 2.52637" stroke="white" stroke-width="0.457039" stroke-miterlimit="10"/>
<path d="M269.695 47.7775C270.285 26.3667 254.045 6.06543 233.483 2.52637" stroke="white" stroke-width="0.457039" stroke-miterlimit="10"/>
<path d="M273.269 41.0861C273.858 19.6754 256.013 2.37263 233.489 2.52057C231.294 -4.74533 229.036 6.76517 228.446 28.176C251.005 28.028 271.073 33.8089 273.269 41.0861Z" stroke="white" stroke-width="0.457039" stroke-miterlimit="10"/>
<path d="M268.22 21.5416C266.326 15.26 248.997 10.2701 229.524 10.3952" stroke="white" stroke-width="0.457039" stroke-miterlimit="10"/>
<path d="M253.943 7.69827C252.837 4.02834 242.712 1.11515 231.333 1.18912" stroke="white" stroke-width="0.457039" stroke-miterlimit="10"/>
<path d="M265.685 34.4745C266.275 13.0638 251.833 -1.27458 233.489 2.52052" stroke="white" stroke-width="0.457039" stroke-miterlimit="10"/>
<path d="M249.604 29.843C250.194 8.43221 242.967 -3.82935 233.489 2.52049" stroke="white" stroke-width="0.457039" stroke-miterlimit="10"/>
<path d="M228.44 28.1816C229.03 6.77079 231.294 -4.73971 233.483 2.52618C210.958 2.67412 192.155 20.2158 191.565 41.6266C189.37 34.3493 205.876 28.3295 228.435 28.1816H228.44Z" stroke="white" stroke-width="0.457039" stroke-miterlimit="10"/>
<path d="M229.524 10.3951C210.051 10.5203 195.796 15.7208 197.691 22.0024" stroke="white" stroke-width="0.457039" stroke-miterlimit="10"/>
<path d="M231.333 1.18909C219.955 1.26305 211.628 4.30142 212.739 7.97135" stroke="white" stroke-width="0.457039" stroke-miterlimit="10"/>
<path d="M208.366 30.1161C208.956 8.7053 220.221 -3.67574 233.483 2.52616" stroke="white" stroke-width="0.457039" stroke-miterlimit="10"/>
<path d="M195.138 34.9353C195.728 13.5245 212.927 -1.01868 233.483 2.52039" stroke="white" stroke-width="0.457039" stroke-miterlimit="10"/>
<path d="M193.102 53.1771C197.855 68.9322 213.057 80.3346 231.35 80.3232C213.063 80.3346 197.855 68.9322 193.102 53.1771ZM193.102 53.1771C191.293 47.0833 191.349 42.6168 191.378 40.2157C191.395 38.6169 191.593 36.4889 191.865 34.9185C192.2 32.9896 192.784 30.4406 193.397 28.58C195.303 22.7764 197.986 18.9756 199.137 17.354C200.147 15.9316 201.662 14.1507 202.875 12.8989C204.089 11.6471 205.91 10.0881 207.271 8.96154C208.417 8.01134 210.119 6.96441 211.378 6.16215C212.036 5.74679 212.961 5.28023 213.641 4.9047C214.441 4.46658 215.559 3.97726 216.392 3.61311C216.982 3.35707 217.788 3.0612 218.389 2.82792C218.412 2.82223 220.528 1.9972 223.63 1.30305C225.258 0.938897 227 0.671475 228.798 0.506471C234.175 0.0171464 242.44 0.392674 251.294 4.95022C252.389 5.51351 253.796 6.36698 254.839 7.02131C255.486 7.42529 256.303 8.03979 256.927 8.4779C258.01 9.24034 259.366 10.3897 260.324 11.3057C261.362 12.2958 262.78 13.6499 264.448 15.7267C265.611 17.1776 267.018 19.226 267.954 20.8305C270.024 24.4037 271.544 28.25 272.457 32.2557C272.701 33.3196 272.957 34.7592 273.11 35.8402C273.246 36.8246 273.348 38.1503 273.422 39.1403C273.541 40.7505 273.507 42.907 273.359 44.5115C273.178 46.4859 272.792 49.1089 272.327 51.032C271.862 52.9552 271.045 55.3677 270.313 57.16C269.633 58.8328 267.647 63.2083 263.943 67.6236C260.341 71.9194 254.028 77.6604 244.368 80.6362C236.705 82.9974 230.494 82.4342 228.452 82.2464C226.109 82.0359 223.307 81.4896 220.959 80.7955C219.246 80.2891 217.941 79.7884 217.317 79.538C216.183 79.0828 214.685 78.4171 213.602 77.8425C212.518 77.2678 211.072 76.4371 210.039 75.76C209.007 75.0829 207.663 74.1213 206.704 73.3418C203.482 70.7131 201.832 68.7444 200.504 67.157C199.875 66.4059 199.069 65.3647 198.547 64.534C197.543 62.9465 196.29 60.7787 195.411 59.123C194.531 57.4672 193.72 54.9922 193.096 53.1828L193.102 53.1771Z" stroke="white" stroke-width="0.457039" stroke-miterlimit="10"/>
</g>
<path d="M193.102 53.1771C197.855 68.9322 213.057 80.3346 231.35 80.3232C213.063 80.3346 197.855 68.9322 193.102 53.1771ZM193.102 53.1771C191.293 47.0833 191.349 42.6168 191.378 40.2157C191.395 38.6169 191.593 36.4889 191.865 34.9185C192.2 32.9896 192.784 30.4406 193.397 28.58C195.303 22.7764 197.986 18.9756 199.137 17.354C200.147 15.9316 201.662 14.1507 202.875 12.8989C204.089 11.6471 205.91 10.0881 207.271 8.96154C208.417 8.01134 210.119 6.96441 211.378 6.16215C212.036 5.74679 212.961 5.28023 213.641 4.9047C214.441 4.46658 215.559 3.97726 216.392 3.61311C216.982 3.35707 217.788 3.0612 218.389 2.82792C218.412 2.82223 220.528 1.9972 223.63 1.30305C225.258 0.938897 227 0.671475 228.798 0.506471C234.175 0.0171464 242.44 0.392674 251.294 4.95022C252.389 5.51351 253.796 6.36698 254.839 7.02131C255.486 7.42529 256.303 8.03979 256.927 8.4779C258.01 9.24034 259.366 10.3897 260.324 11.3057C261.362 12.2958 262.78 13.6499 264.448 15.7267C265.611 17.1776 267.018 19.226 267.954 20.8305C270.024 24.4037 271.544 28.25 272.457 32.2557C272.701 33.3196 272.957 34.7592 273.11 35.8402C273.246 36.8246 273.348 38.1503 273.422 39.1403C273.541 40.7505 273.507 42.907 273.359 44.5115C273.178 46.4859 272.792 49.1089 272.327 51.032C271.862 52.9552 271.045 55.3677 270.313 57.16C269.633 58.8328 267.647 63.2083 263.943 67.6236C260.341 71.9194 254.028 77.6604 244.368 80.6362C236.705 82.9974 230.494 82.4342 228.452 82.2464C226.109 82.0359 223.307 81.4896 220.959 80.7955C219.246 80.2891 217.941 79.7884 217.317 79.538C216.183 79.0828 214.685 78.4171 213.602 77.8425C212.518 77.2678 211.072 76.4371 210.039 75.76C209.007 75.0829 207.663 74.1213 206.704 73.3418C203.482 70.7131 201.832 68.7444 200.504 67.157C199.875 66.4059 199.069 65.3647 198.547 64.534C197.543 62.9465 196.29 60.7787 195.411 59.123C194.531 57.4672 193.72 54.9922 193.096 53.1828L193.102 53.1771Z" stroke="white" stroke-width="0.457039" stroke-miterlimit="10"/>
<mask id="mask4_1094_3208" style="mask-type:luminance" maskUnits="userSpaceOnUse" x="191" y="0" width="83" height="83">
<path d="M232.666 82.4342C229.756 82.4342 225.236 82.218 219.609 80.3688C217.045 79.521 214.929 78.5253 213.607 77.8368C210.89 76.4201 208.899 75.009 207.952 74.2978C206.574 73.2565 204.787 71.7885 203.584 70.5482C202.631 69.5581 201.395 68.2096 200.51 67.157C199.914 66.4515 199.194 65.4501 198.661 64.6933C197.583 63.1571 196.312 60.9893 195.501 59.2994C194.826 57.8997 193.941 55.9424 193.102 53.1828C192.002 49.5357 191.463 45.6552 191.57 41.6325C192.16 20.2217 210.958 2.68003 233.489 2.53209C210.964 2.68003 192.16 20.2217 191.57 41.6325C191.457 45.6552 192.002 49.5357 193.102 53.1828C192.614 51.2881 191.985 48.7505 191.724 46.8159C191.434 44.6254 191.315 42.4063 191.378 40.2214C191.502 35.8005 192.325 31.4705 193.828 27.3511C195.462 22.8561 197.617 19.4365 199.137 17.3598C200.635 15.3114 203.108 12.2105 207.271 8.96727C211.639 5.56476 215.984 3.73833 217.646 3.10676C219.319 2.47519 223.761 0.802387 229.927 0.426859C236.098 0.0513309 240.789 1.19498 242.332 1.57051C244.499 2.09967 248.821 3.39125 253.438 6.15082C254.522 6.79945 255.906 7.74965 256.932 8.48364C257.63 8.98434 258.504 9.71833 259.162 10.2646C260.506 11.3854 262.128 13.081 263.314 14.3726C264.267 15.4081 265.418 16.8932 266.195 18.0653C267.233 19.6243 268.532 21.7751 269.355 23.4592C270.177 25.1434 271.13 27.5616 271.692 29.388C271.992 30.3667 272.333 31.6924 272.554 32.6938C272.741 33.5245 272.911 34.6454 273.059 35.4818C273.541 38.2585 273.615 43.22 273.24 45.86C272.962 47.8117 272.525 50.4119 272.004 52.3123C271.482 54.2127 270.568 56.574 269.808 58.3435C269.048 60.113 267.772 62.2581 266.762 63.8569C265.974 65.0973 264.794 66.6734 263.83 67.7829C262.656 69.1371 260.988 70.8611 259.655 72.0617C258.441 73.1541 256.739 74.5197 255.361 75.3959C254.692 75.8169 253.818 76.4201 253.121 76.807C251.946 77.4613 250.358 78.3091 249.133 78.861C246.178 80.2038 243.466 80.9321 242.706 81.1255C240.466 81.6945 239.343 81.888 237.21 82.1668C236.382 82.2749 234.425 82.4513 232.678 82.4513L232.666 82.4342Z" fill="white"/>
</mask>
<g mask="url(#mask4_1094_3208)">
<path d="M231.345 80.3234C208.82 80.3405 190.981 63.0377 191.57 41.627C193.766 48.9042 213.834 54.6851 236.393 54.5371C235.803 75.9479 233.54 87.4584 231.345 80.3234Z" stroke="white" stroke-width="0.457039" stroke-miterlimit="10"/>
<path d="M210.896 75.0547C212.002 78.7246 222.127 81.6378 233.506 81.5638" stroke="white" stroke-width="0.457039" stroke-miterlimit="10"/>
<path d="M196.619 61.1774C198.513 67.4589 215.842 72.4489 235.315 72.3237" stroke="white" stroke-width="0.457039" stroke-miterlimit="10"/>
<path d="M231.345 80.3234C213.006 83.9876 198.564 69.655 199.154 48.2385" stroke="white" stroke-width="0.457039" stroke-miterlimit="10"/>
<path d="M231.345 80.3235C221.872 86.5425 214.645 74.2866 215.235 52.8701" stroke="white" stroke-width="0.457039" stroke-miterlimit="10"/>
<path d="M231.345 80.3233C233.54 87.4584 235.803 75.9479 236.393 54.5371C258.952 54.3891 275.458 48.3693 273.263 41.092C272.673 62.5028 253.875 80.0445 231.345 80.3233Z" stroke="white" stroke-width="0.457039" stroke-miterlimit="10"/>
<path d="M233.5 81.5636C244.879 81.4897 253.206 78.4513 252.094 74.7814" stroke="white" stroke-width="0.457039" stroke-miterlimit="10"/>
<path d="M235.315 72.3234C254.788 72.1982 269.043 66.9977 267.148 60.7162" stroke="white" stroke-width="0.457039" stroke-miterlimit="10"/>
<path d="M231.345 80.3232C244.612 86.3942 255.877 74.0132 256.467 52.6024" stroke="white" stroke-width="0.457039" stroke-miterlimit="10"/>
<path d="M231.345 80.3232C251.907 83.7314 269.105 69.1883 269.695 47.7775" stroke="white" stroke-width="0.457039" stroke-miterlimit="10"/>
<path d="M231.345 80.3233C253.875 80.0445 272.673 62.5028 273.263 41.0921C271.068 33.8148 250.999 28.0339 228.44 28.1819C227.851 49.5926 229.155 72.9266 231.345 80.3233Z" stroke="white" stroke-width="0.457039" stroke-miterlimit="10"/>
<path d="M252.1 74.7815C250.993 71.1116 240.868 68.1984 229.49 68.2724" stroke="white" stroke-width="0.457039" stroke-miterlimit="10"/>
<path d="M267.142 60.7163C265.248 54.4347 247.919 49.4448 228.446 49.5699" stroke="white" stroke-width="0.457039" stroke-miterlimit="10"/>
<path d="M231.345 80.3235C249.694 76.3975 265.089 55.8858 265.679 34.475" stroke="white" stroke-width="0.457039" stroke-miterlimit="10"/>
<path d="M231.345 80.3234C240.823 73.8427 249.008 51.2599 249.598 29.8434" stroke="white" stroke-width="0.457039" stroke-miterlimit="10"/>
<path d="M231.345 80.3232C229.155 72.9265 227.851 49.5925 228.44 28.1818C205.882 28.3297 189.375 34.3495 191.571 41.6268C190.981 63.0376 208.826 80.3403 231.345 80.3232Z" stroke="white" stroke-width="0.457039" stroke-miterlimit="10"/>
<path d="M229.49 68.2721C218.111 68.3461 209.784 71.3844 210.896 75.0544" stroke="white" stroke-width="0.457039" stroke-miterlimit="10"/>
<path d="M228.446 49.5697C208.973 49.6949 194.719 54.8954 196.613 61.1769" stroke="white" stroke-width="0.457039" stroke-miterlimit="10"/>
<path d="M231.345 80.3232C218.083 73.9904 207.776 51.527 208.366 30.1162" stroke="white" stroke-width="0.457039" stroke-miterlimit="10"/>
<path d="M231.345 80.3231C210.788 76.6532 194.548 56.3519 195.138 34.9412" stroke="white" stroke-width="0.457039" stroke-miterlimit="10"/>
<path d="M191.571 41.6268C192.16 20.216 210.958 2.6743 233.489 2.52637C235.684 9.79226 236.989 33.1262 236.399 54.537C213.84 54.6849 193.771 48.9041 191.576 41.6268H191.571Z" stroke="white" stroke-width="0.457039" stroke-miterlimit="10"/>
<path d="M197.691 22.0026C199.585 28.2841 216.914 33.2741 236.387 33.1489" stroke="white" stroke-width="0.457039" stroke-miterlimit="10"/>
<path d="M212.74 7.96582C213.846 11.6358 223.971 14.5489 235.349 14.475" stroke="white" stroke-width="0.457039" stroke-miterlimit="10"/>
<path d="M199.154 48.2383C199.744 26.8275 215.139 6.31574 233.489 2.52063" stroke="white" stroke-width="0.457039" stroke-miterlimit="10"/>
<path d="M215.235 52.8698C215.825 31.459 224.01 8.87047 233.489 2.52063" stroke="white" stroke-width="0.457039" stroke-miterlimit="10"/>
<path d="M236.393 54.5315C236.983 33.1207 235.678 9.78674 233.483 2.52084C256.008 2.3729 273.853 19.6756 273.263 41.0864C275.458 48.3637 258.952 54.3835 236.393 54.5315Z" stroke="white" stroke-width="0.457039" stroke-miterlimit="10"/>
<path d="M236.387 33.1492C255.86 33.024 270.115 27.8236 268.22 21.542" stroke="white" stroke-width="0.457039" stroke-miterlimit="10"/>
<path d="M235.344 14.4809C246.722 14.4069 255.049 11.3685 253.937 7.69861" stroke="white" stroke-width="0.457039" stroke-miterlimit="10"/>
<path d="M256.467 52.6027C257.057 31.1919 246.751 8.72851 233.483 2.52661" stroke="white" stroke-width="0.457039" stroke-miterlimit="10"/>
<path d="M269.695 47.7777C270.285 26.3669 254.045 6.06568 233.483 2.52661" stroke="white" stroke-width="0.457039" stroke-miterlimit="10"/>
<path d="M273.269 41.0864C273.858 19.6756 256.013 2.37288 233.489 2.52081C231.294 -4.74508 229.036 6.76542 228.446 28.1762C251.005 28.0283 271.073 33.8091 273.269 41.0864Z" stroke="white" stroke-width="0.457039" stroke-miterlimit="10"/>
<path d="M268.22 21.5418C266.326 15.2603 248.997 10.2703 229.524 10.3955" stroke="white" stroke-width="0.457039" stroke-miterlimit="10"/>
<path d="M253.943 7.69852C252.837 4.02859 242.712 1.1154 231.333 1.18937" stroke="white" stroke-width="0.457039" stroke-miterlimit="10"/>
<path d="M265.685 34.4748C266.275 13.064 251.833 -1.27434 233.489 2.52077" stroke="white" stroke-width="0.457039" stroke-miterlimit="10"/>
<path d="M249.604 29.8432C250.194 8.43245 242.967 -3.8291 233.489 2.52073" stroke="white" stroke-width="0.457039" stroke-miterlimit="10"/>
<path d="M228.44 28.1819C229.03 6.77115 231.294 -4.73935 233.483 2.52655C210.958 2.67449 192.155 20.2162 191.565 41.627C189.37 34.3497 205.876 28.3299 228.435 28.1819H228.44Z" stroke="white" stroke-width="0.457039" stroke-miterlimit="10"/>
<path d="M229.524 10.3954C210.051 10.5206 195.796 15.7211 197.691 22.0026" stroke="white" stroke-width="0.457039" stroke-miterlimit="10"/>
<path d="M231.333 1.18933C219.955 1.2633 211.628 4.30166 212.739 7.97159" stroke="white" stroke-width="0.457039" stroke-miterlimit="10"/>
<path d="M208.366 30.1163C208.956 8.70555 220.221 -3.67549 233.483 2.52641" stroke="white" stroke-width="0.457039" stroke-miterlimit="10"/>
<path d="M195.138 34.9355C195.728 13.5247 212.927 -1.01843 233.483 2.52063" stroke="white" stroke-width="0.457039" stroke-miterlimit="10"/>
<path d="M193.102 53.183C193.941 55.9425 194.826 57.8998 195.501 59.2995C196.312 60.9894 197.583 63.1572 198.661 64.6935C199.194 65.4502 199.914 66.4516 200.51 67.1572C201.395 68.2098 202.631 69.5583 203.584 70.5483C204.787 71.7887 206.574 73.2566 207.952 74.2979C208.899 75.0091 210.89 76.4202 213.607 77.8369C214.929 78.5254 217.045 79.5211 219.609 80.3689C225.236 82.2181 229.756 82.4343 232.666 82.4343L232.678 82.4514C234.425 82.4514 236.382 82.275 237.21 82.1669C239.343 81.8881 240.466 81.6946 242.706 81.1257C243.466 80.9322 246.178 80.2039 249.133 78.8611C250.358 78.3092 251.946 77.4614 253.121 76.8071C253.818 76.4202 254.692 75.8171 255.361 75.396C256.739 74.5198 258.441 73.1542 259.655 72.0618C260.988 70.8612 262.656 69.1372 263.83 67.783C264.794 66.6735 265.974 65.0974 266.762 63.8571C267.772 62.2582 269.048 60.1132 269.808 58.3436C270.568 56.5741 271.482 54.2128 272.004 52.3124C272.525 50.412 272.962 47.8118 273.24 45.8602C273.615 43.2201 273.541 38.2586 273.059 35.4819C272.911 34.6455 272.741 33.5246 272.554 32.6939C272.333 31.6925 271.992 30.3668 271.692 29.3882C271.13 27.5617 270.177 25.1435 269.355 23.4594C268.532 21.7752 267.233 19.6244 266.195 18.0654C265.418 16.8933 264.267 15.4083 263.314 14.3727C262.128 13.0811 260.506 11.3856 259.162 10.2647C258.504 9.71845 257.63 8.98447 256.932 8.48376C255.906 7.74978 254.522 6.79958 253.438 6.15094C248.821 3.39138 244.499 2.09979 242.332 1.57063C240.789 1.19511 236.098 0.0514529 229.927 0.426981C223.761 0.802509 219.319 2.47531 217.646 3.10688C215.984 3.73845 211.639 5.56489 207.271 8.9674C203.108 12.2106 200.635 15.3115 199.137 17.3599C197.617 19.4367 195.462 22.8562 193.828 27.3512C192.325 31.4706 191.502 35.8006 191.378 40.2216C191.315 42.4065 191.434 44.6255 191.724 46.8161C191.985 48.7506 192.614 51.2883 193.102 53.183ZM193.102 53.183C192.002 49.5358 191.463 45.6553 191.57 41.6326M193.102 53.183C192.002 49.5358 191.457 45.6553 191.57 41.6326M191.57 41.6326C192.16 20.2219 210.958 2.68015 233.489 2.53221C210.964 2.68015 192.16 20.2219 191.57 41.6326Z" stroke="white" stroke-width="0.457039" stroke-miterlimit="10"/>
</g>
<path d="M193.102 53.1828C193.941 55.9424 194.826 57.8997 195.501 59.2994C196.312 60.9893 197.583 63.1571 198.661 64.6933C199.194 65.4501 199.914 66.4515 200.51 67.157C201.395 68.2096 202.631 69.5581 203.584 70.5482C204.787 71.7885 206.574 73.2565 207.952 74.2978C208.899 75.009 210.89 76.4201 213.607 77.8368C214.929 78.5253 217.045 79.521 219.609 80.3688C225.236 82.218 229.756 82.4342 232.666 82.4342L232.678 82.4513C234.425 82.4513 236.382 82.2749 237.21 82.1668C239.343 81.888 240.466 81.6945 242.706 81.1255C243.466 80.9321 246.178 80.2038 249.133 78.861C250.358 78.3091 251.946 77.4613 253.121 76.807C253.818 76.4201 254.692 75.8169 255.361 75.3959C256.739 74.5196 258.441 73.1541 259.655 72.0617C260.988 70.8611 262.656 69.1371 263.83 67.7829C264.794 66.6734 265.974 65.0973 266.762 63.8569C267.772 62.2581 269.048 60.113 269.808 58.3435C270.568 56.574 271.482 54.2127 272.004 52.3123C272.525 50.4119 272.962 47.8117 273.24 45.86C273.615 43.22 273.541 38.2585 273.059 35.4818C272.911 34.6454 272.741 33.5245 272.554 32.6938C272.333 31.6924 271.992 30.3667 271.692 29.388C271.13 27.5616 270.177 25.1434 269.355 23.4592C268.532 21.7751 267.233 19.6243 266.195 18.0653C265.418 16.8932 264.267 15.4081 263.314 14.3726C262.128 13.081 260.506 11.3854 259.162 10.2646C258.504 9.71833 257.63 8.98434 256.932 8.48364C255.906 7.74965 254.522 6.79945 253.438 6.15082C248.821 3.39125 244.499 2.09967 242.332 1.57051C240.789 1.19498 236.098 0.0513309 229.927 0.426859C223.761 0.802387 219.319 2.47519 217.646 3.10676C215.984 3.73833 211.639 5.56476 207.271 8.96727C203.108 12.2105 200.635 15.3114 199.137 17.3598C197.617 19.4365 195.462 22.8561 193.828 27.3511C192.325 31.4705 191.502 35.8005 191.378 40.2214C191.315 42.4063 191.434 44.6254 191.724 46.8159C191.985 48.7505 192.614 51.2881 193.102 53.1828ZM193.102 53.1828C192.002 49.5357 191.463 45.6552 191.57 41.6325M193.102 53.1828C192.002 49.5357 191.457 45.6552 191.57 41.6325M191.57 41.6325C192.16 20.2217 210.958 2.68003 233.489 2.53209C210.964 2.68003 192.16 20.2217 191.57 41.6325Z" stroke="white" stroke-width="0.457039" stroke-miterlimit="10"/>
</g>
<defs>
<clipPath id="clip0_1094_3208">
<rect width="467" height="97" fill="white"/>
</clipPath>
</defs>
</svg>
