<svg width="1363" height="811" viewBox="0 0 1363 811" fill="none" xmlns="http://www.w3.org/2000/svg">
<path d="M1262.62 405.08C1262.62 573.571 1002.36 710.161 681.31 710.161C360.261 710.161 100 573.571 100 405.08C100 236.589 360.261 100 681.31 100C1002.36 100 1262.62 236.589 1262.62 405.08Z" stroke="#3D3D3D"/>
<path d="M1146.81 405.081C1146.81 540.348 938.221 650.004 680.908 650.004C423.594 650.004 215 540.348 215 405.081C215 269.813 423.594 160.157 680.908 160.157C938.221 160.157 1146.81 269.813 1146.81 405.081Z" stroke="#3D3D3D"/>
<path d="M1027.64 405.08C1027.64 505.768 872.367 587.392 680.822 587.392C489.278 587.392 334.001 505.768 334.001 405.08C334.001 304.392 489.278 222.769 680.822 222.769C872.367 222.769 1027.64 304.392 1027.64 405.08Z" stroke="#3D3D3D"/>
</svg>
